%TF.GenerationSoftware,KiCad,Pcbnew,10.0.4*%
%TF.CreationDate,2026-08-28T00:15:46+10:00*%
%TF.ProjectId,Dock Rev6,446f636b-2052-4657-9636-2e6b69636164,6 - mechanical correction v2*%
%TF.SameCoordinates,Original*%
%TF.FileFunction,Copper,L1,Top*%
%TF.FilePolarity,Positive*%
%FSLAX46Y46*%
G04 Gerber Fmt 4.6, Leading zero omitted, Abs format (unit mm)*
G04 Created by KiCad (PCBNEW 10.0.4) date 2026-08-28 00:15:46*
%MOMM*%
%LPD*%
G01*
G04 APERTURE LIST*
G04 Aperture macros list*
%AMRoundRect*
0 Rectangle with rounded corners*
0 $1 Rounding radius*
0 $2 $3 $4 $5 $6 $7 $8 $9 X,Y pos of 4 corners*
0 Add a 4 corners polygon primitive as box body*
4,1,4,$2,$3,$4,$5,$6,$7,$8,$9,$2,$3,0*
0 Add four circle primitives for the rounded corners*
1,1,$1+$1,$2,$3*
1,1,$1+$1,$4,$5*
1,1,$1+$1,$6,$7*
1,1,$1+$1,$8,$9*
0 Add four rect primitives between the rounded corners*
20,1,$1+$1,$2,$3,$4,$5,0*
20,1,$1+$1,$4,$5,$6,$7,0*
20,1,$1+$1,$6,$7,$8,$9,0*
20,1,$1+$1,$8,$9,$2,$3,0*%
G04 Aperture macros list end*
%TA.AperFunction,ComponentPad*%
%ADD10C,2.400000*%
%TD*%
%TA.AperFunction,ComponentPad*%
%ADD11R,1.800000X1.800000*%
%TD*%
%TA.AperFunction,ComponentPad*%
%ADD12C,1.800000*%
%TD*%
%TA.AperFunction,SMDPad,CuDef*%
%ADD13RoundRect,0.200000X-0.200000X-0.275000X0.200000X-0.275000X0.200000X0.275000X-0.200000X0.275000X0*%
%TD*%
%TA.AperFunction,SMDPad,CuDef*%
%ADD14RoundRect,0.225000X-0.225000X-0.250000X0.225000X-0.250000X0.225000X0.250000X-0.225000X0.250000X0*%
%TD*%
%TA.AperFunction,SMDPad,CuDef*%
%ADD15RoundRect,0.150000X-0.512500X-0.150000X0.512500X-0.150000X0.512500X0.150000X-0.512500X0.150000X0*%
%TD*%
%TA.AperFunction,SMDPad,CuDef*%
%ADD16RoundRect,0.218750X-0.218750X-0.256250X0.218750X-0.256250X0.218750X0.256250X-0.218750X0.256250X0*%
%TD*%
%TA.AperFunction,ComponentPad*%
%ADD17C,1.600000*%
%TD*%
%TA.AperFunction,ComponentPad*%
%ADD18C,2.100000*%
%TD*%
%TA.AperFunction,SMDPad,CuDef*%
%ADD19RoundRect,0.250000X-0.250000X-0.475000X0.250000X-0.475000X0.250000X0.475000X-0.250000X0.475000X0*%
%TD*%
%TA.AperFunction,ComponentPad*%
%ADD20RoundRect,0.250000X-0.550000X-0.550000X0.550000X-0.550000X0.550000X0.550000X-0.550000X0.550000X0*%
%TD*%
%TA.AperFunction,ComponentPad*%
%ADD21R,1.500000X1.500000*%
%TD*%
%TA.AperFunction,ComponentPad*%
%ADD22C,1.500000*%
%TD*%
%TA.AperFunction,ComponentPad*%
%ADD23R,1.900000X1.900000*%
%TD*%
%TA.AperFunction,ComponentPad*%
%ADD24C,1.900000*%
%TD*%
%TA.AperFunction,SMDPad,CuDef*%
%ADD25RoundRect,0.200000X0.200000X0.275000X-0.200000X0.275000X-0.200000X-0.275000X0.200000X-0.275000X0*%
%TD*%
%TA.AperFunction,ComponentPad*%
%ADD26R,1.600000X1.600000*%
%TD*%
%TA.AperFunction,ViaPad*%
%ADD27C,0.600000*%
%TD*%
%TA.AperFunction,Conductor*%
%ADD28C,0.200000*%
%TD*%
%TA.AperFunction,Conductor*%
%ADD29C,0.300000*%
%TD*%
%TA.AperFunction,Conductor*%
%ADD30C,0.250000*%
%TD*%
G04 APERTURE END LIST*
D10*
%TO.P,R7,1*%
%TO.N,Net-(D3-A)*%
X81500000Y-112880000D03*
%TO.P,R7,2*%
%TO.N,+5V*%
X81500000Y-128120000D03*
%TD*%
D11*
%TO.P,D2,1,K_1*%
%TO.N,IR_K*%
X119000000Y-137775000D03*
D12*
%TO.P,D2,2,A_2*%
%TO.N,Net-(D2-A)*%
X119000000Y-135235000D03*
%TD*%
D13*
%TO.P,R3,1*%
%TO.N,IR_PWM*%
X86675000Y-134500000D03*
%TO.P,R3,2*%
%TO.N,IR_GATE*%
X88325000Y-134500000D03*
%TD*%
D14*
%TO.P,C7,1*%
%TO.N,+5V*%
X106725000Y-148000000D03*
%TO.P,C7,2*%
%TO.N,GND*%
X108275000Y-148000000D03*
%TD*%
D11*
%TO.P,D3,1,K_1*%
%TO.N,IR_K*%
X81000000Y-102225000D03*
D12*
%TO.P,D3,2,A_2*%
%TO.N,Net-(D3-A)*%
X81000000Y-104765000D03*
%TD*%
D10*
%TO.P,R8,1*%
%TO.N,Net-(D4-A)*%
X87500000Y-128120000D03*
%TO.P,R8,2*%
%TO.N,+5V*%
X87500000Y-112880000D03*
%TD*%
D14*
%TO.P,C5,1*%
%TO.N,BUTTON*%
X87225000Y-94000000D03*
%TO.P,C5,2*%
%TO.N,GND*%
X88775000Y-94000000D03*
%TD*%
D15*
%TO.P,Q1,1,S1_1*%
%TO.N,GND*%
X86225000Y-139500000D03*
%TO.P,Q1,2,G1_2*%
%TO.N,IR_GATE*%
X86225000Y-140450000D03*
%TO.P,Q1,3,S2_3*%
%TO.N,GND*%
X86225000Y-141400000D03*
%TO.P,Q1,4,G2_4*%
%TO.N,IR_GATE*%
X88500000Y-141400000D03*
%TO.P,Q1,5,D2_5*%
%TO.N,IR_K*%
X88500000Y-140450000D03*
%TO.P,Q1,6,D1_6*%
X88500000Y-139500000D03*
%TD*%
D13*
%TO.P,R1,1*%
%TO.N,+3V3*%
X87175000Y-95500000D03*
%TO.P,R1,2*%
%TO.N,BUTTON*%
X88825000Y-95500000D03*
%TD*%
D14*
%TO.P,C1,1*%
%TO.N,+5V*%
X111225000Y-94000000D03*
%TO.P,C1,2*%
%TO.N,GND*%
X112775000Y-94000000D03*
%TD*%
D16*
%TO.P,D5,1*%
%TO.N,GND*%
X99212500Y-165000000D03*
%TO.P,D5,2*%
%TO.N,Net-(D5-A)*%
X100787500Y-165000000D03*
%TD*%
D11*
%TO.P,D4,1,K_1*%
%TO.N,IR_K*%
X81000000Y-135225000D03*
D12*
%TO.P,D4,2,A_2*%
%TO.N,Net-(D4-A)*%
X81000000Y-137765000D03*
%TD*%
D17*
%TO.P,SW1,1*%
%TO.N,BUTTON*%
X102250000Y-87750000D03*
%TO.P,SW1,2*%
%TO.N,GND*%
X97750000Y-87750000D03*
D18*
%TO.P,SW1,3*%
%TO.N,N/C*%
X103500000Y-90250000D03*
%TO.P,SW1,4*%
X96500000Y-90250000D03*
%TD*%
D14*
%TO.P,C3,1*%
%TO.N,+3V3*%
X110725000Y-107000000D03*
%TO.P,C3,2*%
%TO.N,GND*%
X112275000Y-107000000D03*
%TD*%
D11*
%TO.P,D1,1,K_1*%
%TO.N,IR_K*%
X119000000Y-104775000D03*
D12*
%TO.P,D1,2,A_2*%
%TO.N,Net-(D1-A)*%
X119000000Y-102235000D03*
%TD*%
D19*
%TO.P,C4,1*%
%TO.N,+3V3*%
X110650000Y-104800000D03*
%TO.P,C4,2*%
%TO.N,GND*%
X112550000Y-104800000D03*
%TD*%
D13*
%TO.P,R4,1*%
%TO.N,IR_GATE*%
X86675000Y-136000000D03*
%TO.P,R4,2*%
%TO.N,GND*%
X88325000Y-136000000D03*
%TD*%
D10*
%TO.P,R6,1*%
%TO.N,Net-(D2-A)*%
X118000000Y-128120000D03*
%TO.P,R6,2*%
%TO.N,+5V*%
X118000000Y-112880000D03*
%TD*%
D20*
%TO.P,C6,1*%
%TO.N,+5V*%
X110294888Y-99000000D03*
D17*
%TO.P,C6,2*%
%TO.N,GND*%
X112794888Y-99000000D03*
%TD*%
D21*
%TO.P,J1,1*%
%TO.N,+5V*%
X88500000Y-101000000D03*
D22*
%TO.P,J1,2*%
%TO.N,GND*%
X88500000Y-103500000D03*
%TD*%
D23*
%TO.P,U2,1,GND_1*%
%TO.N,GND*%
X103310000Y-98880000D03*
D24*
%TO.P,U2,2,VCC_2*%
%TO.N,+3V3*%
X103310000Y-101420000D03*
%TO.P,U2,3,GDO0_3*%
%TO.N,RF_GDO0*%
X100770000Y-98880000D03*
%TO.P,U2,4,CSN_4*%
%TO.N,RF_CSN*%
X100770000Y-101420000D03*
%TO.P,U2,5,SCK_5*%
%TO.N,RF_SCK*%
X98230000Y-98880000D03*
%TO.P,U2,6,MOSI_6*%
%TO.N,RF_MOSI*%
X98230000Y-101420000D03*
%TO.P,U2,7,MISO/GDO1_7*%
%TO.N,RF_MISO*%
X95690000Y-98880000D03*
%TO.P,U2,8,GDO2_8*%
%TO.N,RF_GDO2*%
X95690000Y-101420000D03*
%TD*%
D10*
%TO.P,R5,1*%
%TO.N,Net-(D1-A)*%
X112500000Y-112880000D03*
%TO.P,R5,2*%
%TO.N,+5V*%
X112500000Y-128120000D03*
%TD*%
D19*
%TO.P,C2,1*%
%TO.N,+5V*%
X111050000Y-92000000D03*
%TO.P,C2,2*%
%TO.N,GND*%
X112950000Y-92000000D03*
%TD*%
D25*
%TO.P,R2,1*%
%TO.N,Net-(U1-GPIO1{slash}A1)*%
X108325000Y-149500000D03*
%TO.P,R2,2*%
%TO.N,Net-(D5-A)*%
X106675000Y-149500000D03*
%TD*%
D17*
%TO.P,U1,0,GPIO0/A0_0*%
%TO.N,IR_PWM*%
X107620000Y-91280000D03*
%TO.P,U1,1,GPIO1/A1_1*%
%TO.N,Net-(U1-GPIO1{slash}A1)*%
X107620000Y-88740000D03*
%TO.P,U1,2,GPIO2/A2_2*%
%TO.N,unconnected-(U1-GPIO2{slash}A2-Pad2)*%
X107620000Y-86200000D03*
%TO.P,U1,3,GPIO3/A3_3*%
%TO.N,BUTTON*%
X107620000Y-83660000D03*
%TO.P,U1,3V3,3V3_3V3*%
%TO.N,+3V3*%
X107620000Y-78580000D03*
%TO.P,U1,4,GPIO4/SCK/A4_4*%
%TO.N,RF_SCK*%
X107620000Y-81120000D03*
%TO.P,U1,5,GPIO5/MISO/A5_5*%
%TO.N,RF_MISO*%
X92380000Y-73500000D03*
D26*
%TO.P,U1,5V,5V_5V*%
%TO.N,+5V*%
X107620000Y-73500000D03*
D17*
%TO.P,U1,6,GPIO6/MOSI_6*%
%TO.N,RF_MOSI*%
X92380000Y-76040000D03*
%TO.P,U1,7,GPIO7/SS_7*%
%TO.N,RF_CSN*%
X92380000Y-78580000D03*
%TO.P,U1,8,GPIO8/SDA_8*%
%TO.N,unconnected-(U1-GPIO8{slash}SDA-Pad8)*%
X92380000Y-81120000D03*
%TO.P,U1,9,GPIO9/SCL_9*%
%TO.N,unconnected-(U1-GPIO9{slash}SCL-Pad9)*%
X92380000Y-83660000D03*
%TO.P,U1,10,GPIO10_10*%
%TO.N,RF_GDO0*%
X92380000Y-86200000D03*
%TO.P,U1,20,GPIO20/RX_20*%
%TO.N,RF_GDO2*%
X92380000Y-88740000D03*
%TO.P,U1,21,GPIO21/TX_21*%
%TO.N,unconnected-(U1-GPIO21{slash}TX-Pad21)*%
X92380000Y-91280000D03*
%TO.P,U1,GND,GND_GND*%
%TO.N,GND*%
X107620000Y-76040000D03*
%TD*%
D27*
%TO.N,RF_SCK*%
X104375735Y-88624265D03*
%TO.N,IR_K*%
X94000000Y-135500000D03*
X96000000Y-136500000D03*
%TO.N,GND*%
X101500000Y-90500000D03*
X87050000Y-141400000D03*
X87050000Y-139500000D03*
X114500000Y-97500000D03*
X91500000Y-131500000D03*
X97000000Y-88500000D03*
X101500000Y-83000000D03*
X108500000Y-141000000D03*
X112500000Y-120000000D03*
X95500000Y-74670000D03*
X98000000Y-119000000D03*
X105000000Y-156000000D03*
X94500000Y-150000000D03*
%TO.N,BUTTON*%
X100000000Y-87500000D03*
X106500000Y-85000000D03*
X95340001Y-93000000D03*
X106144265Y-81024265D03*
%TO.N,+3V3*%
X105544265Y-84044265D03*
X87000000Y-97000000D03*
X109000000Y-103000000D03*
%TO.N,RF_CSN*%
X98882843Y-90705686D03*
%TO.N,RF_MOSI*%
X106500000Y-94500000D03*
%TD*%
%TO.N,Net-(D5-A)*%
D28*
X100787500Y-165050000D02*
X100787500Y-155387500D01*
X100787500Y-155387500D02*
X106675000Y-149500000D01*
%TO.N,IR_K*%
D29*
X119000000Y-137775000D02*
X115275000Y-137775000D01*
X115275000Y-137775000D02*
X114200000Y-136700000D01*
X114200000Y-136700000D02*
X114200000Y-126500000D01*
%TO.N,Net-(D5-A)*%
D28*
X106675000Y-149500000D02*
X106675000Y-149976470D01*
%TO.N,IR_K*%
D29*
X114200000Y-126500000D02*
X114200000Y-109575000D01*
X114200000Y-109575000D02*
X119000000Y-104775000D01*
%TO.N,Net-(D1-A)*%
D30*
X116275000Y-102225000D02*
X116285000Y-102235000D01*
X116285000Y-102235000D02*
X119000000Y-102235000D01*
%TO.N,RF_CSN*%
D28*
X98882843Y-85082843D02*
X92380000Y-78580000D01*
%TO.N,RF_SCK*%
X105200000Y-94000000D02*
X105200000Y-89448530D01*
X102500000Y-96700000D02*
X105200000Y-94000000D01*
X98230000Y-97970000D02*
X99500000Y-96700000D01*
X99500000Y-96700000D02*
X102500000Y-96700000D01*
X105200000Y-89448530D02*
X104375735Y-88624265D01*
X98230000Y-98880000D02*
X98230000Y-97970000D01*
%TO.N,Net-(D3-A)*%
D29*
X81000000Y-112000000D02*
X81000000Y-104765000D01*
D30*
X81500000Y-112500000D02*
X81000000Y-112000000D01*
X81500000Y-112880000D02*
X81500000Y-112500000D01*
%TO.N,+5V*%
D29*
X107856346Y-87350000D02*
X111050000Y-90543654D01*
X104700000Y-76420000D02*
X104700000Y-86038478D01*
X111225000Y-94000000D02*
X111225000Y-92175000D01*
X111050000Y-90543654D02*
X111050000Y-92000000D01*
X81500000Y-118880000D02*
X87500000Y-112880000D01*
X110294888Y-99000000D02*
X110294888Y-94930112D01*
X106011522Y-87350000D02*
X107856346Y-87350000D01*
X107620000Y-73500000D02*
X104700000Y-76420000D01*
X106725000Y-148000000D02*
X106725000Y-133895000D01*
X81500000Y-128120000D02*
X81500000Y-118880000D01*
X110294888Y-94930112D02*
X111225000Y-94000000D01*
X111225000Y-92175000D02*
X111050000Y-92000000D01*
X106725000Y-133895000D02*
X112500000Y-128120000D01*
X104700000Y-86038478D02*
X106011522Y-87350000D01*
%TO.N,IR_K*%
X88500000Y-139500000D02*
X92500000Y-135500000D01*
X94000000Y-135500000D02*
X92500000Y-135500000D01*
X92500000Y-135500000D02*
X92500000Y-127998679D01*
X85000000Y-128498679D02*
X85000000Y-127000000D01*
X89200000Y-109975000D02*
X81250000Y-102225000D01*
X106500000Y-126000000D02*
X113500000Y-126000000D01*
X113500000Y-126000000D02*
X114200000Y-126500000D01*
X81000000Y-132498679D02*
X81000000Y-134725000D01*
X89200000Y-109975000D02*
X89200000Y-123000000D01*
X85000000Y-127000000D02*
X89200000Y-123000000D01*
X81000000Y-132498679D02*
X85000000Y-128498679D01*
X89200000Y-123000000D02*
X89200000Y-124498679D01*
X96000000Y-136500000D02*
X106500000Y-126000000D01*
X92500000Y-127998679D02*
X89200000Y-124498679D01*
X81250000Y-102225000D02*
X81000000Y-102225000D01*
X88500000Y-140450000D02*
X88500000Y-139500000D01*
%TO.N,Net-(D2-A)*%
D30*
X119000000Y-135225000D02*
X119000000Y-129120000D01*
X119000000Y-129120000D02*
X118000000Y-128120000D01*
%TO.N,IR_PWM*%
D28*
X84862500Y-136312500D02*
X84862500Y-141340552D01*
X107620000Y-123583052D02*
X107620000Y-91280000D01*
X85521948Y-142000000D02*
X89203052Y-142000000D01*
X86675000Y-134500000D02*
X84862500Y-136312500D01*
X89203052Y-142000000D02*
X107620000Y-123583052D01*
X84862500Y-141340552D02*
X85521948Y-142000000D01*
%TO.N,IR_GATE*%
X85262500Y-139840552D02*
X85262500Y-137412500D01*
X86225000Y-140450000D02*
X85871948Y-140450000D01*
X88325000Y-134500000D02*
X88175000Y-134500000D01*
X85871948Y-140450000D02*
X85262500Y-139840552D01*
X86225000Y-140450000D02*
X87196948Y-140450000D01*
X88146948Y-141400000D02*
X88500000Y-141400000D01*
X87196948Y-140450000D02*
X88146948Y-141400000D01*
X85262500Y-137412500D02*
X86675000Y-136000000D01*
X88175000Y-134500000D02*
X86675000Y-136000000D01*
%TO.N,GND*%
X112794888Y-98705112D02*
X112775000Y-98685224D01*
D29*
X86225000Y-141400000D02*
X87050000Y-141400000D01*
X86225000Y-139500000D02*
X87050000Y-139500000D01*
D28*
X112794888Y-99000000D02*
X112794888Y-98705112D01*
%TO.N,Net-(D4-A)*%
D30*
X87500000Y-132075000D02*
X82300000Y-137275000D01*
X81490000Y-137275000D02*
X81000000Y-137765000D01*
X82300000Y-137275000D02*
X81490000Y-137275000D01*
X87500000Y-128120000D02*
X87500000Y-132075000D01*
%TO.N,BUTTON*%
D28*
X106500000Y-85000000D02*
X106144265Y-84644265D01*
X97500000Y-93000000D02*
X95340001Y-93000000D01*
X106144265Y-84644265D02*
X106144265Y-81024265D01*
X100000000Y-87500000D02*
X100000000Y-90500000D01*
X95340001Y-93000000D02*
X92840001Y-95500000D01*
X100000000Y-90500000D02*
X97500000Y-93000000D01*
X88825000Y-95500000D02*
X88725000Y-95500000D01*
X100250000Y-87750000D02*
X100000000Y-87500000D01*
X92840001Y-95500000D02*
X88825000Y-95500000D01*
X102250000Y-87750000D02*
X100250000Y-87750000D01*
X88725000Y-95500000D02*
X87225000Y-94000000D01*
%TO.N,+3V3*%
X109000000Y-104800000D02*
X110650000Y-104800000D01*
X105544265Y-80655735D02*
X107620000Y-78580000D01*
X109000000Y-104800000D02*
X109000000Y-107000000D01*
X87000000Y-97000000D02*
X87000000Y-95675000D01*
X87000000Y-95675000D02*
X87175000Y-95500000D01*
X109000000Y-103000000D02*
X109000000Y-104800000D01*
X105544265Y-84044265D02*
X105544265Y-80655735D01*
X109000000Y-107000000D02*
X110725000Y-107000000D01*
%TO.N,Net-(D1-A)*%
D30*
X112500000Y-112880000D02*
X112500000Y-109525000D01*
X115000000Y-107025000D02*
X115000000Y-103500000D01*
X115000000Y-103500000D02*
X116275000Y-102225000D01*
X112500000Y-109525000D02*
X115000000Y-107025000D01*
%TO.N,RF_CSN*%
D28*
X98882843Y-90705686D02*
X98882843Y-85082843D01*
%TO.N,RF_MOSI*%
X92640000Y-76040000D02*
X92380000Y-76040000D01*
X106500000Y-89900000D02*
X92640000Y-76040000D01*
X106500000Y-94500000D02*
X106500000Y-89900000D01*
%TO.N,Net-(U1-GPIO1{slash}A1)*%
X108949949Y-100449949D02*
X109500000Y-101000000D01*
X107620000Y-88740000D02*
X108949949Y-90069949D01*
X121125000Y-139500000D02*
X118325000Y-139500000D01*
X121500000Y-101000000D02*
X121800000Y-101300000D01*
X121800000Y-101300000D02*
X121800000Y-138825000D01*
X109500000Y-101000000D02*
X121500000Y-101000000D01*
X121800000Y-138825000D02*
X121125000Y-139500000D01*
X108949949Y-90069949D02*
X108949949Y-100449949D01*
X118325000Y-139500000D02*
X108325000Y-149500000D01*
%TD*%
%TA.AperFunction,Conductor*%
%TO.N,GND*%
G36*
X91505703Y-79170325D02*
G01*
X91527603Y-79195148D01*
X91564024Y-79249657D01*
X91710342Y-79395975D01*
X91710345Y-79395977D01*
X91882402Y-79510941D01*
X92073580Y-79590130D01*
X92276530Y-79630499D01*
X92276534Y-79630500D01*
X92276535Y-79630500D01*
X92483466Y-79630500D01*
X92483467Y-79630499D01*
X92686420Y-79590130D01*
X92756972Y-79560905D01*
X92826438Y-79553437D01*
X92888918Y-79584711D01*
X92892104Y-79587786D01*
X98496024Y-85191706D01*
X98529509Y-85253029D01*
X98532343Y-85279387D01*
X98532343Y-86487249D01*
X98512658Y-86554288D01*
X98459854Y-86600043D01*
X98390696Y-86609987D01*
X98352049Y-86597734D01*
X98249034Y-86545245D01*
X98054417Y-86482009D01*
X97852317Y-86450000D01*
X97647683Y-86450000D01*
X97445582Y-86482009D01*
X97250968Y-86545244D01*
X97068644Y-86638143D01*
X97024077Y-86670523D01*
X97024077Y-86670524D01*
X97620591Y-87267038D01*
X97557008Y-87284076D01*
X97442994Y-87349902D01*
X97349902Y-87442994D01*
X97284076Y-87557008D01*
X97267038Y-87620591D01*
X96670524Y-87024077D01*
X96670523Y-87024077D01*
X96638143Y-87068644D01*
X96545244Y-87250968D01*
X96482009Y-87445582D01*
X96450000Y-87647682D01*
X96450000Y-87852317D01*
X96482009Y-88054417D01*
X96545244Y-88249031D01*
X96638141Y-88431350D01*
X96638147Y-88431359D01*
X96670523Y-88475921D01*
X96670524Y-88475922D01*
X97267038Y-87879408D01*
X97284076Y-87942992D01*
X97349902Y-88057006D01*
X97442994Y-88150098D01*
X97557008Y-88215924D01*
X97620590Y-88232961D01*
X97024076Y-88829474D01*
X97027558Y-88873712D01*
X97013193Y-88942089D01*
X96964142Y-88991845D01*
X96895977Y-89007184D01*
X96865622Y-89001371D01*
X96804536Y-88981523D01*
X96635530Y-88954755D01*
X96602352Y-88949500D01*
X96397648Y-88949500D01*
X96373329Y-88953351D01*
X96195465Y-88981522D01*
X96000776Y-89044781D01*
X95818386Y-89137715D01*
X95652786Y-89258028D01*
X95508028Y-89402786D01*
X95387715Y-89568386D01*
X95294781Y-89750776D01*
X95231522Y-89945465D01*
X95209530Y-90084322D01*
X95199500Y-90147648D01*
X95199500Y-90352352D01*
X95202769Y-90372989D01*
X95231522Y-90554534D01*
X95294781Y-90749223D01*
X95350545Y-90858664D01*
X95380865Y-90918171D01*
X95387715Y-90931613D01*
X95508028Y-91097213D01*
X95652786Y-91241971D01*
X95807749Y-91354556D01*
X95818390Y-91362287D01*
X95926392Y-91417317D01*
X96000776Y-91455218D01*
X96000778Y-91455218D01*
X96000781Y-91455220D01*
X96082223Y-91481682D01*
X96195465Y-91518477D01*
X96226011Y-91523315D01*
X96397648Y-91550500D01*
X96397649Y-91550500D01*
X96602351Y-91550500D01*
X96602352Y-91550500D01*
X96804534Y-91518477D01*
X96999219Y-91455220D01*
X97181610Y-91362287D01*
X97291203Y-91282664D01*
X97347213Y-91241971D01*
X97347215Y-91241968D01*
X97347219Y-91241966D01*
X97491966Y-91097219D01*
X97491968Y-91097215D01*
X97491971Y-91097213D01*
X97581795Y-90973579D01*
X97612287Y-90931610D01*
X97705220Y-90749219D01*
X97768477Y-90554534D01*
X97800500Y-90352352D01*
X97800500Y-90147648D01*
X97788231Y-90070186D01*
X97768477Y-89945465D01*
X97720671Y-89798334D01*
X97705220Y-89750781D01*
X97705218Y-89750778D01*
X97705218Y-89750776D01*
X97637014Y-89616920D01*
X97612287Y-89568390D01*
X97579099Y-89522710D01*
X97491971Y-89402786D01*
X97347217Y-89258032D01*
X97347212Y-89258028D01*
X97303341Y-89226154D01*
X97260675Y-89170825D01*
X97254696Y-89101211D01*
X97287301Y-89039416D01*
X97348140Y-89005059D01*
X97414545Y-89007905D01*
X97445582Y-89017990D01*
X97647683Y-89050000D01*
X97852317Y-89050000D01*
X98054417Y-89017990D01*
X98249031Y-88954755D01*
X98352048Y-88902265D01*
X98420717Y-88889369D01*
X98485458Y-88915645D01*
X98525715Y-88972752D01*
X98532343Y-89012750D01*
X98532343Y-90226300D01*
X98512658Y-90293339D01*
X98496024Y-90313981D01*
X98442336Y-90367668D01*
X98442331Y-90367674D01*
X98369860Y-90493197D01*
X98369859Y-90493201D01*
X98332343Y-90633211D01*
X98332343Y-90778161D01*
X98369859Y-90918171D01*
X98369860Y-90918174D01*
X98442331Y-91043697D01*
X98442333Y-91043699D01*
X98442334Y-91043701D01*
X98544828Y-91146195D01*
X98603500Y-91180069D01*
X98651714Y-91230634D01*
X98664938Y-91299241D01*
X98638970Y-91364106D01*
X98629180Y-91375136D01*
X97391137Y-92613181D01*
X97329814Y-92646666D01*
X97303456Y-92649500D01*
X95819387Y-92649500D01*
X95752348Y-92629815D01*
X95731706Y-92613181D01*
X95678018Y-92559493D01*
X95678012Y-92559488D01*
X95552489Y-92487017D01*
X95552490Y-92487017D01*
X95541007Y-92483940D01*
X95412476Y-92449500D01*
X95267526Y-92449500D01*
X95138994Y-92483940D01*
X95127512Y-92487017D01*
X95001989Y-92559488D01*
X95001983Y-92559493D01*
X94899494Y-92661982D01*
X94899489Y-92661988D01*
X94827018Y-92787511D01*
X94827017Y-92787515D01*
X94789501Y-92927525D01*
X94789501Y-92927527D01*
X94789501Y-93003456D01*
X94769816Y-93070495D01*
X94753182Y-93091137D01*
X92731138Y-95113181D01*
X92669815Y-95146666D01*
X92643457Y-95149500D01*
X89563847Y-95149500D01*
X89546600Y-95144435D01*
X89528623Y-95144392D01*
X89513770Y-95134795D01*
X89496808Y-95129815D01*
X89485038Y-95116231D01*
X89469937Y-95106475D01*
X89456621Y-95083436D01*
X89451053Y-95077011D01*
X89450928Y-95076737D01*
X89448638Y-95071691D01*
X89427793Y-95012118D01*
X89411733Y-94990358D01*
X89406338Y-94978467D01*
X89403202Y-94956278D01*
X89395516Y-94935234D01*
X89398409Y-94922356D01*
X89396562Y-94909285D01*
X89405920Y-94888924D01*
X89410832Y-94867064D01*
X89420733Y-94856696D01*
X89425742Y-94845800D01*
X89439601Y-94836940D01*
X89447961Y-94828187D01*
X89447065Y-94827054D01*
X89452732Y-94822572D01*
X89572572Y-94702732D01*
X89572575Y-94702728D01*
X89661542Y-94558492D01*
X89661547Y-94558481D01*
X89714855Y-94397606D01*
X89724999Y-94298322D01*
X89725000Y-94298309D01*
X89725000Y-94250000D01*
X88899000Y-94250000D01*
X88831961Y-94230315D01*
X88786206Y-94177511D01*
X88775000Y-94126000D01*
X88775000Y-94000000D01*
X88649000Y-94000000D01*
X88581961Y-93980315D01*
X88536206Y-93927511D01*
X88525000Y-93876000D01*
X88525000Y-93750000D01*
X89025000Y-93750000D01*
X89724999Y-93750000D01*
X89724999Y-93701692D01*
X89724998Y-93701677D01*
X89714855Y-93602392D01*
X89661547Y-93441518D01*
X89661542Y-93441507D01*
X89572575Y-93297271D01*
X89572572Y-93297267D01*
X89452732Y-93177427D01*
X89452728Y-93177424D01*
X89308492Y-93088457D01*
X89308481Y-93088452D01*
X89147606Y-93035144D01*
X89048322Y-93025000D01*
X89025000Y-93025000D01*
X89025000Y-93750000D01*
X88525000Y-93750000D01*
X88525000Y-93024999D01*
X88501693Y-93025000D01*
X88501674Y-93025001D01*
X88402392Y-93035144D01*
X88241518Y-93088452D01*
X88241507Y-93088457D01*
X88097271Y-93177424D01*
X88097267Y-93177427D01*
X87977424Y-93297270D01*
X87941649Y-93355270D01*
X87889701Y-93401993D01*
X87820738Y-93413214D01*
X87761802Y-93389438D01*
X87680230Y-93328374D01*
X87680227Y-93328373D01*
X87680226Y-93328372D01*
X87552114Y-93280588D01*
X87552112Y-93280587D01*
X87552110Y-93280587D01*
X87495493Y-93274500D01*
X86954518Y-93274500D01*
X86954509Y-93274501D01*
X86897885Y-93280587D01*
X86769773Y-93328372D01*
X86660313Y-93410313D01*
X86578373Y-93519771D01*
X86530587Y-93647889D01*
X86524500Y-93704498D01*
X86524500Y-94295481D01*
X86524501Y-94295490D01*
X86530587Y-94352114D01*
X86554329Y-94415766D01*
X86578372Y-94480226D01*
X86660313Y-94589687D01*
X86710858Y-94627524D01*
X86733713Y-94644633D01*
X86775584Y-94700567D01*
X86780568Y-94770258D01*
X86747083Y-94831581D01*
X86733036Y-94843670D01*
X86652850Y-94902850D01*
X86572207Y-95012117D01*
X86572206Y-95012119D01*
X86527353Y-95140298D01*
X86527353Y-95140300D01*
X86524500Y-95170730D01*
X86524500Y-95829269D01*
X86527353Y-95859699D01*
X86527353Y-95859701D01*
X86572206Y-95987880D01*
X86572207Y-95987882D01*
X86625270Y-96059779D01*
X86649241Y-96125408D01*
X86649500Y-96133413D01*
X86649500Y-96520614D01*
X86629815Y-96587653D01*
X86613181Y-96608295D01*
X86559493Y-96661982D01*
X86559488Y-96661988D01*
X86487017Y-96787511D01*
X86487016Y-96787515D01*
X86449500Y-96927525D01*
X86449500Y-97072475D01*
X86453344Y-97086819D01*
X86487017Y-97212488D01*
X86559488Y-97338011D01*
X86559490Y-97338013D01*
X86559491Y-97338015D01*
X86661985Y-97440509D01*
X86661986Y-97440510D01*
X86661988Y-97440511D01*
X86787511Y-97512982D01*
X86787512Y-97512982D01*
X86787515Y-97512984D01*
X86927525Y-97550500D01*
X86927528Y-97550500D01*
X87072472Y-97550500D01*
X87072475Y-97550500D01*
X87212485Y-97512984D01*
X87338015Y-97440509D01*
X87440509Y-97338015D01*
X87512984Y-97212485D01*
X87550500Y-97072475D01*
X87550500Y-96927525D01*
X87512984Y-96787515D01*
X87440509Y-96661985D01*
X87386819Y-96608295D01*
X87372115Y-96581367D01*
X87355523Y-96555549D01*
X87354631Y-96549348D01*
X87353334Y-96546972D01*
X87350500Y-96520614D01*
X87350500Y-96345802D01*
X87370185Y-96278763D01*
X87422989Y-96233008D01*
X87452519Y-96225122D01*
X87452330Y-96224256D01*
X87459701Y-96222646D01*
X87523790Y-96200219D01*
X87587882Y-96177793D01*
X87697150Y-96097150D01*
X87777793Y-95987882D01*
X87816673Y-95876769D01*
X87822646Y-95859701D01*
X87822646Y-95859699D01*
X87825500Y-95829269D01*
X87825500Y-95395543D01*
X87831738Y-95374297D01*
X87833318Y-95352209D01*
X87841390Y-95341425D01*
X87845185Y-95328504D01*
X87861918Y-95314004D01*
X87875190Y-95296276D01*
X87887810Y-95291568D01*
X87897989Y-95282749D01*
X87919906Y-95279597D01*
X87940654Y-95271859D01*
X87953814Y-95274721D01*
X87967147Y-95272805D01*
X87987290Y-95282004D01*
X88008927Y-95286711D01*
X88026652Y-95299979D01*
X88030703Y-95301830D01*
X88037181Y-95307862D01*
X88138181Y-95408862D01*
X88171666Y-95470185D01*
X88174500Y-95496543D01*
X88174500Y-95829269D01*
X88177353Y-95859699D01*
X88177353Y-95859701D01*
X88222206Y-95987880D01*
X88222207Y-95987882D01*
X88302850Y-96097150D01*
X88412118Y-96177793D01*
X88454845Y-96192744D01*
X88540299Y-96222646D01*
X88570730Y-96225500D01*
X88570734Y-96225500D01*
X89079270Y-96225500D01*
X89109699Y-96222646D01*
X89109701Y-96222646D01*
X89173790Y-96200219D01*
X89237882Y-96177793D01*
X89347150Y-96097150D01*
X89427793Y-95987882D01*
X89446806Y-95933543D01*
X89487527Y-95876769D01*
X89552480Y-95851022D01*
X89563847Y-95850500D01*
X92886143Y-95850500D01*
X92886145Y-95850500D01*
X92975289Y-95826614D01*
X93055213Y-95780470D01*
X95248864Y-93586819D01*
X95310187Y-93553334D01*
X95336545Y-93550500D01*
X95412473Y-93550500D01*
X95412476Y-93550500D01*
X95552486Y-93512984D01*
X95678016Y-93440509D01*
X95731706Y-93386819D01*
X95793029Y-93353334D01*
X95819387Y-93350500D01*
X97546142Y-93350500D01*
X97546144Y-93350500D01*
X97635288Y-93326614D01*
X97645912Y-93320480D01*
X97715212Y-93280470D01*
X100280470Y-90715212D01*
X100326614Y-90635288D01*
X100326615Y-90635286D01*
X100327176Y-90633196D01*
X100346215Y-90562135D01*
X100350500Y-90546144D01*
X100350500Y-88224500D01*
X100370185Y-88157461D01*
X100422989Y-88111706D01*
X100474500Y-88100500D01*
X101175275Y-88100500D01*
X101242314Y-88120185D01*
X101288069Y-88172989D01*
X101289836Y-88177048D01*
X101319056Y-88247594D01*
X101434024Y-88419657D01*
X101580342Y-88565975D01*
X101580345Y-88565977D01*
X101752402Y-88680941D01*
X101943580Y-88760130D01*
X102146530Y-88800499D01*
X102146534Y-88800500D01*
X102146535Y-88800500D01*
X102353466Y-88800500D01*
X102353467Y-88800499D01*
X102556420Y-88760130D01*
X102747598Y-88680941D01*
X102919655Y-88565977D01*
X103065977Y-88419655D01*
X103180941Y-88247598D01*
X103260130Y-88056420D01*
X103300500Y-87853465D01*
X103300500Y-87646535D01*
X103268424Y-87485276D01*
X103274651Y-87415685D01*
X103317514Y-87360507D01*
X103383404Y-87337263D01*
X103451401Y-87353331D01*
X103477722Y-87373404D01*
X104082169Y-87977851D01*
X104115654Y-88039174D01*
X104110670Y-88108866D01*
X104068798Y-88164799D01*
X104056492Y-88172917D01*
X104037723Y-88183753D01*
X104037717Y-88183758D01*
X103935228Y-88286247D01*
X103935223Y-88286253D01*
X103862752Y-88411776D01*
X103862751Y-88411780D01*
X103825235Y-88551790D01*
X103825235Y-88551792D01*
X103825235Y-88696739D01*
X103856422Y-88813132D01*
X103854759Y-88882982D01*
X103815596Y-88940844D01*
X103751368Y-88968348D01*
X103717249Y-88967698D01*
X103635530Y-88954755D01*
X103602352Y-88949500D01*
X103397648Y-88949500D01*
X103373329Y-88953351D01*
X103195465Y-88981522D01*
X103000776Y-89044781D01*
X102818386Y-89137715D01*
X102652786Y-89258028D01*
X102508028Y-89402786D01*
X102387715Y-89568386D01*
X102294781Y-89750776D01*
X102231522Y-89945465D01*
X102209530Y-90084322D01*
X102199500Y-90147648D01*
X102199500Y-90352352D01*
X102202769Y-90372989D01*
X102231522Y-90554534D01*
X102294781Y-90749223D01*
X102350545Y-90858664D01*
X102380865Y-90918171D01*
X102387715Y-90931613D01*
X102508028Y-91097213D01*
X102652786Y-91241971D01*
X102807749Y-91354556D01*
X102818390Y-91362287D01*
X102926392Y-91417317D01*
X103000776Y-91455218D01*
X103000778Y-91455218D01*
X103000781Y-91455220D01*
X103082223Y-91481682D01*
X103195465Y-91518477D01*
X103226011Y-91523315D01*
X103397648Y-91550500D01*
X103397649Y-91550500D01*
X103602351Y-91550500D01*
X103602352Y-91550500D01*
X103804534Y-91518477D01*
X103999219Y-91455220D01*
X104181610Y-91362287D01*
X104291203Y-91282664D01*
X104347213Y-91241971D01*
X104347215Y-91241968D01*
X104347219Y-91241966D01*
X104491966Y-91097219D01*
X104491968Y-91097215D01*
X104491971Y-91097213D01*
X104612286Y-90931612D01*
X104615014Y-90926258D01*
X104662986Y-90875461D01*
X104730807Y-90858664D01*
X104796942Y-90881199D01*
X104840396Y-90935913D01*
X104849500Y-90982550D01*
X104849500Y-93803456D01*
X104829815Y-93870495D01*
X104813181Y-93891137D01*
X102391137Y-96313181D01*
X102329814Y-96346666D01*
X102303456Y-96349500D01*
X99453856Y-96349500D01*
X99364712Y-96373386D01*
X99364709Y-96373387D01*
X99284791Y-96419527D01*
X99284786Y-96419531D01*
X98032474Y-97671842D01*
X97971151Y-97705327D01*
X97964197Y-97706633D01*
X97948887Y-97709058D01*
X97769165Y-97767454D01*
X97600800Y-97853240D01*
X97522982Y-97909779D01*
X97447927Y-97964310D01*
X97447925Y-97964312D01*
X97447924Y-97964312D01*
X97314312Y-98097924D01*
X97314312Y-98097925D01*
X97314310Y-98097927D01*
X97266610Y-98163579D01*
X97203240Y-98250800D01*
X97117454Y-98419163D01*
X97077931Y-98540803D01*
X97038493Y-98598478D01*
X96974134Y-98625676D01*
X96905288Y-98613761D01*
X96853812Y-98566516D01*
X96842069Y-98540803D01*
X96802545Y-98419163D01*
X96751328Y-98318644D01*
X96716760Y-98250801D01*
X96605690Y-98097927D01*
X96472073Y-97964310D01*
X96319199Y-97853240D01*
X96150836Y-97767454D01*
X95971118Y-97709059D01*
X95784486Y-97679500D01*
X95784481Y-97679500D01*
X95595519Y-97679500D01*
X95595514Y-97679500D01*
X95408881Y-97709059D01*
X95229163Y-97767454D01*
X95060800Y-97853240D01*
X94982982Y-97909779D01*
X94907927Y-97964310D01*
X94907925Y-97964312D01*
X94907924Y-97964312D01*
X94774312Y-98097924D01*
X94774312Y-98097925D01*
X94774310Y-98097927D01*
X94726610Y-98163579D01*
X94663240Y-98250800D01*
X94577454Y-98419163D01*
X94519059Y-98598881D01*
X94489500Y-98785513D01*
X94489500Y-98974486D01*
X94519059Y-99161118D01*
X94577454Y-99340836D01*
X94615699Y-99415895D01*
X94663240Y-99509199D01*
X94774310Y-99662073D01*
X94907927Y-99795690D01*
X95060801Y-99906760D01*
X95140347Y-99947290D01*
X95229163Y-99992545D01*
X95229165Y-99992545D01*
X95229168Y-99992547D01*
X95295292Y-100014032D01*
X95350803Y-100032069D01*
X95408478Y-100071507D01*
X95435676Y-100135866D01*
X95423761Y-100204712D01*
X95376516Y-100256188D01*
X95350803Y-100267931D01*
X95229163Y-100307454D01*
X95060800Y-100393240D01*
X95036816Y-100410666D01*
X94907927Y-100504310D01*
X94907925Y-100504312D01*
X94907924Y-100504312D01*
X94774312Y-100637924D01*
X94774312Y-100637925D01*
X94774310Y-100637927D01*
X94748547Y-100673387D01*
X94663240Y-100790800D01*
X94577454Y-100959163D01*
X94519059Y-101138881D01*
X94489500Y-101325513D01*
X94489500Y-101514486D01*
X94519059Y-101701118D01*
X94577454Y-101880836D01*
X94663240Y-102049199D01*
X94774310Y-102202073D01*
X94907927Y-102335690D01*
X95060801Y-102446760D01*
X95066179Y-102449500D01*
X95229163Y-102532545D01*
X95229165Y-102532545D01*
X95229168Y-102532547D01*
X95312083Y-102559488D01*
X95408881Y-102590940D01*
X95595514Y-102620500D01*
X95595519Y-102620500D01*
X95784486Y-102620500D01*
X95971118Y-102590940D01*
X96004686Y-102580033D01*
X96150832Y-102532547D01*
X96319199Y-102446760D01*
X96472073Y-102335690D01*
X96605690Y-102202073D01*
X96716760Y-102049199D01*
X96802547Y-101880832D01*
X96842069Y-101759195D01*
X96881507Y-101701521D01*
X96945866Y-101674323D01*
X97014712Y-101686238D01*
X97066188Y-101733482D01*
X97077931Y-101759196D01*
X97117454Y-101880836D01*
X97203240Y-102049199D01*
X97314310Y-102202073D01*
X97447927Y-102335690D01*
X97600801Y-102446760D01*
X97606179Y-102449500D01*
X97769163Y-102532545D01*
X97769165Y-102532545D01*
X97769168Y-102532547D01*
X97852083Y-102559488D01*
X97948881Y-102590940D01*
X98135514Y-102620500D01*
X98135519Y-102620500D01*
X98324486Y-102620500D01*
X98511118Y-102590940D01*
X98544686Y-102580033D01*
X98690832Y-102532547D01*
X98859199Y-102446760D01*
X99012073Y-102335690D01*
X99145690Y-102202073D01*
X99256760Y-102049199D01*
X99342547Y-101880832D01*
X99382069Y-101759195D01*
X99421507Y-101701521D01*
X99485866Y-101674323D01*
X99554712Y-101686238D01*
X99606188Y-101733482D01*
X99617931Y-101759196D01*
X99657454Y-101880836D01*
X99743240Y-102049199D01*
X99854310Y-102202073D01*
X99987927Y-102335690D01*
X100140801Y-102446760D01*
X100146179Y-102449500D01*
X100309163Y-102532545D01*
X100309165Y-102532545D01*
X100309168Y-102532547D01*
X100392083Y-102559488D01*
X100488881Y-102590940D01*
X100675514Y-102620500D01*
X100675519Y-102620500D01*
X100864486Y-102620500D01*
X101051118Y-102590940D01*
X101084686Y-102580033D01*
X101230832Y-102532547D01*
X101399199Y-102446760D01*
X101552073Y-102335690D01*
X101685690Y-102202073D01*
X101796760Y-102049199D01*
X101882547Y-101880832D01*
X101922069Y-101759195D01*
X101961507Y-101701521D01*
X102025866Y-101674323D01*
X102094712Y-101686238D01*
X102146188Y-101733482D01*
X102157931Y-101759196D01*
X102197454Y-101880836D01*
X102283240Y-102049199D01*
X102394310Y-102202073D01*
X102527927Y-102335690D01*
X102680801Y-102446760D01*
X102686179Y-102449500D01*
X102849163Y-102532545D01*
X102849165Y-102532545D01*
X102849168Y-102532547D01*
X102932083Y-102559488D01*
X103028881Y-102590940D01*
X103215514Y-102620500D01*
X103215519Y-102620500D01*
X103404486Y-102620500D01*
X103591118Y-102590940D01*
X103624686Y-102580033D01*
X103770832Y-102532547D01*
X103939199Y-102446760D01*
X104092073Y-102335690D01*
X104225690Y-102202073D01*
X104336760Y-102049199D01*
X104422547Y-101880832D01*
X104480940Y-101701118D01*
X104505289Y-101547385D01*
X104510500Y-101514486D01*
X104510500Y-101325513D01*
X104480940Y-101138881D01*
X104422545Y-100959163D01*
X104336759Y-100790800D01*
X104225690Y-100637927D01*
X104129444Y-100541681D01*
X104095959Y-100480358D01*
X104100943Y-100410666D01*
X104142815Y-100354733D01*
X104208279Y-100330316D01*
X104217125Y-100330000D01*
X104307828Y-100330000D01*
X104307844Y-100329999D01*
X104367372Y-100323598D01*
X104367379Y-100323596D01*
X104502086Y-100273354D01*
X104502093Y-100273350D01*
X104617187Y-100187190D01*
X104617190Y-100187187D01*
X104703350Y-100072093D01*
X104703354Y-100072086D01*
X104753596Y-99937379D01*
X104753598Y-99937372D01*
X104759999Y-99877844D01*
X104760000Y-99877827D01*
X104760000Y-99130000D01*
X103743012Y-99130000D01*
X103775925Y-99072993D01*
X103810000Y-98945826D01*
X103810000Y-98814174D01*
X103775925Y-98687007D01*
X103743012Y-98630000D01*
X104760000Y-98630000D01*
X104760000Y-97882172D01*
X104759999Y-97882155D01*
X104753598Y-97822627D01*
X104753596Y-97822620D01*
X104703354Y-97687913D01*
X104703350Y-97687906D01*
X104617190Y-97572812D01*
X104617187Y-97572809D01*
X104502093Y-97486649D01*
X104502086Y-97486645D01*
X104367379Y-97436403D01*
X104367372Y-97436401D01*
X104307844Y-97430000D01*
X103560000Y-97430000D01*
X103560000Y-98446988D01*
X103502993Y-98414075D01*
X103375826Y-98380000D01*
X103244174Y-98380000D01*
X103117007Y-98414075D01*
X103060000Y-98446988D01*
X103060000Y-97430000D01*
X102312155Y-97430000D01*
X102252627Y-97436401D01*
X102252620Y-97436403D01*
X102117913Y-97486645D01*
X102117906Y-97486649D01*
X102002812Y-97572809D01*
X102002809Y-97572812D01*
X101916649Y-97687906D01*
X101916645Y-97687913D01*
X101866403Y-97822620D01*
X101866401Y-97822627D01*
X101860000Y-97882155D01*
X101860000Y-97972875D01*
X101840315Y-98039914D01*
X101787511Y-98085669D01*
X101718353Y-98095613D01*
X101654797Y-98066588D01*
X101648319Y-98060556D01*
X101552075Y-97964312D01*
X101552073Y-97964310D01*
X101399199Y-97853240D01*
X101230836Y-97767454D01*
X101051118Y-97709059D01*
X100864486Y-97679500D01*
X100864481Y-97679500D01*
X100675519Y-97679500D01*
X100675514Y-97679500D01*
X100488881Y-97709059D01*
X100309163Y-97767454D01*
X100140800Y-97853240D01*
X100062982Y-97909779D01*
X99987927Y-97964310D01*
X99987925Y-97964312D01*
X99987924Y-97964312D01*
X99854312Y-98097924D01*
X99854312Y-98097925D01*
X99854310Y-98097927D01*
X99806610Y-98163579D01*
X99743240Y-98250800D01*
X99657454Y-98419163D01*
X99617931Y-98540803D01*
X99578493Y-98598478D01*
X99514134Y-98625676D01*
X99445288Y-98613761D01*
X99393812Y-98566516D01*
X99382069Y-98540803D01*
X99342545Y-98419163D01*
X99291328Y-98318644D01*
X99256760Y-98250801D01*
X99145690Y-98097927D01*
X99012073Y-97964310D01*
X98966947Y-97931524D01*
X98924284Y-97876196D01*
X98918305Y-97806582D01*
X98950911Y-97744788D01*
X98952154Y-97743527D01*
X99255171Y-97440511D01*
X99608863Y-97086819D01*
X99670186Y-97053334D01*
X99696544Y-97050500D01*
X102546142Y-97050500D01*
X102546144Y-97050500D01*
X102635288Y-97026614D01*
X102715212Y-96980470D01*
X105480470Y-94215212D01*
X105526614Y-94135288D01*
X105536203Y-94099500D01*
X105550500Y-94046144D01*
X105550500Y-89745544D01*
X105570185Y-89678505D01*
X105622989Y-89632750D01*
X105692147Y-89622806D01*
X105755703Y-89651831D01*
X105762181Y-89657863D01*
X106113181Y-90008863D01*
X106146666Y-90070186D01*
X106149500Y-90096544D01*
X106149500Y-94020614D01*
X106129815Y-94087653D01*
X106113181Y-94108295D01*
X106059493Y-94161982D01*
X106059488Y-94161988D01*
X105987017Y-94287511D01*
X105987016Y-94287515D01*
X105949500Y-94427525D01*
X105949500Y-94572475D01*
X105982874Y-94697027D01*
X105987017Y-94712488D01*
X106059488Y-94838011D01*
X106059490Y-94838013D01*
X106059491Y-94838015D01*
X106161985Y-94940509D01*
X106161986Y-94940510D01*
X106161988Y-94940511D01*
X106287511Y-95012982D01*
X106287512Y-95012982D01*
X106287515Y-95012984D01*
X106427525Y-95050500D01*
X106427528Y-95050500D01*
X106572472Y-95050500D01*
X106572475Y-95050500D01*
X106712485Y-95012984D01*
X106838015Y-94940509D01*
X106940509Y-94838015D01*
X107012984Y-94712485D01*
X107025726Y-94664931D01*
X107062090Y-94605273D01*
X107124937Y-94574744D01*
X107194313Y-94583039D01*
X107248191Y-94627524D01*
X107269465Y-94694076D01*
X107269500Y-94697027D01*
X107269500Y-123386507D01*
X107249815Y-123453546D01*
X107233181Y-123474188D01*
X89581113Y-141126255D01*
X89519790Y-141159740D01*
X89450098Y-141154756D01*
X89394165Y-141112884D01*
X89382951Y-141094875D01*
X89340550Y-141011658D01*
X89340547Y-141011655D01*
X89334811Y-141003759D01*
X89336165Y-141002774D01*
X89308090Y-140951368D01*
X89313069Y-140881676D01*
X89335513Y-140846751D01*
X89334811Y-140846241D01*
X89340542Y-140838349D01*
X89340550Y-140838342D01*
X89398146Y-140725304D01*
X89398146Y-140725302D01*
X89398147Y-140725301D01*
X89412999Y-140631524D01*
X89413000Y-140631519D01*
X89412999Y-140268482D01*
X89398146Y-140174696D01*
X89340550Y-140061658D01*
X89340545Y-140061653D01*
X89334811Y-140053759D01*
X89336165Y-140052774D01*
X89308090Y-140001368D01*
X89313069Y-139931676D01*
X89335513Y-139896751D01*
X89334811Y-139896241D01*
X89340542Y-139888349D01*
X89340550Y-139888342D01*
X89398146Y-139775304D01*
X89398146Y-139775302D01*
X89398147Y-139775301D01*
X89412999Y-139681524D01*
X89413000Y-139681519D01*
X89412999Y-139318482D01*
X89412999Y-139318481D01*
X89412999Y-139318476D01*
X89400311Y-139238366D01*
X89409266Y-139169073D01*
X89435100Y-139131291D01*
X92629574Y-135936819D01*
X92690897Y-135903334D01*
X92717255Y-135900500D01*
X93570614Y-135900500D01*
X93637653Y-135920185D01*
X93658295Y-135936819D01*
X93661985Y-135940509D01*
X93661986Y-135940510D01*
X93661988Y-135940511D01*
X93787511Y-136012982D01*
X93787512Y-136012982D01*
X93787515Y-136012984D01*
X93927525Y-136050500D01*
X93927528Y-136050500D01*
X94072472Y-136050500D01*
X94072475Y-136050500D01*
X94212485Y-136012984D01*
X94338015Y-135940509D01*
X94440509Y-135838015D01*
X94512984Y-135712485D01*
X94550500Y-135572475D01*
X94550500Y-135427525D01*
X94512984Y-135287515D01*
X94510229Y-135282744D01*
X94440511Y-135161988D01*
X94440506Y-135161982D01*
X94338017Y-135059493D01*
X94338011Y-135059488D01*
X94212488Y-134987017D01*
X94212489Y-134987017D01*
X94201006Y-134983940D01*
X94072475Y-134949500D01*
X93927525Y-134949500D01*
X93798993Y-134983940D01*
X93787511Y-134987017D01*
X93661988Y-135059488D01*
X93661982Y-135059493D01*
X93658295Y-135063181D01*
X93596972Y-135096666D01*
X93570614Y-135099500D01*
X93024500Y-135099500D01*
X92957461Y-135079815D01*
X92911706Y-135027011D01*
X92900500Y-134975500D01*
X92900500Y-128004570D01*
X92901877Y-127957749D01*
X92900500Y-127951930D01*
X92900500Y-127945952D01*
X92888832Y-127902410D01*
X92887957Y-127898938D01*
X92877591Y-127855135D01*
X92877590Y-127855130D01*
X92877586Y-127855124D01*
X92875491Y-127849612D01*
X92873210Y-127844103D01*
X92873207Y-127844092D01*
X92849787Y-127803528D01*
X92827571Y-127762294D01*
X92823469Y-127757943D01*
X92820480Y-127752766D01*
X92788662Y-127720948D01*
X92786122Y-127718333D01*
X89634279Y-124375469D01*
X89602611Y-124313188D01*
X89600500Y-124290403D01*
X89600500Y-123004906D01*
X89601667Y-122957054D01*
X89600500Y-122952231D01*
X89600500Y-122947273D01*
X89600500Y-110035337D01*
X89601158Y-110024195D01*
X89601138Y-110022624D01*
X89601139Y-110022621D01*
X89600500Y-109972450D01*
X89600500Y-109922273D01*
X89599829Y-109919768D01*
X89599796Y-109917176D01*
X89586196Y-109868892D01*
X89573207Y-109820413D01*
X89571912Y-109818172D01*
X89571210Y-109815677D01*
X89571207Y-109815672D01*
X89571207Y-109815671D01*
X89545929Y-109773149D01*
X89545170Y-109771851D01*
X89520483Y-109729092D01*
X89520482Y-109729091D01*
X89520480Y-109729087D01*
X89520476Y-109729083D01*
X89518444Y-109726434D01*
X89518443Y-109726433D01*
X89517488Y-109725188D01*
X89496342Y-109704574D01*
X89481909Y-109690504D01*
X89480858Y-109689465D01*
X89444810Y-109653417D01*
X89436357Y-109646098D01*
X89434428Y-109644218D01*
X87657038Y-107911542D01*
X84244866Y-104585210D01*
X83116819Y-103485542D01*
X83030728Y-103401617D01*
X87250000Y-103401617D01*
X87250000Y-103598382D01*
X87280778Y-103792705D01*
X87341581Y-103979835D01*
X87430905Y-104155145D01*
X87456319Y-104190125D01*
X87456320Y-104190125D01*
X88017038Y-103629407D01*
X88034076Y-103692992D01*
X88099902Y-103807006D01*
X88192994Y-103900098D01*
X88307008Y-103965924D01*
X88370590Y-103982961D01*
X87809873Y-104543677D01*
X87809873Y-104543678D01*
X87844858Y-104569096D01*
X88020164Y-104658418D01*
X88207294Y-104719221D01*
X88401618Y-104750000D01*
X88598382Y-104750000D01*
X88792705Y-104719221D01*
X88979835Y-104658418D01*
X89155143Y-104569095D01*
X89190125Y-104543678D01*
X89190126Y-104543678D01*
X88629409Y-103982961D01*
X88692992Y-103965924D01*
X88807006Y-103900098D01*
X88900098Y-103807006D01*
X88965924Y-103692992D01*
X88982961Y-103629409D01*
X89543678Y-104190126D01*
X89543678Y-104190125D01*
X89569095Y-104155143D01*
X89658418Y-103979835D01*
X89719221Y-103792705D01*
X89750000Y-103598382D01*
X89750000Y-103401617D01*
X89719221Y-103207294D01*
X89658418Y-103020164D01*
X89569096Y-102844858D01*
X89543678Y-102809873D01*
X89543677Y-102809873D01*
X88982961Y-103370590D01*
X88965924Y-103307008D01*
X88900098Y-103192994D01*
X88807006Y-103099902D01*
X88692992Y-103034076D01*
X88629408Y-103017038D01*
X89190125Y-102456320D01*
X89190125Y-102456319D01*
X89155145Y-102430905D01*
X88979835Y-102341581D01*
X88792705Y-102280778D01*
X88598382Y-102250000D01*
X88401618Y-102250000D01*
X88207294Y-102280778D01*
X88020161Y-102341582D01*
X87844863Y-102430899D01*
X87844859Y-102430902D01*
X87809873Y-102456320D01*
X87809872Y-102456320D01*
X88370591Y-103017038D01*
X88307008Y-103034076D01*
X88192994Y-103099902D01*
X88099902Y-103192994D01*
X88034076Y-103307008D01*
X88017038Y-103370591D01*
X87456320Y-102809872D01*
X87456320Y-102809873D01*
X87430902Y-102844859D01*
X87430899Y-102844863D01*
X87341582Y-103020161D01*
X87280778Y-103207294D01*
X87250000Y-103401617D01*
X83030728Y-103401617D01*
X82768972Y-103146446D01*
X82187942Y-102580033D01*
X82153679Y-102519141D01*
X82150500Y-102491243D01*
X82150500Y-101300323D01*
X82150499Y-101300321D01*
X82135967Y-101227264D01*
X82135966Y-101227260D01*
X82080601Y-101144399D01*
X81997740Y-101089034D01*
X81997739Y-101089033D01*
X81997735Y-101089032D01*
X81924677Y-101074500D01*
X81924674Y-101074500D01*
X80075326Y-101074500D01*
X80075323Y-101074500D01*
X80002264Y-101089032D01*
X80002260Y-101089033D01*
X79919399Y-101144399D01*
X79864033Y-101227260D01*
X79864032Y-101227264D01*
X79849500Y-101300321D01*
X79849500Y-103149678D01*
X79864032Y-103222735D01*
X79864033Y-103222739D01*
X79864034Y-103222740D01*
X79919399Y-103305601D01*
X79996579Y-103357170D01*
X80002260Y-103360966D01*
X80002264Y-103360967D01*
X80075321Y-103375499D01*
X80075324Y-103375500D01*
X80075326Y-103375500D01*
X80842869Y-103375500D01*
X80909908Y-103395185D01*
X80955663Y-103447989D01*
X80965607Y-103517147D01*
X80936582Y-103580703D01*
X80877804Y-103618477D01*
X80862267Y-103621973D01*
X80730589Y-103642829D01*
X80558363Y-103698787D01*
X80558360Y-103698788D01*
X80397002Y-103781006D01*
X80250505Y-103887441D01*
X80250500Y-103887445D01*
X80122445Y-104015500D01*
X80122441Y-104015505D01*
X80016006Y-104162002D01*
X79933788Y-104323360D01*
X79933787Y-104323363D01*
X79877829Y-104495589D01*
X79849500Y-104674448D01*
X79849500Y-104855551D01*
X79877829Y-105034410D01*
X79933787Y-105206636D01*
X79933788Y-105206639D01*
X80016006Y-105367997D01*
X80122441Y-105514494D01*
X80122445Y-105514499D01*
X80250500Y-105642554D01*
X80250505Y-105642558D01*
X80397001Y-105748993D01*
X80397003Y-105748994D01*
X80397006Y-105748996D01*
X80531796Y-105817675D01*
X80582591Y-105865648D01*
X80599500Y-105928159D01*
X80599500Y-111678503D01*
X80579815Y-111745542D01*
X80558406Y-111770074D01*
X80558508Y-111770176D01*
X80557021Y-111771662D01*
X80556042Y-111772785D01*
X80555060Y-111773623D01*
X80393622Y-111935061D01*
X80259421Y-112119771D01*
X80155770Y-112323196D01*
X80085215Y-112540339D01*
X80049500Y-112765837D01*
X80049500Y-112994162D01*
X80085215Y-113219660D01*
X80155770Y-113436803D01*
X80230378Y-113583228D01*
X80259421Y-113640228D01*
X80393621Y-113824937D01*
X80555063Y-113986379D01*
X80739772Y-114120579D01*
X80835884Y-114169550D01*
X80943196Y-114224229D01*
X80943198Y-114224229D01*
X80943201Y-114224231D01*
X81059592Y-114262049D01*
X81160339Y-114294784D01*
X81385838Y-114330500D01*
X81385843Y-114330500D01*
X81614162Y-114330500D01*
X81839660Y-114294784D01*
X82056799Y-114224231D01*
X82260228Y-114120579D01*
X82444937Y-113986379D01*
X82606379Y-113824937D01*
X82740579Y-113640228D01*
X82844231Y-113436799D01*
X82914784Y-113219660D01*
X82950500Y-112994162D01*
X82950500Y-112765837D01*
X82914784Y-112540339D01*
X82844229Y-112323196D01*
X82740578Y-112119771D01*
X82606379Y-111935063D01*
X82444937Y-111773621D01*
X82260228Y-111639421D01*
X82056803Y-111535770D01*
X81839660Y-111465215D01*
X81614162Y-111429500D01*
X81614157Y-111429500D01*
X81524500Y-111429500D01*
X81457461Y-111409815D01*
X81411706Y-111357011D01*
X81400500Y-111305500D01*
X81400500Y-105928159D01*
X81420185Y-105861120D01*
X81468202Y-105817675D01*
X81602994Y-105748996D01*
X81749501Y-105642553D01*
X81877553Y-105514501D01*
X81983996Y-105367994D01*
X82066211Y-105206639D01*
X82122171Y-105034409D01*
X82139341Y-104926000D01*
X82150500Y-104855551D01*
X82150500Y-104674448D01*
X82133813Y-104569095D01*
X82122171Y-104495591D01*
X82066211Y-104323361D01*
X82066211Y-104323360D01*
X82012280Y-104217517D01*
X81983996Y-104162006D01*
X81955329Y-104122549D01*
X81877558Y-104015505D01*
X81877554Y-104015500D01*
X81749499Y-103887445D01*
X81749494Y-103887441D01*
X81602997Y-103781006D01*
X81602996Y-103781005D01*
X81602994Y-103781004D01*
X81551300Y-103754664D01*
X81441639Y-103698788D01*
X81441636Y-103698787D01*
X81269410Y-103642829D01*
X81137733Y-103621973D01*
X81074598Y-103592044D01*
X81037667Y-103532732D01*
X81038665Y-103462869D01*
X81077275Y-103404637D01*
X81141239Y-103376523D01*
X81157131Y-103375500D01*
X81806004Y-103375500D01*
X81873043Y-103395185D01*
X81892558Y-103410707D01*
X88762058Y-110107389D01*
X88796321Y-110168279D01*
X88799500Y-110196178D01*
X88799500Y-111828822D01*
X88779815Y-111895861D01*
X88727011Y-111941616D01*
X88657853Y-111951560D01*
X88594297Y-111922535D01*
X88587819Y-111916503D01*
X88444938Y-111773622D01*
X88442240Y-111771662D01*
X88260228Y-111639421D01*
X88056803Y-111535770D01*
X87839660Y-111465215D01*
X87614162Y-111429500D01*
X87614157Y-111429500D01*
X87385843Y-111429500D01*
X87385838Y-111429500D01*
X87160339Y-111465215D01*
X86943196Y-111535770D01*
X86739771Y-111639421D01*
X86555061Y-111773622D01*
X86393622Y-111935061D01*
X86259421Y-112119771D01*
X86155770Y-112323196D01*
X86085215Y-112540339D01*
X86049500Y-112765837D01*
X86049500Y-112994162D01*
X86085215Y-113219660D01*
X86155771Y-113436806D01*
X86189477Y-113502957D01*
X86202373Y-113571626D01*
X86176096Y-113636366D01*
X86166673Y-113646932D01*
X81179522Y-118634084D01*
X81179518Y-118634090D01*
X81126792Y-118725412D01*
X81126793Y-118725413D01*
X81099500Y-118827273D01*
X81099500Y-126634893D01*
X81079815Y-126701932D01*
X81027011Y-126747687D01*
X81013824Y-126752821D01*
X80988495Y-126761051D01*
X80943196Y-126775770D01*
X80739771Y-126879421D01*
X80555061Y-127013622D01*
X80393622Y-127175061D01*
X80259421Y-127359771D01*
X80155770Y-127563196D01*
X80085215Y-127780339D01*
X80049500Y-128005837D01*
X80049500Y-128234162D01*
X80085215Y-128459660D01*
X80155770Y-128676803D01*
X80228947Y-128820419D01*
X80259421Y-128880228D01*
X80393621Y-129064937D01*
X80555063Y-129226379D01*
X80739772Y-129360579D01*
X80835884Y-129409550D01*
X80943196Y-129464229D01*
X80943198Y-129464229D01*
X80943201Y-129464231D01*
X81031678Y-129492979D01*
X81160339Y-129534784D01*
X81385838Y-129570500D01*
X81385843Y-129570500D01*
X81614162Y-129570500D01*
X81839660Y-129534784D01*
X81839814Y-129534734D01*
X82056799Y-129464231D01*
X82260228Y-129360579D01*
X82444937Y-129226379D01*
X82606379Y-129064937D01*
X82740579Y-128880228D01*
X82844231Y-128676799D01*
X82914784Y-128459660D01*
X82916955Y-128445952D01*
X82950500Y-128234162D01*
X82950500Y-128005837D01*
X82914784Y-127780339D01*
X82844229Y-127563196D01*
X82740578Y-127359771D01*
X82606379Y-127175063D01*
X82444937Y-127013621D01*
X82260228Y-126879421D01*
X82056803Y-126775770D01*
X82024184Y-126765171D01*
X81986180Y-126752823D01*
X81928506Y-126713386D01*
X81901308Y-126649027D01*
X81900500Y-126634893D01*
X81900500Y-119097254D01*
X81920185Y-119030215D01*
X81936814Y-119009578D01*
X86733068Y-114213323D01*
X86794389Y-114179840D01*
X86864081Y-114184824D01*
X86877042Y-114190521D01*
X86943196Y-114224229D01*
X86943198Y-114224229D01*
X86943201Y-114224231D01*
X87059592Y-114262049D01*
X87160339Y-114294784D01*
X87385838Y-114330500D01*
X87385843Y-114330500D01*
X87614162Y-114330500D01*
X87839660Y-114294784D01*
X88056799Y-114224231D01*
X88260228Y-114120579D01*
X88444937Y-113986379D01*
X88587819Y-113843497D01*
X88649142Y-113810012D01*
X88718834Y-113814996D01*
X88774767Y-113856868D01*
X88799184Y-113922332D01*
X88799500Y-113931178D01*
X88799500Y-122775214D01*
X88779815Y-122842253D01*
X88761017Y-122865007D01*
X84767578Y-126668281D01*
X84758382Y-126677040D01*
X84754087Y-126679520D01*
X84720260Y-126713345D01*
X84719169Y-126714385D01*
X84685600Y-126746356D01*
X84682839Y-126749778D01*
X84682600Y-126750044D01*
X84682405Y-126750291D01*
X84682183Y-126750616D01*
X84679519Y-126754088D01*
X84656359Y-126794201D01*
X84654818Y-126796797D01*
X84630671Y-126836361D01*
X84628895Y-126840370D01*
X84628890Y-126840382D01*
X84628527Y-126841199D01*
X84628476Y-126841345D01*
X84626796Y-126845400D01*
X84626793Y-126845413D01*
X84614789Y-126890207D01*
X84613989Y-126893054D01*
X84600903Y-126937526D01*
X84600221Y-126941880D01*
X84600220Y-126941888D01*
X84600085Y-126942743D01*
X84600072Y-126942921D01*
X84599500Y-126947270D01*
X84599500Y-126993587D01*
X84599463Y-126996610D01*
X84598333Y-127042943D01*
X84598798Y-127047292D01*
X84599500Y-127060472D01*
X84599500Y-128281424D01*
X84579815Y-128348463D01*
X84563181Y-128369105D01*
X80679522Y-132252763D01*
X80679518Y-132252769D01*
X80626792Y-132344091D01*
X80626793Y-132344092D01*
X80599500Y-132445952D01*
X80599500Y-133950500D01*
X80579815Y-134017539D01*
X80527011Y-134063294D01*
X80475500Y-134074500D01*
X80075323Y-134074500D01*
X80002264Y-134089032D01*
X80002260Y-134089033D01*
X79919399Y-134144399D01*
X79864033Y-134227260D01*
X79864032Y-134227264D01*
X79849500Y-134300321D01*
X79849500Y-136149678D01*
X79864032Y-136222735D01*
X79864033Y-136222739D01*
X79864034Y-136222740D01*
X79919399Y-136305601D01*
X79996579Y-136357170D01*
X80002260Y-136360966D01*
X80002264Y-136360967D01*
X80075321Y-136375499D01*
X80075324Y-136375500D01*
X80842869Y-136375500D01*
X80909908Y-136395185D01*
X80955663Y-136447989D01*
X80965607Y-136517147D01*
X80936582Y-136580703D01*
X80877804Y-136618477D01*
X80862267Y-136621973D01*
X80730589Y-136642829D01*
X80558363Y-136698787D01*
X80558360Y-136698788D01*
X80397002Y-136781006D01*
X80250505Y-136887441D01*
X80250500Y-136887445D01*
X80122445Y-137015500D01*
X80122441Y-137015505D01*
X80016006Y-137162002D01*
X79933788Y-137323360D01*
X79933787Y-137323363D01*
X79877829Y-137495589D01*
X79849500Y-137674448D01*
X79849500Y-137855551D01*
X79877829Y-138034410D01*
X79933787Y-138206636D01*
X79933788Y-138206639D01*
X80016006Y-138367997D01*
X80122441Y-138514494D01*
X80122445Y-138514499D01*
X80250500Y-138642554D01*
X80250505Y-138642558D01*
X80333560Y-138702900D01*
X80397006Y-138748996D01*
X80502484Y-138802740D01*
X80558360Y-138831211D01*
X80558363Y-138831212D01*
X80633424Y-138855600D01*
X80730591Y-138887171D01*
X80813429Y-138900291D01*
X80909449Y-138915500D01*
X80909454Y-138915500D01*
X81090551Y-138915500D01*
X81177259Y-138901765D01*
X81269409Y-138887171D01*
X81441639Y-138831211D01*
X81602994Y-138748996D01*
X81749501Y-138642553D01*
X81877553Y-138514501D01*
X81983996Y-138367994D01*
X82066211Y-138206639D01*
X82122171Y-138034409D01*
X82136765Y-137942259D01*
X82150500Y-137855551D01*
X82150500Y-137774500D01*
X82151103Y-137772446D01*
X82150569Y-137770375D01*
X82160902Y-137739074D01*
X82170185Y-137707461D01*
X82171800Y-137706060D01*
X82172472Y-137704028D01*
X82198092Y-137683278D01*
X82222989Y-137661706D01*
X82225628Y-137660978D01*
X82226769Y-137660055D01*
X82234838Y-137658439D01*
X82260946Y-137651243D01*
X82267702Y-137650500D01*
X82349436Y-137650500D01*
X82397186Y-137637705D01*
X82444938Y-137624910D01*
X82530562Y-137575475D01*
X82600475Y-137505562D01*
X85812819Y-134293216D01*
X85832255Y-134282604D01*
X85848989Y-134268104D01*
X85862320Y-134266187D01*
X85874142Y-134259732D01*
X85896228Y-134261311D01*
X85918147Y-134258160D01*
X85930398Y-134263755D01*
X85943834Y-134264716D01*
X85961560Y-134277986D01*
X85981703Y-134287185D01*
X85988985Y-134298516D01*
X85999767Y-134306588D01*
X86007504Y-134327333D01*
X86019477Y-134345963D01*
X86022628Y-134367881D01*
X86024184Y-134372052D01*
X86024500Y-134380898D01*
X86024500Y-134603456D01*
X86004815Y-134670495D01*
X85988181Y-134691137D01*
X84582031Y-136097286D01*
X84582029Y-136097288D01*
X84560092Y-136135287D01*
X84560090Y-136135289D01*
X84535888Y-136177206D01*
X84535887Y-136177209D01*
X84512000Y-136266356D01*
X84512000Y-141386695D01*
X84527929Y-141446143D01*
X84535886Y-141475841D01*
X84535887Y-141475842D01*
X84582027Y-141555760D01*
X84582029Y-141555763D01*
X84582030Y-141555764D01*
X85241479Y-142215212D01*
X85306736Y-142280469D01*
X85306739Y-142280470D01*
X85306742Y-142280473D01*
X85386654Y-142326611D01*
X85386655Y-142326611D01*
X85386660Y-142326614D01*
X85475804Y-142350500D01*
X85475806Y-142350500D01*
X89249194Y-142350500D01*
X89249196Y-142350500D01*
X89338340Y-142326614D01*
X89418264Y-142280470D01*
X95237819Y-136460915D01*
X95299142Y-136427430D01*
X95368834Y-136432414D01*
X95424767Y-136474286D01*
X95449184Y-136539750D01*
X95449500Y-136548596D01*
X95449500Y-136572475D01*
X95486317Y-136709877D01*
X95487017Y-136712488D01*
X95559488Y-136838011D01*
X95559490Y-136838013D01*
X95559491Y-136838015D01*
X95661985Y-136940509D01*
X95661986Y-136940510D01*
X95661988Y-136940511D01*
X95787511Y-137012982D01*
X95787512Y-137012982D01*
X95787515Y-137012984D01*
X95927525Y-137050500D01*
X95927528Y-137050500D01*
X96072472Y-137050500D01*
X96072475Y-137050500D01*
X96212485Y-137012984D01*
X96338015Y-136940509D01*
X96440509Y-136838015D01*
X96512984Y-136712485D01*
X96550500Y-136572475D01*
X96550500Y-136567255D01*
X96570185Y-136500216D01*
X96586819Y-136479574D01*
X106629574Y-126436819D01*
X106690897Y-126403334D01*
X106717255Y-126400500D01*
X113331917Y-126400500D01*
X113398956Y-126420185D01*
X113403986Y-126423594D01*
X113746549Y-126668282D01*
X113747573Y-126669013D01*
X113790684Y-126723997D01*
X113799500Y-126769916D01*
X113799500Y-127068822D01*
X113779815Y-127135861D01*
X113727011Y-127181616D01*
X113657853Y-127191560D01*
X113594297Y-127162535D01*
X113587819Y-127156503D01*
X113444938Y-127013622D01*
X113421523Y-126996610D01*
X113260228Y-126879421D01*
X113056803Y-126775770D01*
X112839660Y-126705215D01*
X112614162Y-126669500D01*
X112614157Y-126669500D01*
X112385843Y-126669500D01*
X112385838Y-126669500D01*
X112160339Y-126705215D01*
X111943196Y-126775770D01*
X111739771Y-126879421D01*
X111555061Y-127013622D01*
X111393622Y-127175061D01*
X111259421Y-127359771D01*
X111155770Y-127563196D01*
X111085215Y-127780339D01*
X111049500Y-128005837D01*
X111049500Y-128234162D01*
X111085215Y-128459660D01*
X111155771Y-128676806D01*
X111189477Y-128742957D01*
X111202373Y-128811626D01*
X111176096Y-128876366D01*
X111166673Y-128886932D01*
X106404522Y-133649084D01*
X106404518Y-133649090D01*
X106351792Y-133740413D01*
X106351791Y-133740413D01*
X106341895Y-133777352D01*
X106341895Y-133777353D01*
X106324500Y-133842273D01*
X106324500Y-147225334D01*
X106304815Y-147292373D01*
X106274811Y-147324601D01*
X106160313Y-147410313D01*
X106078373Y-147519771D01*
X106030587Y-147647889D01*
X106024500Y-147704498D01*
X106024500Y-148295481D01*
X106024501Y-148295490D01*
X106030587Y-148352114D01*
X106068395Y-148453477D01*
X106078372Y-148480226D01*
X106160313Y-148589687D01*
X106233713Y-148644633D01*
X106275584Y-148700567D01*
X106280568Y-148770258D01*
X106247083Y-148831581D01*
X106233036Y-148843670D01*
X106152850Y-148902850D01*
X106072207Y-149012117D01*
X106072206Y-149012119D01*
X106027353Y-149140298D01*
X106027353Y-149140300D01*
X106024500Y-149170730D01*
X106024500Y-149603456D01*
X106004815Y-149670495D01*
X105988181Y-149691137D01*
X100507031Y-155172286D01*
X100507029Y-155172288D01*
X100472432Y-155232215D01*
X100472430Y-155232217D01*
X100460887Y-155252209D01*
X100437000Y-155341356D01*
X100437000Y-164205967D01*
X100417315Y-164273006D01*
X100382277Y-164308810D01*
X100370090Y-164317018D01*
X100341550Y-164327664D01*
X100233528Y-164408528D01*
X100232800Y-164409499D01*
X100224530Y-164415071D01*
X100194054Y-164424739D01*
X100164099Y-164435912D01*
X100160976Y-164435232D01*
X100157931Y-164436199D01*
X100127065Y-164427855D01*
X100095826Y-164421060D01*
X100093395Y-164418754D01*
X100090482Y-164417967D01*
X100077856Y-164404016D01*
X100049714Y-164377325D01*
X99998885Y-164294919D01*
X99880080Y-164176114D01*
X99737077Y-164087908D01*
X99737072Y-164087906D01*
X99577583Y-164035057D01*
X99479150Y-164025000D01*
X99462500Y-164025000D01*
X99462500Y-164876000D01*
X99442815Y-164943039D01*
X99390011Y-164988794D01*
X99338500Y-165000000D01*
X99212500Y-165000000D01*
X99212500Y-165126000D01*
X99192815Y-165193039D01*
X99140011Y-165238794D01*
X99088500Y-165250000D01*
X98275001Y-165250000D01*
X98275001Y-165304152D01*
X98285056Y-165402583D01*
X98329431Y-165536496D01*
X98331833Y-165606325D01*
X98296101Y-165666366D01*
X98233581Y-165697559D01*
X98211725Y-165699500D01*
X95509226Y-165699500D01*
X95503840Y-165699383D01*
X95054780Y-165679858D01*
X95042630Y-165678729D01*
X94650099Y-165622653D01*
X94636078Y-165619816D01*
X94291377Y-165529105D01*
X94275721Y-165523848D01*
X93977202Y-165400929D01*
X93960625Y-165392602D01*
X93704957Y-165239201D01*
X93688659Y-165227533D01*
X93471110Y-165043452D01*
X93456547Y-165028889D01*
X93272465Y-164811338D01*
X93260796Y-164795039D01*
X93256182Y-164787349D01*
X93201282Y-164695849D01*
X98275000Y-164695849D01*
X98275000Y-164750000D01*
X98962500Y-164750000D01*
X98962500Y-164024999D01*
X98945856Y-164025000D01*
X98847415Y-164035057D01*
X98687927Y-164087906D01*
X98687922Y-164087908D01*
X98544919Y-164176114D01*
X98426114Y-164294919D01*
X98337908Y-164437922D01*
X98337906Y-164437927D01*
X98285057Y-164597416D01*
X98275000Y-164695849D01*
X93201282Y-164695849D01*
X93196622Y-164688082D01*
X93107399Y-164539376D01*
X93099068Y-164522792D01*
X93063014Y-164435232D01*
X92976149Y-164224272D01*
X92970894Y-164208622D01*
X92970195Y-164205967D01*
X92880180Y-163863907D01*
X92877344Y-163849890D01*
X92833933Y-163546015D01*
X92821268Y-163457361D01*
X92820141Y-163445230D01*
X92800617Y-162996158D01*
X92800500Y-162990774D01*
X92800500Y-155032938D01*
X92801935Y-155026471D01*
X92800500Y-154993465D01*
X92800500Y-154960438D01*
X92800499Y-154960437D01*
X92799438Y-154952375D01*
X92800017Y-154952298D01*
X92798194Y-154940453D01*
X92767271Y-154229231D01*
X92766562Y-154212912D01*
X92768353Y-154198056D01*
X92764851Y-154173544D01*
X92763776Y-154148812D01*
X92762331Y-154144226D01*
X92757843Y-154124492D01*
X92661706Y-153451533D01*
X92661785Y-153434006D01*
X92656135Y-153412539D01*
X92652996Y-153390560D01*
X92649680Y-153382798D01*
X92643797Y-153365653D01*
X92483026Y-152754720D01*
X92480429Y-152734667D01*
X92473003Y-152716633D01*
X92468038Y-152697765D01*
X92461955Y-152687120D01*
X92454962Y-152672819D01*
X92231370Y-152129812D01*
X92231369Y-152129810D01*
X92228723Y-152123383D01*
X92222475Y-152101540D01*
X92213722Y-152086952D01*
X92210179Y-152078346D01*
X92207248Y-152071229D01*
X92207246Y-152071224D01*
X92197677Y-152058700D01*
X92189880Y-152047216D01*
X92087685Y-151876892D01*
X91897355Y-151559675D01*
X91886897Y-151537485D01*
X91877081Y-151525884D01*
X91869266Y-151512859D01*
X91856089Y-151500119D01*
X91847630Y-151491079D01*
X91492502Y-151071382D01*
X91492501Y-151071381D01*
X91492498Y-151071378D01*
X91488674Y-151066858D01*
X91474307Y-151046157D01*
X91463222Y-151036777D01*
X91453843Y-151025693D01*
X91437996Y-151014693D01*
X91428623Y-151007501D01*
X91004198Y-150648374D01*
X90987142Y-150630734D01*
X90974108Y-150622914D01*
X90962515Y-150613104D01*
X90962514Y-150613103D01*
X90945939Y-150605290D01*
X90935014Y-150599456D01*
X90452783Y-150310117D01*
X90452783Y-150310118D01*
X90446825Y-150306543D01*
X90428776Y-150292754D01*
X90413047Y-150286277D01*
X90405069Y-150281490D01*
X90405067Y-150281489D01*
X90398463Y-150277526D01*
X90398456Y-150277523D01*
X90383292Y-150273185D01*
X90370188Y-150268629D01*
X89827170Y-150045032D01*
X89819795Y-150041996D01*
X89802234Y-150031962D01*
X89783368Y-150026997D01*
X89775711Y-150023844D01*
X89775709Y-150023842D01*
X89765335Y-150019571D01*
X89753182Y-150017997D01*
X89737555Y-150014941D01*
X89134355Y-149856204D01*
X89125559Y-149853889D01*
X89109440Y-149847004D01*
X89087466Y-149843864D01*
X89080528Y-149842039D01*
X89080527Y-149842038D01*
X89065998Y-149838216D01*
X89065989Y-149838214D01*
X89057550Y-149838252D01*
X89039468Y-149837007D01*
X88375503Y-149742155D01*
X88365456Y-149740719D01*
X88351188Y-149736224D01*
X88326455Y-149735148D01*
X88320403Y-149734283D01*
X88320402Y-149734283D01*
X88301943Y-149731646D01*
X88297163Y-149732223D01*
X88276945Y-149732996D01*
X87559534Y-149701804D01*
X87559534Y-149701803D01*
X87545955Y-149701212D01*
X87539562Y-149699500D01*
X87506535Y-149699500D01*
X87503843Y-149699383D01*
X87503842Y-149699383D01*
X87473528Y-149698065D01*
X87465433Y-149698775D01*
X87465382Y-149698194D01*
X87453470Y-149699500D01*
X83554467Y-149699500D01*
X83487428Y-149679815D01*
X83441673Y-149627011D01*
X83431729Y-149557853D01*
X83460754Y-149494297D01*
X83496714Y-149466532D01*
X83496483Y-149466132D01*
X83499459Y-149464413D01*
X83499620Y-149464289D01*
X83500000Y-149464102D01*
X83935046Y-149173413D01*
X84328427Y-148828427D01*
X84673413Y-148435046D01*
X84964102Y-148000000D01*
X85195518Y-147530734D01*
X85199239Y-147519774D01*
X85363699Y-147035288D01*
X85363699Y-147035287D01*
X85363703Y-147035276D01*
X85465779Y-146522105D01*
X85500000Y-146000000D01*
X85465779Y-145477895D01*
X85363703Y-144964724D01*
X85199500Y-144480996D01*
X85195521Y-144469273D01*
X85195517Y-144469263D01*
X85076404Y-144227727D01*
X84964102Y-144000000D01*
X84673413Y-143564954D01*
X84597827Y-143478765D01*
X84328427Y-143171572D01*
X83935047Y-142826588D01*
X83500005Y-142535901D01*
X83500002Y-142535899D01*
X83500000Y-142535898D01*
X83499992Y-142535894D01*
X83030736Y-142304482D01*
X83030726Y-142304478D01*
X82535288Y-142136300D01*
X82535268Y-142136295D01*
X82022115Y-142034223D01*
X82022105Y-142034221D01*
X81500000Y-142000000D01*
X80977895Y-142034221D01*
X80977889Y-142034222D01*
X80977884Y-142034223D01*
X80464731Y-142136295D01*
X80464711Y-142136300D01*
X79969273Y-142304478D01*
X79969263Y-142304482D01*
X79500007Y-142535894D01*
X79499994Y-142535901D01*
X79064952Y-142826588D01*
X78671572Y-143171572D01*
X78326588Y-143564952D01*
X78035901Y-143999994D01*
X78035897Y-144000001D01*
X78035712Y-144000378D01*
X78035626Y-144000470D01*
X78033868Y-144003517D01*
X78033186Y-144003123D01*
X77988406Y-144051797D01*
X77920811Y-144069478D01*
X77854387Y-144047808D01*
X77810223Y-143993666D01*
X77800500Y-143945533D01*
X77800500Y-100225321D01*
X87499500Y-100225321D01*
X87499500Y-101774678D01*
X87514032Y-101847735D01*
X87514033Y-101847739D01*
X87532308Y-101875090D01*
X87569399Y-101930601D01*
X87652260Y-101985966D01*
X87652264Y-101985967D01*
X87725321Y-102000499D01*
X87725324Y-102000500D01*
X87725326Y-102000500D01*
X89274676Y-102000500D01*
X89274677Y-102000499D01*
X89347740Y-101985966D01*
X89430601Y-101930601D01*
X89485966Y-101847740D01*
X89500500Y-101774674D01*
X89500500Y-100225326D01*
X89500500Y-100225323D01*
X89500499Y-100225321D01*
X89485967Y-100152264D01*
X89485966Y-100152260D01*
X89458971Y-100111859D01*
X89430601Y-100069399D01*
X89347740Y-100014034D01*
X89347739Y-100014033D01*
X89347735Y-100014032D01*
X89274677Y-99999500D01*
X89274674Y-99999500D01*
X87725326Y-99999500D01*
X87725323Y-99999500D01*
X87652264Y-100014032D01*
X87652260Y-100014033D01*
X87569399Y-100069399D01*
X87514033Y-100152260D01*
X87514032Y-100152264D01*
X87499500Y-100225321D01*
X77800500Y-100225321D01*
X77800500Y-96054466D01*
X77820185Y-95987427D01*
X77872989Y-95941672D01*
X77942147Y-95931728D01*
X78005703Y-95960753D01*
X78033465Y-95996715D01*
X78033868Y-95996483D01*
X78035594Y-95999473D01*
X78035717Y-95999632D01*
X78035897Y-95999998D01*
X78035901Y-96000005D01*
X78326588Y-96435047D01*
X78671572Y-96828427D01*
X78978765Y-97097827D01*
X79064954Y-97173413D01*
X79500000Y-97464102D01*
X79675198Y-97550500D01*
X79969263Y-97695517D01*
X79969273Y-97695521D01*
X80464711Y-97863699D01*
X80464715Y-97863700D01*
X80464724Y-97863703D01*
X80977895Y-97965779D01*
X81500000Y-98000000D01*
X82022105Y-97965779D01*
X82535276Y-97863703D01*
X82647819Y-97825500D01*
X83030726Y-97695521D01*
X83030736Y-97695517D01*
X83078744Y-97671842D01*
X83500000Y-97464102D01*
X83935046Y-97173413D01*
X84328427Y-96828427D01*
X84673413Y-96435046D01*
X84964102Y-96000000D01*
X85195518Y-95530734D01*
X85207125Y-95496543D01*
X85363699Y-95035288D01*
X85363699Y-95035287D01*
X85363703Y-95035276D01*
X85465779Y-94522105D01*
X85500000Y-94000000D01*
X85465779Y-93477895D01*
X85363703Y-92964724D01*
X85363699Y-92964711D01*
X85195521Y-92469273D01*
X85195517Y-92469263D01*
X85036989Y-92147801D01*
X84964102Y-92000000D01*
X84673413Y-91564954D01*
X84489801Y-91355585D01*
X84399137Y-91252202D01*
X84332775Y-91176530D01*
X91329500Y-91176530D01*
X91329500Y-91383469D01*
X91369868Y-91586412D01*
X91369870Y-91586420D01*
X91449058Y-91777596D01*
X91564024Y-91949657D01*
X91710342Y-92095975D01*
X91710345Y-92095977D01*
X91882402Y-92210941D01*
X92073580Y-92290130D01*
X92276530Y-92330499D01*
X92276534Y-92330500D01*
X92276535Y-92330500D01*
X92483466Y-92330500D01*
X92483467Y-92330499D01*
X92686420Y-92290130D01*
X92877598Y-92210941D01*
X93049655Y-92095977D01*
X93195977Y-91949655D01*
X93310941Y-91777598D01*
X93390130Y-91586420D01*
X93430500Y-91383465D01*
X93430500Y-91176535D01*
X93390130Y-90973580D01*
X93310941Y-90782402D01*
X93195977Y-90610345D01*
X93195975Y-90610342D01*
X93049657Y-90464024D01*
X92937473Y-90389066D01*
X92877598Y-90349059D01*
X92807890Y-90320185D01*
X92686420Y-90269870D01*
X92686412Y-90269868D01*
X92483469Y-90229500D01*
X92483465Y-90229500D01*
X92276535Y-90229500D01*
X92276530Y-90229500D01*
X92073587Y-90269868D01*
X92073579Y-90269870D01*
X91882403Y-90349058D01*
X91710342Y-90464024D01*
X91564024Y-90610342D01*
X91449058Y-90782403D01*
X91369870Y-90973579D01*
X91369868Y-90973587D01*
X91329500Y-91176530D01*
X84332775Y-91176530D01*
X84328427Y-91171572D01*
X83951074Y-90840643D01*
X83935046Y-90826587D01*
X83720461Y-90683206D01*
X83500005Y-90535901D01*
X83499998Y-90535897D01*
X83499985Y-90535890D01*
X83499621Y-90535711D01*
X83499529Y-90535626D01*
X83496483Y-90533868D01*
X83496876Y-90533186D01*
X83448203Y-90488406D01*
X83430522Y-90420811D01*
X83452192Y-90354387D01*
X83506334Y-90310223D01*
X83554467Y-90300500D01*
X86242061Y-90300500D01*
X86248528Y-90301935D01*
X86281533Y-90300500D01*
X86314562Y-90300500D01*
X86314562Y-90300499D01*
X86322623Y-90299438D01*
X86322699Y-90300018D01*
X86334543Y-90298194D01*
X87018164Y-90268472D01*
X87033021Y-90270263D01*
X87057532Y-90266761D01*
X87082265Y-90265686D01*
X87086846Y-90264242D01*
X87106579Y-90259754D01*
X87739438Y-90169345D01*
X87756966Y-90169424D01*
X87778431Y-90163774D01*
X87780756Y-90163441D01*
X87785525Y-90162761D01*
X87785528Y-90162761D01*
X87796434Y-90161203D01*
X87800412Y-90160635D01*
X87808179Y-90157316D01*
X87825316Y-90151436D01*
X88399965Y-90000214D01*
X88420022Y-89997617D01*
X88438057Y-89990190D01*
X88456923Y-89985226D01*
X88467558Y-89979148D01*
X88481862Y-89972152D01*
X88998838Y-89759279D01*
X89020682Y-89753031D01*
X89035269Y-89744278D01*
X89050998Y-89737802D01*
X89063531Y-89728225D01*
X89074993Y-89720443D01*
X89533906Y-89445096D01*
X89556093Y-89434640D01*
X89567689Y-89424827D01*
X89580717Y-89417011D01*
X89593459Y-89403831D01*
X89602488Y-89395380D01*
X90001886Y-89057428D01*
X90022593Y-89043057D01*
X90031975Y-89031968D01*
X90043057Y-89022592D01*
X90049888Y-89012750D01*
X90054042Y-89006765D01*
X90061251Y-88997369D01*
X90366577Y-88636530D01*
X91329500Y-88636530D01*
X91329500Y-88843469D01*
X91369868Y-89046412D01*
X91369870Y-89046420D01*
X91435854Y-89205720D01*
X91449059Y-89237598D01*
X91462714Y-89258034D01*
X91564024Y-89409657D01*
X91710342Y-89555975D01*
X91710345Y-89555977D01*
X91882402Y-89670941D01*
X92073580Y-89750130D01*
X92237508Y-89782737D01*
X92276530Y-89790499D01*
X92276534Y-89790500D01*
X92276535Y-89790500D01*
X92483466Y-89790500D01*
X92483467Y-89790499D01*
X92686420Y-89750130D01*
X92877598Y-89670941D01*
X93049655Y-89555977D01*
X93195977Y-89409655D01*
X93310941Y-89237598D01*
X93390130Y-89046420D01*
X93430500Y-88843465D01*
X93430500Y-88636535D01*
X93390130Y-88433580D01*
X93310941Y-88242402D01*
X93195977Y-88070345D01*
X93195975Y-88070342D01*
X93049657Y-87924024D01*
X92920928Y-87838011D01*
X92877598Y-87809059D01*
X92686420Y-87729870D01*
X92686412Y-87729868D01*
X92483469Y-87689500D01*
X92483465Y-87689500D01*
X92276535Y-87689500D01*
X92276530Y-87689500D01*
X92073587Y-87729868D01*
X92073579Y-87729870D01*
X91882403Y-87809058D01*
X91710342Y-87924024D01*
X91564024Y-88070342D01*
X91449058Y-88242403D01*
X91369870Y-88433579D01*
X91369868Y-88433587D01*
X91329500Y-88636530D01*
X90366577Y-88636530D01*
X90399377Y-88597766D01*
X90417010Y-88580718D01*
X90424825Y-88567691D01*
X90434640Y-88556093D01*
X90442457Y-88539506D01*
X90448292Y-88528580D01*
X90479887Y-88475922D01*
X90724011Y-88069048D01*
X90737802Y-88050998D01*
X90744278Y-88035269D01*
X90753031Y-88020682D01*
X90757372Y-88005503D01*
X90761920Y-87992423D01*
X90975192Y-87474481D01*
X90985226Y-87456922D01*
X90990189Y-87438059D01*
X90997617Y-87420022D01*
X90999189Y-87407874D01*
X91002245Y-87392244D01*
X91153747Y-86816534D01*
X91160635Y-86800412D01*
X91163775Y-86778430D01*
X91169424Y-86756965D01*
X91169385Y-86748521D01*
X91170629Y-86730449D01*
X91181484Y-86654458D01*
X91210452Y-86590879D01*
X91269196Y-86553052D01*
X91339066Y-86552990D01*
X91397878Y-86590711D01*
X91418799Y-86624545D01*
X91449057Y-86697596D01*
X91564024Y-86869657D01*
X91710342Y-87015975D01*
X91710345Y-87015977D01*
X91882402Y-87130941D01*
X92073580Y-87210130D01*
X92255511Y-87246318D01*
X92276530Y-87250499D01*
X92276534Y-87250500D01*
X92276535Y-87250500D01*
X92483466Y-87250500D01*
X92483467Y-87250499D01*
X92686420Y-87210130D01*
X92877598Y-87130941D01*
X93049655Y-87015977D01*
X93195977Y-86869655D01*
X93310941Y-86697598D01*
X93390130Y-86506420D01*
X93430500Y-86303465D01*
X93430500Y-86096535D01*
X93390130Y-85893580D01*
X93310941Y-85702402D01*
X93195977Y-85530345D01*
X93195975Y-85530342D01*
X93049657Y-85384024D01*
X92963626Y-85326541D01*
X92877598Y-85269059D01*
X92838898Y-85253029D01*
X92686420Y-85189870D01*
X92686412Y-85189868D01*
X92483469Y-85149500D01*
X92483465Y-85149500D01*
X92276535Y-85149500D01*
X92276530Y-85149500D01*
X92073587Y-85189868D01*
X92073579Y-85189870D01*
X91882403Y-85269058D01*
X91710342Y-85384024D01*
X91564025Y-85530341D01*
X91564022Y-85530345D01*
X91516824Y-85600982D01*
X91515559Y-85602038D01*
X91515027Y-85603598D01*
X91488854Y-85624356D01*
X91463211Y-85645787D01*
X91461575Y-85645992D01*
X91460285Y-85647016D01*
X91427048Y-85650328D01*
X91393886Y-85654494D01*
X91392399Y-85653782D01*
X91390760Y-85653946D01*
X91361003Y-85638761D01*
X91330859Y-85624339D01*
X91329993Y-85622937D01*
X91328525Y-85622188D01*
X91311700Y-85593323D01*
X91294140Y-85564896D01*
X91293902Y-85562790D01*
X91293340Y-85561825D01*
X91289839Y-85526709D01*
X91298194Y-85334543D01*
X91300018Y-85322699D01*
X91299438Y-85322623D01*
X91300500Y-85314561D01*
X91300500Y-85284228D01*
X91300617Y-85278842D01*
X91301739Y-85253029D01*
X91301935Y-85248528D01*
X91301933Y-85248519D01*
X91301225Y-85240430D01*
X91301805Y-85240379D01*
X91300500Y-85228468D01*
X91300500Y-84344038D01*
X91320185Y-84276999D01*
X91372989Y-84231244D01*
X91442147Y-84221300D01*
X91505703Y-84250325D01*
X91527603Y-84275148D01*
X91564024Y-84329657D01*
X91710342Y-84475975D01*
X91710345Y-84475977D01*
X91882402Y-84590941D01*
X92073580Y-84670130D01*
X92276530Y-84710499D01*
X92276534Y-84710500D01*
X92276535Y-84710500D01*
X92483466Y-84710500D01*
X92483467Y-84710499D01*
X92686420Y-84670130D01*
X92877598Y-84590941D01*
X93049655Y-84475977D01*
X93195977Y-84329655D01*
X93310941Y-84157598D01*
X93390130Y-83966420D01*
X93430500Y-83763465D01*
X93430500Y-83556535D01*
X93390130Y-83353580D01*
X93310941Y-83162402D01*
X93195977Y-82990345D01*
X93195976Y-82990344D01*
X93195975Y-82990342D01*
X93049657Y-82844024D01*
X92963626Y-82786541D01*
X92877598Y-82729059D01*
X92686420Y-82649870D01*
X92686412Y-82649868D01*
X92483469Y-82609500D01*
X92483465Y-82609500D01*
X92276535Y-82609500D01*
X92276530Y-82609500D01*
X92073587Y-82649868D01*
X92073579Y-82649870D01*
X91882403Y-82729058D01*
X91710342Y-82844024D01*
X91564025Y-82990341D01*
X91564022Y-82990345D01*
X91527602Y-83044852D01*
X91473990Y-83089657D01*
X91404665Y-83098364D01*
X91341637Y-83068209D01*
X91304918Y-83008766D01*
X91300500Y-82975961D01*
X91300500Y-81804038D01*
X91320185Y-81736999D01*
X91372989Y-81691244D01*
X91442147Y-81681300D01*
X91505703Y-81710325D01*
X91527603Y-81735148D01*
X91564024Y-81789657D01*
X91710342Y-81935975D01*
X91710345Y-81935977D01*
X91882402Y-82050941D01*
X92073580Y-82130130D01*
X92276530Y-82170499D01*
X92276534Y-82170500D01*
X92276535Y-82170500D01*
X92483466Y-82170500D01*
X92483467Y-82170499D01*
X92686420Y-82130130D01*
X92877598Y-82050941D01*
X93049655Y-81935977D01*
X93195977Y-81789655D01*
X93310941Y-81617598D01*
X93390130Y-81426420D01*
X93430500Y-81223465D01*
X93430500Y-81016535D01*
X93390130Y-80813580D01*
X93310941Y-80622402D01*
X93195977Y-80450345D01*
X93195976Y-80450344D01*
X93195975Y-80450342D01*
X93049657Y-80304024D01*
X92963626Y-80246541D01*
X92877598Y-80189059D01*
X92686420Y-80109870D01*
X92686412Y-80109868D01*
X92483469Y-80069500D01*
X92483465Y-80069500D01*
X92276535Y-80069500D01*
X92276530Y-80069500D01*
X92073587Y-80109868D01*
X92073579Y-80109870D01*
X91882403Y-80189058D01*
X91710342Y-80304024D01*
X91564025Y-80450341D01*
X91564022Y-80450345D01*
X91527602Y-80504852D01*
X91473990Y-80549657D01*
X91404665Y-80558364D01*
X91341637Y-80528209D01*
X91304918Y-80468766D01*
X91300500Y-80435961D01*
X91300500Y-79264038D01*
X91320185Y-79196999D01*
X91372989Y-79151244D01*
X91442147Y-79141300D01*
X91505703Y-79170325D01*
G37*
%TD.AperFunction*%
%TA.AperFunction,Conductor*%
G36*
X122118834Y-139104362D02*
G01*
X122174767Y-139146234D01*
X122199184Y-139211698D01*
X122199500Y-139220544D01*
X122199500Y-143945533D01*
X122179815Y-144012572D01*
X122127011Y-144058327D01*
X122057853Y-144068271D01*
X121994297Y-144039246D01*
X121966532Y-144003285D01*
X121966132Y-144003517D01*
X121964413Y-144000540D01*
X121964288Y-144000378D01*
X121964102Y-144000001D01*
X121964102Y-144000000D01*
X121673413Y-143564954D01*
X121597827Y-143478765D01*
X121328427Y-143171572D01*
X120935047Y-142826588D01*
X120500005Y-142535901D01*
X120500002Y-142535899D01*
X120500000Y-142535898D01*
X120499992Y-142535894D01*
X120030736Y-142304482D01*
X120030726Y-142304478D01*
X119535288Y-142136300D01*
X119535268Y-142136295D01*
X119022115Y-142034223D01*
X119022105Y-142034221D01*
X118500000Y-142000000D01*
X117977895Y-142034221D01*
X117977889Y-142034222D01*
X117977884Y-142034223D01*
X117464731Y-142136295D01*
X117464711Y-142136300D01*
X116969273Y-142304478D01*
X116969263Y-142304482D01*
X116500007Y-142535894D01*
X116499994Y-142535901D01*
X116064952Y-142826588D01*
X115671572Y-143171572D01*
X115326588Y-143564952D01*
X115035901Y-143999994D01*
X115035894Y-144000007D01*
X114804482Y-144469263D01*
X114804478Y-144469273D01*
X114636300Y-144964711D01*
X114636295Y-144964731D01*
X114534223Y-145477884D01*
X114534221Y-145477896D01*
X114500000Y-146000000D01*
X114534221Y-146522103D01*
X114534223Y-146522115D01*
X114636295Y-147035268D01*
X114636300Y-147035288D01*
X114804478Y-147530726D01*
X114804482Y-147530736D01*
X114999465Y-147926122D01*
X115035898Y-148000000D01*
X115326587Y-148435046D01*
X115335135Y-148444793D01*
X115671572Y-148828427D01*
X115916761Y-149043451D01*
X116064954Y-149173413D01*
X116500000Y-149464102D01*
X116500378Y-149464288D01*
X116500470Y-149464373D01*
X116503517Y-149466132D01*
X116503123Y-149466813D01*
X116551797Y-149511594D01*
X116569478Y-149579189D01*
X116547808Y-149645613D01*
X116493666Y-149689777D01*
X116445533Y-149699500D01*
X112532938Y-149699500D01*
X112526471Y-149698065D01*
X112493466Y-149699500D01*
X112460435Y-149699500D01*
X112452382Y-149700560D01*
X112452306Y-149699984D01*
X112440464Y-149701804D01*
X111723055Y-149732994D01*
X111723056Y-149732995D01*
X111712905Y-149733436D01*
X111698056Y-149731647D01*
X111673552Y-149735146D01*
X111667451Y-149735412D01*
X111667449Y-149735413D01*
X111648810Y-149736223D01*
X111648808Y-149736224D01*
X111644216Y-149737671D01*
X111624494Y-149742155D01*
X110960530Y-149837006D01*
X110960531Y-149837007D01*
X110951529Y-149838292D01*
X110934006Y-149838215D01*
X110912543Y-149843862D01*
X110905445Y-149844877D01*
X110905444Y-149844876D01*
X110890559Y-149847004D01*
X110890555Y-149847005D01*
X110882789Y-149850322D01*
X110865645Y-149856203D01*
X110262435Y-150014941D01*
X110262436Y-150014942D01*
X110254716Y-150016973D01*
X110234667Y-150019571D01*
X110216635Y-150026994D01*
X110208640Y-150029099D01*
X110208636Y-150029100D01*
X110206317Y-150029711D01*
X110197762Y-150031962D01*
X110187124Y-150038041D01*
X110172826Y-150045033D01*
X109629807Y-150268630D01*
X109623376Y-150271277D01*
X109601540Y-150277525D01*
X109586955Y-150286274D01*
X109578346Y-150289820D01*
X109578345Y-150289820D01*
X109571230Y-150292750D01*
X109571221Y-150292755D01*
X109558694Y-150302326D01*
X109547213Y-150310120D01*
X109064993Y-150599450D01*
X109064994Y-150599451D01*
X109059662Y-150602649D01*
X109037485Y-150613103D01*
X109025889Y-150622914D01*
X109017271Y-150628085D01*
X109017268Y-150628088D01*
X109012859Y-150630733D01*
X109000120Y-150643908D01*
X108991076Y-150652371D01*
X108571385Y-151007493D01*
X108566848Y-151011331D01*
X108546157Y-151025693D01*
X108536777Y-151036776D01*
X108528899Y-151043443D01*
X108525693Y-151046156D01*
X108514702Y-151061990D01*
X108507498Y-151071378D01*
X108152379Y-151491066D01*
X108152378Y-151491065D01*
X108148356Y-151495817D01*
X108130734Y-151512858D01*
X108122920Y-151525880D01*
X108116425Y-151533557D01*
X108116425Y-151533558D01*
X108113107Y-151537479D01*
X108113102Y-151537486D01*
X108105290Y-151554060D01*
X108099457Y-151564984D01*
X107810117Y-152047217D01*
X107806541Y-152053176D01*
X107792754Y-152071224D01*
X107786279Y-152086946D01*
X107781494Y-152094922D01*
X107781494Y-152094923D01*
X107777525Y-152101537D01*
X107773186Y-152116705D01*
X107768630Y-152129807D01*
X107545034Y-152672825D01*
X107541996Y-152680204D01*
X107531962Y-152697766D01*
X107526998Y-152716625D01*
X107523849Y-152724274D01*
X107519572Y-152734661D01*
X107519568Y-152734675D01*
X107517997Y-152746810D01*
X107514942Y-152762437D01*
X107356203Y-153365645D01*
X107353887Y-153374444D01*
X107347004Y-153390560D01*
X107343866Y-153412524D01*
X107342044Y-153419448D01*
X107342042Y-153419460D01*
X107338215Y-153434002D01*
X107338214Y-153434008D01*
X107338252Y-153442447D01*
X107337007Y-153460530D01*
X107240720Y-154134542D01*
X107236224Y-154148812D01*
X107235148Y-154173542D01*
X107231646Y-154198057D01*
X107232223Y-154202845D01*
X107232995Y-154223055D01*
X107201804Y-154940464D01*
X107201214Y-154954040D01*
X107199500Y-154960438D01*
X107199500Y-154993463D01*
X107199383Y-154996155D01*
X107199383Y-154996157D01*
X107198065Y-155026471D01*
X107198775Y-155034567D01*
X107198194Y-155034617D01*
X107199500Y-155046530D01*
X107199500Y-162990772D01*
X107199383Y-162996158D01*
X107179858Y-163445218D01*
X107178729Y-163457368D01*
X107122653Y-163849899D01*
X107119816Y-163863920D01*
X107029105Y-164208621D01*
X107023848Y-164224277D01*
X106900929Y-164522796D01*
X106892598Y-164539381D01*
X106739202Y-164795040D01*
X106727533Y-164811339D01*
X106543452Y-165028888D01*
X106528889Y-165043451D01*
X106311338Y-165227533D01*
X106295038Y-165239202D01*
X106039376Y-165392599D01*
X106022792Y-165400930D01*
X105724278Y-165523847D01*
X105708622Y-165529104D01*
X105363911Y-165619817D01*
X105349890Y-165622654D01*
X104957370Y-165678729D01*
X104945220Y-165679858D01*
X104496160Y-165699383D01*
X104490774Y-165699500D01*
X101508324Y-165699500D01*
X101441285Y-165679815D01*
X101395530Y-165627011D01*
X101385586Y-165557853D01*
X101409056Y-165501190D01*
X101418422Y-165488678D01*
X101422336Y-165483450D01*
X101469491Y-165357022D01*
X101473146Y-165323023D01*
X101475499Y-165301144D01*
X101475500Y-165301129D01*
X101475500Y-164698870D01*
X101475499Y-164698855D01*
X101472645Y-164672318D01*
X101469491Y-164642978D01*
X101452497Y-164597416D01*
X101422337Y-164516552D01*
X101422335Y-164516549D01*
X101368623Y-164444798D01*
X101341472Y-164408528D01*
X101233450Y-164327664D01*
X101233448Y-164327663D01*
X101218663Y-164322148D01*
X101162731Y-164280275D01*
X101138316Y-164214810D01*
X101138000Y-164205967D01*
X101138000Y-155584043D01*
X101157685Y-155517004D01*
X101174319Y-155496362D01*
X103762312Y-152908369D01*
X106363317Y-150307363D01*
X106424638Y-150273880D01*
X106494330Y-150278864D01*
X106512990Y-150287655D01*
X106539712Y-150303084D01*
X106628856Y-150326970D01*
X106628858Y-150326970D01*
X106721142Y-150326970D01*
X106721144Y-150326970D01*
X106810288Y-150303084D01*
X106890212Y-150256939D01*
X106890217Y-150256933D01*
X106896658Y-150251992D01*
X106897665Y-150253304D01*
X106950568Y-150224410D01*
X106954208Y-150223845D01*
X106959701Y-150222646D01*
X107023790Y-150200219D01*
X107087882Y-150177793D01*
X107197150Y-150097150D01*
X107277793Y-149987882D01*
X107303059Y-149915677D01*
X107322646Y-149859701D01*
X107322646Y-149859699D01*
X107325500Y-149829269D01*
X107325500Y-149170730D01*
X107322646Y-149140300D01*
X107322646Y-149140298D01*
X107286422Y-149036778D01*
X107277793Y-149012118D01*
X107197150Y-148902850D01*
X107166295Y-148880078D01*
X107149700Y-148858222D01*
X107130496Y-148838621D01*
X107128877Y-148830795D01*
X107124044Y-148824430D01*
X107121900Y-148797070D01*
X107116342Y-148770200D01*
X107119211Y-148762740D01*
X107118587Y-148754774D01*
X107131574Y-148730599D01*
X107141426Y-148704988D01*
X107148671Y-148698775D01*
X107151654Y-148693224D01*
X107166636Y-148680287D01*
X107176614Y-148672975D01*
X107180226Y-148671628D01*
X107262440Y-148610083D01*
X107262819Y-148609806D01*
X107295117Y-148598133D01*
X107327264Y-148586143D01*
X107327908Y-148586283D01*
X107328529Y-148586059D01*
X107362000Y-148593698D01*
X107395538Y-148600994D01*
X107396037Y-148601467D01*
X107396647Y-148601607D01*
X107402728Y-148607814D01*
X107441650Y-148644730D01*
X107477424Y-148702728D01*
X107477427Y-148702732D01*
X107597268Y-148822573D01*
X107669695Y-148867247D01*
X107716419Y-148919195D01*
X107727640Y-148988158D01*
X107721639Y-149013739D01*
X107677353Y-149140301D01*
X107674500Y-149170730D01*
X107674500Y-149829269D01*
X107677353Y-149859699D01*
X107677353Y-149859701D01*
X107707096Y-149944698D01*
X107722207Y-149987882D01*
X107802850Y-150097150D01*
X107912118Y-150177793D01*
X107954845Y-150192744D01*
X108040299Y-150222646D01*
X108070730Y-150225500D01*
X108070734Y-150225500D01*
X108579270Y-150225500D01*
X108609699Y-150222646D01*
X108609701Y-150222646D01*
X108673790Y-150200219D01*
X108737882Y-150177793D01*
X108847150Y-150097150D01*
X108927793Y-149987882D01*
X108953059Y-149915677D01*
X108972646Y-149859701D01*
X108972646Y-149859699D01*
X108975500Y-149829269D01*
X108975500Y-149396544D01*
X108995185Y-149329505D01*
X109011819Y-149308863D01*
X118433863Y-139886819D01*
X118495186Y-139853334D01*
X118521544Y-139850500D01*
X121171142Y-139850500D01*
X121171144Y-139850500D01*
X121260288Y-139826614D01*
X121270912Y-139820480D01*
X121340212Y-139780470D01*
X121987819Y-139132863D01*
X122049142Y-139099378D01*
X122118834Y-139104362D01*
G37*
%TD.AperFunction*%
%TA.AperFunction,Conductor*%
G36*
X113718834Y-129054996D02*
G01*
X113774767Y-129096868D01*
X113799184Y-129162332D01*
X113799500Y-129171178D01*
X113799500Y-136647273D01*
X113799500Y-136752727D01*
X113807906Y-136784098D01*
X113826793Y-136854589D01*
X113831754Y-136863181D01*
X113879520Y-136945913D01*
X114954518Y-138020910D01*
X114954520Y-138020913D01*
X115029087Y-138095480D01*
X115062741Y-138114910D01*
X115120413Y-138148207D01*
X115222273Y-138175501D01*
X115222275Y-138175501D01*
X115335323Y-138175501D01*
X115335339Y-138175500D01*
X117725500Y-138175500D01*
X117792539Y-138195185D01*
X117838294Y-138247989D01*
X117849500Y-138299500D01*
X117849500Y-138699678D01*
X117864032Y-138772735D01*
X117864033Y-138772739D01*
X117864034Y-138772740D01*
X117919399Y-138855601D01*
X117966648Y-138887171D01*
X118002260Y-138910966D01*
X118002264Y-138910967D01*
X118075321Y-138925499D01*
X118075324Y-138925500D01*
X118172963Y-138925500D01*
X118240002Y-138945185D01*
X118285757Y-138997989D01*
X118295701Y-139067147D01*
X118266676Y-139130703D01*
X118207898Y-139168477D01*
X118205087Y-139169266D01*
X118189712Y-139173386D01*
X118189709Y-139173387D01*
X118109791Y-139219527D01*
X118109786Y-139219531D01*
X109436680Y-147892637D01*
X109375357Y-147926122D01*
X109305665Y-147921138D01*
X109249732Y-147879266D01*
X109225315Y-147813802D01*
X109224999Y-147804956D01*
X109224999Y-147701692D01*
X109224998Y-147701677D01*
X109214855Y-147602392D01*
X109161547Y-147441518D01*
X109161542Y-147441507D01*
X109072575Y-147297271D01*
X109072572Y-147297267D01*
X108952732Y-147177427D01*
X108952728Y-147177424D01*
X108808492Y-147088457D01*
X108808481Y-147088452D01*
X108647606Y-147035144D01*
X108548322Y-147025000D01*
X108525000Y-147025000D01*
X108525000Y-147876000D01*
X108505315Y-147943039D01*
X108452511Y-147988794D01*
X108401000Y-148000000D01*
X108149000Y-148000000D01*
X108081961Y-147980315D01*
X108036206Y-147927511D01*
X108025000Y-147876000D01*
X108025000Y-147024999D01*
X108001693Y-147025000D01*
X108001674Y-147025001D01*
X107902392Y-147035144D01*
X107741518Y-147088452D01*
X107741507Y-147088457D01*
X107597271Y-147177424D01*
X107597267Y-147177427D01*
X107477424Y-147297270D01*
X107441649Y-147355270D01*
X107430791Y-147365035D01*
X107423793Y-147377852D01*
X107405336Y-147387929D01*
X107389701Y-147401993D01*
X107375287Y-147404338D01*
X107362470Y-147411337D01*
X107341493Y-147409836D01*
X107320738Y-147413214D01*
X107306090Y-147407305D01*
X107292778Y-147406353D01*
X107261802Y-147389438D01*
X107175190Y-147324601D01*
X107133318Y-147268667D01*
X107125500Y-147225334D01*
X107125500Y-134112254D01*
X107145185Y-134045215D01*
X107161814Y-134024578D01*
X111733068Y-129453323D01*
X111794389Y-129419840D01*
X111864081Y-129424824D01*
X111877042Y-129430521D01*
X111943196Y-129464229D01*
X111943198Y-129464229D01*
X111943201Y-129464231D01*
X112031678Y-129492979D01*
X112160339Y-129534784D01*
X112385838Y-129570500D01*
X112385843Y-129570500D01*
X112614162Y-129570500D01*
X112839660Y-129534784D01*
X112839814Y-129534734D01*
X113056799Y-129464231D01*
X113260228Y-129360579D01*
X113444937Y-129226379D01*
X113587819Y-129083497D01*
X113649142Y-129050012D01*
X113718834Y-129054996D01*
G37*
%TD.AperFunction*%
%TA.AperFunction,Conductor*%
G36*
X88721654Y-124108741D02*
G01*
X88776550Y-124151964D01*
X88799363Y-124218004D01*
X88799500Y-124223832D01*
X88799500Y-124492787D01*
X88798123Y-124539609D01*
X88799500Y-124545427D01*
X88799500Y-124551407D01*
X88811148Y-124594881D01*
X88812039Y-124598412D01*
X88822407Y-124642221D01*
X88824543Y-124647838D01*
X88826789Y-124653258D01*
X88826792Y-124653263D01*
X88826793Y-124653266D01*
X88850212Y-124693829D01*
X88872429Y-124735064D01*
X88876530Y-124739414D01*
X88879521Y-124744594D01*
X88911336Y-124776408D01*
X88913876Y-124779023D01*
X92065721Y-128121887D01*
X92097389Y-128184167D01*
X92099500Y-128206952D01*
X92099500Y-135282744D01*
X92079815Y-135349783D01*
X92063181Y-135370425D01*
X88520424Y-138913181D01*
X88459101Y-138946666D01*
X88432743Y-138949500D01*
X87955982Y-138949500D01*
X87875019Y-138962323D01*
X87862196Y-138964354D01*
X87749158Y-139021950D01*
X87749157Y-139021951D01*
X87749152Y-139021954D01*
X87659454Y-139111652D01*
X87659449Y-139111659D01*
X87601455Y-139225478D01*
X87553481Y-139276273D01*
X87485660Y-139293068D01*
X87419525Y-139270530D01*
X87376074Y-139215815D01*
X87371894Y-139203777D01*
X87338781Y-139089801D01*
X87255185Y-138948447D01*
X87255178Y-138948438D01*
X87139061Y-138832321D01*
X87139052Y-138832314D01*
X86997696Y-138748717D01*
X86997693Y-138748716D01*
X86839995Y-138702900D01*
X86839989Y-138702899D01*
X86803149Y-138700000D01*
X86475000Y-138700000D01*
X86475000Y-139376000D01*
X86455315Y-139443039D01*
X86402511Y-139488794D01*
X86351000Y-139500000D01*
X86099000Y-139500000D01*
X86031961Y-139480315D01*
X85986206Y-139427511D01*
X85975000Y-139376000D01*
X85975000Y-138700000D01*
X85737000Y-138700000D01*
X85669961Y-138680315D01*
X85624206Y-138627511D01*
X85613000Y-138576000D01*
X85613000Y-137609044D01*
X85632685Y-137542005D01*
X85649319Y-137521363D01*
X86408863Y-136761819D01*
X86470186Y-136728334D01*
X86496544Y-136725500D01*
X86929270Y-136725500D01*
X86959699Y-136722646D01*
X86959701Y-136722646D01*
X87027879Y-136698789D01*
X87087882Y-136677793D01*
X87197150Y-136597150D01*
X87259259Y-136512994D01*
X87314905Y-136470745D01*
X87384561Y-136465286D01*
X87446111Y-136498353D01*
X87477413Y-136549737D01*
X87481981Y-136564397D01*
X87569927Y-136709877D01*
X87690122Y-136830072D01*
X87835604Y-136918019D01*
X87835603Y-136918019D01*
X87997894Y-136968590D01*
X87997893Y-136968590D01*
X88068408Y-136974998D01*
X88068426Y-136974999D01*
X88575000Y-136974999D01*
X88581581Y-136974999D01*
X88652102Y-136968591D01*
X88652107Y-136968590D01*
X88814396Y-136918018D01*
X88959877Y-136830072D01*
X89080072Y-136709877D01*
X89168019Y-136564395D01*
X89218590Y-136402106D01*
X89225000Y-136331572D01*
X89225000Y-136250000D01*
X88575000Y-136250000D01*
X88575000Y-136974999D01*
X88068426Y-136974999D01*
X88074999Y-136974998D01*
X88075000Y-136974998D01*
X88075000Y-136124000D01*
X88094685Y-136056961D01*
X88147489Y-136011206D01*
X88199000Y-136000000D01*
X88325000Y-136000000D01*
X88325000Y-135874000D01*
X88344685Y-135806961D01*
X88397489Y-135761206D01*
X88449000Y-135750000D01*
X89224999Y-135750000D01*
X89224999Y-135668417D01*
X89218591Y-135597897D01*
X89218590Y-135597892D01*
X89168018Y-135435603D01*
X89080072Y-135290122D01*
X88959878Y-135169928D01*
X88953974Y-135165303D01*
X88955004Y-135163987D01*
X88913959Y-135119160D01*
X88902126Y-135050300D01*
X88923490Y-134996123D01*
X88923449Y-134996101D01*
X88923647Y-134995725D01*
X88925533Y-134990944D01*
X88927793Y-134987882D01*
X88950219Y-134923790D01*
X88972646Y-134859701D01*
X88972646Y-134859699D01*
X88975500Y-134829269D01*
X88975500Y-134170730D01*
X88972646Y-134140300D01*
X88972646Y-134140298D01*
X88927793Y-134012119D01*
X88927792Y-134012117D01*
X88847150Y-133902850D01*
X88737882Y-133822207D01*
X88737880Y-133822206D01*
X88609700Y-133777353D01*
X88579270Y-133774500D01*
X88579266Y-133774500D01*
X88070734Y-133774500D01*
X88070730Y-133774500D01*
X88040300Y-133777353D01*
X88040298Y-133777353D01*
X87912119Y-133822206D01*
X87912117Y-133822207D01*
X87802850Y-133902850D01*
X87722207Y-134012117D01*
X87722206Y-134012119D01*
X87677353Y-134140298D01*
X87677353Y-134140300D01*
X87674500Y-134170730D01*
X87674500Y-134453456D01*
X87665855Y-134482896D01*
X87659332Y-134512883D01*
X87655577Y-134517898D01*
X87654815Y-134520495D01*
X87638181Y-134541137D01*
X87537181Y-134642137D01*
X87475858Y-134675622D01*
X87406166Y-134670638D01*
X87350233Y-134628766D01*
X87325816Y-134563302D01*
X87325500Y-134554456D01*
X87325500Y-134170730D01*
X87322646Y-134140300D01*
X87322646Y-134140298D01*
X87277793Y-134012119D01*
X87277792Y-134012117D01*
X87197150Y-133902850D01*
X87087882Y-133822207D01*
X87087880Y-133822206D01*
X86959700Y-133777353D01*
X86929270Y-133774500D01*
X86929266Y-133774500D01*
X86630898Y-133774500D01*
X86563859Y-133754815D01*
X86518104Y-133702011D01*
X86508160Y-133632853D01*
X86537185Y-133569297D01*
X86543217Y-133562819D01*
X87800475Y-132305562D01*
X87849911Y-132219937D01*
X87875500Y-132124436D01*
X87875500Y-132025564D01*
X87875500Y-129613229D01*
X87895185Y-129546190D01*
X87947989Y-129500435D01*
X87961179Y-129495299D01*
X88056799Y-129464231D01*
X88260228Y-129360579D01*
X88444937Y-129226379D01*
X88606379Y-129064937D01*
X88740579Y-128880228D01*
X88844231Y-128676799D01*
X88914784Y-128459660D01*
X88916955Y-128445952D01*
X88950500Y-128234162D01*
X88950500Y-128005837D01*
X88914784Y-127780339D01*
X88844229Y-127563196D01*
X88740578Y-127359771D01*
X88606379Y-127175063D01*
X88444937Y-127013621D01*
X88260228Y-126879421D01*
X88056803Y-126775770D01*
X87839660Y-126705215D01*
X87614162Y-126669500D01*
X87614157Y-126669500D01*
X87385843Y-126669500D01*
X87385838Y-126669500D01*
X87160339Y-126705215D01*
X86943196Y-126775770D01*
X86739771Y-126879421D01*
X86555061Y-127013622D01*
X86393622Y-127175061D01*
X86259421Y-127359771D01*
X86155770Y-127563196D01*
X86085215Y-127780339D01*
X86049500Y-128005837D01*
X86049500Y-128234162D01*
X86085215Y-128459660D01*
X86155770Y-128676803D01*
X86228947Y-128820419D01*
X86259421Y-128880228D01*
X86393621Y-129064937D01*
X86555063Y-129226379D01*
X86739772Y-129360579D01*
X86839548Y-129411417D01*
X86943200Y-129464231D01*
X86943206Y-129464233D01*
X87005934Y-129484614D01*
X87038817Y-129495298D01*
X87096493Y-129534734D01*
X87123692Y-129599093D01*
X87124500Y-129613229D01*
X87124500Y-131868101D01*
X87104815Y-131935140D01*
X87088181Y-131955782D01*
X82180782Y-136863181D01*
X82119459Y-136896666D01*
X82093101Y-136899500D01*
X81806381Y-136899500D01*
X81739342Y-136879815D01*
X81733496Y-136875818D01*
X81602997Y-136781006D01*
X81602996Y-136781005D01*
X81602994Y-136781004D01*
X81547496Y-136752726D01*
X81441639Y-136698788D01*
X81441636Y-136698787D01*
X81269410Y-136642829D01*
X81137733Y-136621973D01*
X81074598Y-136592044D01*
X81037667Y-136532732D01*
X81038665Y-136462869D01*
X81077275Y-136404637D01*
X81141239Y-136376523D01*
X81157131Y-136375500D01*
X81924676Y-136375500D01*
X81924677Y-136375499D01*
X81997740Y-136360966D01*
X82080601Y-136305601D01*
X82135966Y-136222740D01*
X82150500Y-136149674D01*
X82150500Y-134300326D01*
X82150500Y-134300323D01*
X82150499Y-134300321D01*
X82135967Y-134227264D01*
X82135966Y-134227260D01*
X82098197Y-134170734D01*
X82080601Y-134144399D01*
X81997740Y-134089034D01*
X81997739Y-134089033D01*
X81997735Y-134089032D01*
X81924677Y-134074500D01*
X81924674Y-134074500D01*
X81524500Y-134074500D01*
X81457461Y-134054815D01*
X81411706Y-134002011D01*
X81400500Y-133950500D01*
X81400500Y-132715934D01*
X81420185Y-132648895D01*
X81436819Y-132628253D01*
X82196971Y-131868101D01*
X85320480Y-128744592D01*
X85373207Y-128653267D01*
X85400500Y-128551406D01*
X85400500Y-128445952D01*
X85400500Y-127224784D01*
X85420185Y-127157745D01*
X85438980Y-127134993D01*
X88589985Y-124134037D01*
X88652104Y-124102059D01*
X88721654Y-124108741D01*
G37*
%TD.AperFunction*%
%TA.AperFunction,Conductor*%
G36*
X108518783Y-91969364D02*
G01*
X108574716Y-92011236D01*
X108599133Y-92076700D01*
X108599449Y-92085546D01*
X108599449Y-100496093D01*
X108599448Y-100496093D01*
X108606279Y-100521581D01*
X108606280Y-100521586D01*
X108623333Y-100585234D01*
X108623334Y-100585235D01*
X108669476Y-100665157D01*
X108669478Y-100665160D01*
X108669479Y-100665161D01*
X109284788Y-101280470D01*
X109362815Y-101325519D01*
X109364712Y-101326614D01*
X109453856Y-101350500D01*
X109453857Y-101350500D01*
X109546144Y-101350500D01*
X117977166Y-101350500D01*
X118044205Y-101370185D01*
X118089960Y-101422989D01*
X118099904Y-101492147D01*
X118077484Y-101547385D01*
X118016006Y-101632002D01*
X117934587Y-101791795D01*
X117886612Y-101842591D01*
X117824102Y-101859500D01*
X116378081Y-101859500D01*
X116345988Y-101855275D01*
X116324436Y-101849500D01*
X116225564Y-101849500D01*
X116177813Y-101862295D01*
X116130061Y-101875090D01*
X116130060Y-101875091D01*
X116044440Y-101924523D01*
X116044435Y-101924527D01*
X114699527Y-103269435D01*
X114699525Y-103269437D01*
X114699525Y-103269438D01*
X114650090Y-103355062D01*
X114650090Y-103355063D01*
X114628893Y-103434174D01*
X114627197Y-103440503D01*
X114627194Y-103440513D01*
X114624500Y-103450563D01*
X114624500Y-106818101D01*
X114604815Y-106885140D01*
X114588181Y-106905782D01*
X112199526Y-109294436D01*
X112150091Y-109380059D01*
X112150091Y-109380060D01*
X112150090Y-109380062D01*
X112124500Y-109475565D01*
X112124500Y-109475567D01*
X112124500Y-111386770D01*
X112104815Y-111453809D01*
X112052011Y-111499564D01*
X112038824Y-111504698D01*
X112003004Y-111516337D01*
X111943196Y-111535770D01*
X111739771Y-111639421D01*
X111555061Y-111773622D01*
X111393622Y-111935061D01*
X111259421Y-112119771D01*
X111155770Y-112323196D01*
X111085215Y-112540339D01*
X111049500Y-112765837D01*
X111049500Y-112994162D01*
X111085215Y-113219660D01*
X111155770Y-113436803D01*
X111230378Y-113583228D01*
X111259421Y-113640228D01*
X111393621Y-113824937D01*
X111555063Y-113986379D01*
X111739772Y-114120579D01*
X111835884Y-114169550D01*
X111943196Y-114224229D01*
X111943198Y-114224229D01*
X111943201Y-114224231D01*
X112059592Y-114262049D01*
X112160339Y-114294784D01*
X112385838Y-114330500D01*
X112385843Y-114330500D01*
X112614162Y-114330500D01*
X112839660Y-114294784D01*
X113056799Y-114224231D01*
X113260228Y-114120579D01*
X113444937Y-113986379D01*
X113587819Y-113843497D01*
X113649142Y-113810012D01*
X113718834Y-113814996D01*
X113774767Y-113856868D01*
X113799184Y-113922332D01*
X113799500Y-113931178D01*
X113799500Y-125504022D01*
X113792456Y-125528010D01*
X113789487Y-125552837D01*
X113782781Y-125560957D01*
X113779815Y-125571061D01*
X113760922Y-125587431D01*
X113745001Y-125606714D01*
X113734968Y-125609920D01*
X113727011Y-125616816D01*
X113702266Y-125620373D01*
X113678449Y-125627987D01*
X113662546Y-125626085D01*
X113657853Y-125626760D01*
X113643404Y-125623796D01*
X113628156Y-125619710D01*
X113616753Y-125616056D01*
X113591130Y-125606457D01*
X113591124Y-125606456D01*
X113581851Y-125605557D01*
X113581851Y-125605556D01*
X113571632Y-125604565D01*
X113552727Y-125599500D01*
X113519376Y-125599500D01*
X113513403Y-125598921D01*
X113513399Y-125598921D01*
X113511616Y-125598748D01*
X113486169Y-125596280D01*
X113476975Y-125597813D01*
X113456591Y-125599500D01*
X106447271Y-125599500D01*
X106418845Y-125607117D01*
X106348995Y-125605454D01*
X106291133Y-125566291D01*
X106263630Y-125502062D01*
X106275217Y-125433160D01*
X106299069Y-125399664D01*
X107900470Y-123798264D01*
X107946614Y-123718340D01*
X107970500Y-123629195D01*
X107970500Y-123536908D01*
X107970500Y-102927525D01*
X108449500Y-102927525D01*
X108449500Y-103072475D01*
X108485625Y-103207294D01*
X108487017Y-103212488D01*
X108559488Y-103338011D01*
X108559493Y-103338017D01*
X108613181Y-103391705D01*
X108646666Y-103453028D01*
X108649500Y-103479386D01*
X108649500Y-104753856D01*
X108649500Y-106953856D01*
X108649500Y-107046144D01*
X108670361Y-107124000D01*
X108673387Y-107135290D01*
X108673388Y-107135293D01*
X108719526Y-107215205D01*
X108719529Y-107215209D01*
X108719531Y-107215212D01*
X108784788Y-107280469D01*
X108784791Y-107280470D01*
X108784794Y-107280473D01*
X108864706Y-107326611D01*
X108864707Y-107326611D01*
X108864712Y-107326614D01*
X108953856Y-107350500D01*
X109943892Y-107350500D01*
X110010931Y-107370185D01*
X110056686Y-107422989D01*
X110060073Y-107431166D01*
X110078371Y-107480225D01*
X110078372Y-107480226D01*
X110160313Y-107589687D01*
X110269774Y-107671628D01*
X110397886Y-107719412D01*
X110454515Y-107725500D01*
X110995484Y-107725499D01*
X111052114Y-107719412D01*
X111180226Y-107671628D01*
X111261804Y-107610559D01*
X111327264Y-107586143D01*
X111395538Y-107600994D01*
X111441650Y-107644730D01*
X111477424Y-107702728D01*
X111477427Y-107702732D01*
X111597267Y-107822572D01*
X111597271Y-107822575D01*
X111741507Y-107911542D01*
X111741518Y-107911547D01*
X111902393Y-107964855D01*
X112001683Y-107974999D01*
X112525000Y-107974999D01*
X112548308Y-107974999D01*
X112548322Y-107974998D01*
X112647607Y-107964855D01*
X112808481Y-107911547D01*
X112808492Y-107911542D01*
X112952728Y-107822575D01*
X112952732Y-107822572D01*
X113072572Y-107702732D01*
X113072575Y-107702728D01*
X113161542Y-107558492D01*
X113161547Y-107558481D01*
X113214855Y-107397606D01*
X113224999Y-107298322D01*
X113225000Y-107298309D01*
X113225000Y-107250000D01*
X112525000Y-107250000D01*
X112525000Y-107974999D01*
X112001683Y-107974999D01*
X112025000Y-107974998D01*
X112025000Y-107124000D01*
X112044685Y-107056961D01*
X112097489Y-107011206D01*
X112149000Y-107000000D01*
X112275000Y-107000000D01*
X112275000Y-106874000D01*
X112294685Y-106806961D01*
X112347489Y-106761206D01*
X112399000Y-106750000D01*
X113224999Y-106750000D01*
X113224999Y-106701692D01*
X113224998Y-106701677D01*
X113214855Y-106602392D01*
X113161547Y-106441518D01*
X113161542Y-106441507D01*
X113072575Y-106297271D01*
X113072572Y-106297267D01*
X112972504Y-106197199D01*
X112939019Y-106135876D01*
X112944003Y-106066184D01*
X112985875Y-106010251D01*
X113021181Y-105991812D01*
X113119119Y-105959358D01*
X113119124Y-105959356D01*
X113268345Y-105867315D01*
X113392315Y-105743345D01*
X113484356Y-105594124D01*
X113484358Y-105594119D01*
X113539505Y-105427697D01*
X113539506Y-105427690D01*
X113549999Y-105324986D01*
X113550000Y-105324973D01*
X113550000Y-105050000D01*
X112674000Y-105050000D01*
X112606961Y-105030315D01*
X112561206Y-104977511D01*
X112550000Y-104926000D01*
X112550000Y-104800000D01*
X112424000Y-104800000D01*
X112356961Y-104780315D01*
X112311206Y-104727511D01*
X112300000Y-104676000D01*
X112300000Y-104550000D01*
X112800000Y-104550000D01*
X113549999Y-104550000D01*
X113549999Y-104275028D01*
X113549998Y-104275013D01*
X113539505Y-104172302D01*
X113484358Y-104005880D01*
X113484356Y-104005875D01*
X113392315Y-103856654D01*
X113268345Y-103732684D01*
X113119124Y-103640643D01*
X113119119Y-103640641D01*
X112952697Y-103585494D01*
X112952690Y-103585493D01*
X112849986Y-103575000D01*
X112800000Y-103575000D01*
X112800000Y-104550000D01*
X112300000Y-104550000D01*
X112300000Y-103575000D01*
X112299999Y-103574999D01*
X112250029Y-103575000D01*
X112250011Y-103575001D01*
X112147302Y-103585494D01*
X111980880Y-103640641D01*
X111980875Y-103640643D01*
X111831654Y-103732684D01*
X111707684Y-103856654D01*
X111615643Y-104005875D01*
X111615642Y-104005878D01*
X111585069Y-104098141D01*
X111545296Y-104155585D01*
X111480780Y-104182408D01*
X111412004Y-104170093D01*
X111360804Y-104122549D01*
X111351181Y-104102468D01*
X111343798Y-104082673D01*
X111343793Y-104082664D01*
X111257547Y-103967455D01*
X111257544Y-103967452D01*
X111142335Y-103881206D01*
X111142328Y-103881202D01*
X111007486Y-103830910D01*
X111007485Y-103830909D01*
X111007483Y-103830909D01*
X110947873Y-103824500D01*
X110947863Y-103824500D01*
X110352129Y-103824500D01*
X110352123Y-103824501D01*
X110292516Y-103830908D01*
X110157671Y-103881202D01*
X110157664Y-103881206D01*
X110042455Y-103967452D01*
X110042452Y-103967455D01*
X109956206Y-104082664D01*
X109956202Y-104082671D01*
X109905908Y-104217517D01*
X109899501Y-104277116D01*
X109899500Y-104277135D01*
X109899500Y-104325500D01*
X109879815Y-104392539D01*
X109827011Y-104438294D01*
X109775500Y-104449500D01*
X109474500Y-104449500D01*
X109407461Y-104429815D01*
X109361706Y-104377011D01*
X109350500Y-104325500D01*
X109350500Y-103479386D01*
X109370185Y-103412347D01*
X109386819Y-103391705D01*
X109403025Y-103375499D01*
X109440509Y-103338015D01*
X109512984Y-103212485D01*
X109550500Y-103072475D01*
X109550500Y-102927525D01*
X109512984Y-102787515D01*
X109440509Y-102661985D01*
X109338015Y-102559491D01*
X109338013Y-102559490D01*
X109338011Y-102559488D01*
X109212488Y-102487017D01*
X109212489Y-102487017D01*
X109201006Y-102483940D01*
X109072475Y-102449500D01*
X108927525Y-102449500D01*
X108798993Y-102483940D01*
X108787511Y-102487017D01*
X108661988Y-102559488D01*
X108661982Y-102559493D01*
X108559493Y-102661982D01*
X108559488Y-102661988D01*
X108487017Y-102787511D01*
X108487016Y-102787515D01*
X108449500Y-102927525D01*
X107970500Y-102927525D01*
X107970500Y-92354725D01*
X107990185Y-92287686D01*
X108042989Y-92241931D01*
X108047048Y-92240164D01*
X108117594Y-92210943D01*
X108117595Y-92210942D01*
X108117598Y-92210941D01*
X108289655Y-92095977D01*
X108322988Y-92062644D01*
X108387768Y-91997865D01*
X108449091Y-91964380D01*
X108518783Y-91969364D01*
G37*
%TD.AperFunction*%
%TA.AperFunction,Conductor*%
G36*
X111286916Y-89876943D02*
G01*
X111384188Y-89916997D01*
X111518137Y-89972153D01*
X111532442Y-89979149D01*
X111539400Y-89983124D01*
X111543078Y-89985226D01*
X111553939Y-89988083D01*
X111569586Y-89993337D01*
X111579978Y-89997617D01*
X111592127Y-89999190D01*
X111607750Y-90002244D01*
X112183465Y-90153747D01*
X112199588Y-90160635D01*
X112221569Y-90163775D01*
X112243035Y-90169424D01*
X112251476Y-90169385D01*
X112269551Y-90170629D01*
X112903464Y-90261189D01*
X112917735Y-90265686D01*
X112942467Y-90266761D01*
X112966979Y-90270263D01*
X112969858Y-90269915D01*
X112971752Y-90269688D01*
X112991979Y-90268913D01*
X113679040Y-90298785D01*
X113685438Y-90300500D01*
X113718467Y-90300500D01*
X113751472Y-90301935D01*
X113751480Y-90301933D01*
X113759567Y-90301225D01*
X113759617Y-90301805D01*
X113771530Y-90300500D01*
X116445533Y-90300500D01*
X116512572Y-90320185D01*
X116558327Y-90372989D01*
X116568271Y-90442147D01*
X116539246Y-90505703D01*
X116503285Y-90533467D01*
X116503517Y-90533868D01*
X116500540Y-90535586D01*
X116500379Y-90535710D01*
X116500209Y-90535794D01*
X116500001Y-90535897D01*
X116499994Y-90535901D01*
X116064952Y-90826588D01*
X115671572Y-91171572D01*
X115326588Y-91564952D01*
X115035901Y-91999994D01*
X115035894Y-92000007D01*
X114804482Y-92469263D01*
X114804478Y-92469273D01*
X114636300Y-92964711D01*
X114636295Y-92964731D01*
X114541657Y-93440511D01*
X114534221Y-93477895D01*
X114500000Y-94000000D01*
X114526000Y-94396685D01*
X114534221Y-94522103D01*
X114534223Y-94522115D01*
X114636295Y-95035268D01*
X114636300Y-95035288D01*
X114804478Y-95530726D01*
X114804482Y-95530736D01*
X115035894Y-95999992D01*
X115035901Y-96000005D01*
X115326588Y-96435047D01*
X115671572Y-96828427D01*
X115978765Y-97097827D01*
X116064954Y-97173413D01*
X116500000Y-97464102D01*
X116675198Y-97550500D01*
X116969263Y-97695517D01*
X116969273Y-97695521D01*
X117464711Y-97863699D01*
X117464715Y-97863700D01*
X117464724Y-97863703D01*
X117977895Y-97965779D01*
X118500000Y-98000000D01*
X119022105Y-97965779D01*
X119535276Y-97863703D01*
X119647819Y-97825500D01*
X120030726Y-97695521D01*
X120030736Y-97695517D01*
X120078744Y-97671842D01*
X120500000Y-97464102D01*
X120935046Y-97173413D01*
X121328427Y-96828427D01*
X121673413Y-96435046D01*
X121964102Y-96000000D01*
X121964284Y-95999630D01*
X121964365Y-95999541D01*
X121966132Y-95996483D01*
X121966816Y-95996877D01*
X122011583Y-95948208D01*
X122079177Y-95930521D01*
X122145603Y-95952184D01*
X122189772Y-96006322D01*
X122199500Y-96054466D01*
X122199500Y-100904456D01*
X122179815Y-100971495D01*
X122127011Y-101017250D01*
X122057853Y-101027194D01*
X121994297Y-100998169D01*
X121987819Y-100992137D01*
X121715213Y-100719531D01*
X121715208Y-100719527D01*
X121635290Y-100673387D01*
X121635283Y-100673384D01*
X121620786Y-100669499D01*
X121620786Y-100669500D01*
X121583464Y-100659500D01*
X121546144Y-100649500D01*
X121546143Y-100649500D01*
X109696544Y-100649500D01*
X109629505Y-100629815D01*
X109608863Y-100613181D01*
X109336768Y-100341086D01*
X109322064Y-100314158D01*
X109305472Y-100288340D01*
X109304580Y-100282139D01*
X109303283Y-100279763D01*
X109300449Y-100253405D01*
X109300449Y-100090220D01*
X109320134Y-100023181D01*
X109372938Y-99977426D01*
X109442096Y-99967482D01*
X109498763Y-99990956D01*
X109502554Y-99993794D01*
X109502559Y-99993797D01*
X109637405Y-100044091D01*
X109637404Y-100044091D01*
X109644332Y-100044835D01*
X109697015Y-100050500D01*
X110892760Y-100050499D01*
X110952371Y-100044091D01*
X111087219Y-99993796D01*
X111202434Y-99907546D01*
X111288684Y-99792331D01*
X111338979Y-99657483D01*
X111345388Y-99597873D01*
X111345387Y-99528687D01*
X111365071Y-99461651D01*
X111417874Y-99415895D01*
X111487032Y-99405951D01*
X111550588Y-99434975D01*
X111587316Y-99490364D01*
X111590132Y-99499029D01*
X111683029Y-99681350D01*
X111683035Y-99681359D01*
X111715411Y-99725921D01*
X111715412Y-99725922D01*
X112394888Y-99046446D01*
X112394888Y-99052661D01*
X112422147Y-99154394D01*
X112474808Y-99245606D01*
X112549282Y-99320080D01*
X112640494Y-99372741D01*
X112742227Y-99400000D01*
X112748441Y-99400000D01*
X112068964Y-100079474D01*
X112113538Y-100111859D01*
X112295856Y-100204755D01*
X112490470Y-100267990D01*
X112692571Y-100300000D01*
X112897205Y-100300000D01*
X113099305Y-100267990D01*
X113293919Y-100204755D01*
X113476237Y-100111859D01*
X113520809Y-100079474D01*
X112841335Y-99400000D01*
X112847549Y-99400000D01*
X112949282Y-99372741D01*
X113040494Y-99320080D01*
X113114968Y-99245606D01*
X113167629Y-99154394D01*
X113194888Y-99052661D01*
X113194888Y-99046448D01*
X113874362Y-99725922D01*
X113874362Y-99725921D01*
X113906747Y-99681349D01*
X113999643Y-99499031D01*
X114062878Y-99304417D01*
X114094888Y-99102317D01*
X114094888Y-98897682D01*
X114062878Y-98695582D01*
X113999643Y-98500968D01*
X113906747Y-98318650D01*
X113874362Y-98274077D01*
X113874362Y-98274076D01*
X113194888Y-98953551D01*
X113194888Y-98947339D01*
X113167629Y-98845606D01*
X113114968Y-98754394D01*
X113040494Y-98679920D01*
X112949282Y-98627259D01*
X112847549Y-98600000D01*
X112841334Y-98600000D01*
X113520810Y-97920524D01*
X113520809Y-97920523D01*
X113476247Y-97888147D01*
X113476238Y-97888141D01*
X113293919Y-97795244D01*
X113099305Y-97732009D01*
X112897205Y-97700000D01*
X112692571Y-97700000D01*
X112490470Y-97732009D01*
X112295856Y-97795244D01*
X112113532Y-97888143D01*
X112068965Y-97920523D01*
X112068965Y-97920524D01*
X112748442Y-98600000D01*
X112742227Y-98600000D01*
X112640494Y-98627259D01*
X112549282Y-98679920D01*
X112474808Y-98754394D01*
X112422147Y-98845606D01*
X112394888Y-98947339D01*
X112394888Y-98953553D01*
X111715412Y-98274077D01*
X111715411Y-98274077D01*
X111683031Y-98318644D01*
X111590132Y-98500969D01*
X111587318Y-98509632D01*
X111547879Y-98567307D01*
X111483521Y-98594505D01*
X111414674Y-98582590D01*
X111363199Y-98535345D01*
X111345387Y-98471313D01*
X111345387Y-98402129D01*
X111345386Y-98402123D01*
X111338979Y-98342516D01*
X111288685Y-98207671D01*
X111288681Y-98207664D01*
X111202435Y-98092455D01*
X111202432Y-98092452D01*
X111168498Y-98067049D01*
X111087223Y-98006206D01*
X111087216Y-98006202D01*
X110952370Y-97955908D01*
X110952371Y-97955908D01*
X110892771Y-97949501D01*
X110892769Y-97949500D01*
X110892761Y-97949500D01*
X110892753Y-97949500D01*
X110819388Y-97949500D01*
X110752349Y-97929815D01*
X110706594Y-97877011D01*
X110695388Y-97825500D01*
X110695388Y-95147366D01*
X110715073Y-95080327D01*
X110731703Y-95059689D01*
X111029574Y-94761817D01*
X111090897Y-94728333D01*
X111117255Y-94725499D01*
X111495481Y-94725499D01*
X111495484Y-94725499D01*
X111552114Y-94719412D01*
X111680226Y-94671628D01*
X111761804Y-94610559D01*
X111827264Y-94586143D01*
X111895538Y-94600994D01*
X111941650Y-94644730D01*
X111977424Y-94702728D01*
X111977427Y-94702732D01*
X112097267Y-94822572D01*
X112097271Y-94822575D01*
X112241507Y-94911542D01*
X112241518Y-94911547D01*
X112402393Y-94964855D01*
X112501683Y-94974999D01*
X113025000Y-94974999D01*
X113048308Y-94974999D01*
X113048322Y-94974998D01*
X113147607Y-94964855D01*
X113308481Y-94911547D01*
X113308492Y-94911542D01*
X113452728Y-94822575D01*
X113452732Y-94822572D01*
X113572572Y-94702732D01*
X113572575Y-94702728D01*
X113661542Y-94558492D01*
X113661547Y-94558481D01*
X113714855Y-94397606D01*
X113724999Y-94298322D01*
X113725000Y-94298309D01*
X113725000Y-94250000D01*
X113025000Y-94250000D01*
X113025000Y-94974999D01*
X112501683Y-94974999D01*
X112525000Y-94974998D01*
X112525000Y-93386426D01*
X113025000Y-93386426D01*
X113025000Y-93750000D01*
X113724999Y-93750000D01*
X113724999Y-93701692D01*
X113724998Y-93701677D01*
X113714855Y-93602392D01*
X113661547Y-93441518D01*
X113661542Y-93441507D01*
X113572577Y-93297275D01*
X113568178Y-93291711D01*
X113542036Y-93226916D01*
X113555074Y-93158274D01*
X113600346Y-93109258D01*
X113668343Y-93067317D01*
X113792315Y-92943345D01*
X113884356Y-92794124D01*
X113884358Y-92794119D01*
X113939505Y-92627697D01*
X113939506Y-92627690D01*
X113949999Y-92524986D01*
X113950000Y-92524973D01*
X113950000Y-92250000D01*
X113200000Y-92250000D01*
X113200000Y-93231000D01*
X113194380Y-93250137D01*
X113193683Y-93270073D01*
X113184737Y-93282976D01*
X113180315Y-93298039D01*
X113165241Y-93311100D01*
X113153877Y-93327494D01*
X113129825Y-93341788D01*
X113127511Y-93343794D01*
X113125839Y-93344157D01*
X113123537Y-93345526D01*
X113025000Y-93386426D01*
X112525000Y-93386426D01*
X112525000Y-93019000D01*
X112544685Y-92951961D01*
X112597489Y-92906206D01*
X112649000Y-92895000D01*
X112700000Y-92895000D01*
X112700000Y-91750000D01*
X113200000Y-91750000D01*
X113949999Y-91750000D01*
X113949999Y-91475028D01*
X113949998Y-91475013D01*
X113939505Y-91372302D01*
X113884358Y-91205880D01*
X113884356Y-91205875D01*
X113792315Y-91056654D01*
X113668345Y-90932684D01*
X113519124Y-90840643D01*
X113519119Y-90840641D01*
X113352697Y-90785494D01*
X113352690Y-90785493D01*
X113249986Y-90775000D01*
X113200000Y-90775000D01*
X113200000Y-91750000D01*
X112700000Y-91750000D01*
X112700000Y-90775000D01*
X112699999Y-90774999D01*
X112650029Y-90775000D01*
X112650011Y-90775001D01*
X112547302Y-90785494D01*
X112380880Y-90840641D01*
X112380875Y-90840643D01*
X112231654Y-90932684D01*
X112107684Y-91056654D01*
X112015643Y-91205875D01*
X112015642Y-91205878D01*
X111985069Y-91298141D01*
X111945296Y-91355585D01*
X111880780Y-91382408D01*
X111812004Y-91370093D01*
X111760804Y-91322549D01*
X111751181Y-91302468D01*
X111743798Y-91282673D01*
X111743793Y-91282664D01*
X111657547Y-91167455D01*
X111657544Y-91167452D01*
X111542335Y-91081206D01*
X111542332Y-91081205D01*
X111542331Y-91081204D01*
X111531161Y-91077038D01*
X111475231Y-91035166D01*
X111450816Y-90969701D01*
X111450500Y-90960858D01*
X111450500Y-90490929D01*
X111450500Y-90490927D01*
X111433773Y-90428500D01*
X111423207Y-90389066D01*
X111370480Y-90297741D01*
X111152024Y-90079285D01*
X111118539Y-90017962D01*
X111123523Y-89948270D01*
X111165395Y-89892337D01*
X111230859Y-89867920D01*
X111286916Y-89876943D01*
G37*
%TD.AperFunction*%
%TA.AperFunction,Conductor*%
G36*
X106625975Y-72320185D02*
G01*
X106671730Y-72372989D01*
X106681674Y-72442147D01*
X106652649Y-72505703D01*
X106646617Y-72512181D01*
X106639401Y-72519396D01*
X106584033Y-72602260D01*
X106584032Y-72602264D01*
X106569500Y-72675321D01*
X106569500Y-73932745D01*
X106549815Y-73999784D01*
X106533181Y-74020426D01*
X104379522Y-76174084D01*
X104379518Y-76174090D01*
X104326792Y-76265412D01*
X104326793Y-76265413D01*
X104299500Y-76367273D01*
X104299500Y-86091204D01*
X104326793Y-86193067D01*
X104353156Y-86238728D01*
X104379520Y-86284391D01*
X105765609Y-87670480D01*
X105856934Y-87723207D01*
X105958795Y-87750500D01*
X106064249Y-87750500D01*
X106824505Y-87750500D01*
X106891544Y-87770185D01*
X106937299Y-87822989D01*
X106947243Y-87892147D01*
X106918218Y-87955703D01*
X106912186Y-87962181D01*
X106804025Y-88070341D01*
X106804024Y-88070342D01*
X106689058Y-88242403D01*
X106609870Y-88433579D01*
X106609868Y-88433587D01*
X106569500Y-88636530D01*
X106569500Y-88843469D01*
X106609868Y-89046412D01*
X106609870Y-89046420D01*
X106675854Y-89205720D01*
X106689059Y-89237598D01*
X106702714Y-89258034D01*
X106706022Y-89262985D01*
X106726899Y-89329663D01*
X106708414Y-89397043D01*
X106656435Y-89443732D01*
X106587464Y-89454908D01*
X106523401Y-89427022D01*
X106515238Y-89419556D01*
X93445618Y-76349936D01*
X93412133Y-76288613D01*
X93411682Y-76238067D01*
X93430500Y-76143465D01*
X93430500Y-75936535D01*
X93390130Y-75733580D01*
X93310941Y-75542402D01*
X93195977Y-75370345D01*
X93195975Y-75370342D01*
X93049657Y-75224024D01*
X92963626Y-75166541D01*
X92877598Y-75109059D01*
X92686420Y-75029870D01*
X92686412Y-75029868D01*
X92483469Y-74989500D01*
X92483465Y-74989500D01*
X92276535Y-74989500D01*
X92276530Y-74989500D01*
X92073587Y-75029868D01*
X92073579Y-75029870D01*
X91882403Y-75109058D01*
X91710342Y-75224024D01*
X91564025Y-75370341D01*
X91564022Y-75370345D01*
X91527602Y-75424852D01*
X91473990Y-75469657D01*
X91404665Y-75478364D01*
X91341637Y-75448209D01*
X91304918Y-75388766D01*
X91300500Y-75355961D01*
X91300500Y-74184038D01*
X91320185Y-74116999D01*
X91372989Y-74071244D01*
X91442147Y-74061300D01*
X91505703Y-74090325D01*
X91527603Y-74115148D01*
X91564024Y-74169657D01*
X91710342Y-74315975D01*
X91710345Y-74315977D01*
X91882402Y-74430941D01*
X92073580Y-74510130D01*
X92276530Y-74550499D01*
X92276534Y-74550500D01*
X92276535Y-74550500D01*
X92483466Y-74550500D01*
X92483467Y-74550499D01*
X92686420Y-74510130D01*
X92877598Y-74430941D01*
X93049655Y-74315977D01*
X93195977Y-74169655D01*
X93310941Y-73997598D01*
X93390130Y-73806420D01*
X93430500Y-73603465D01*
X93430500Y-73396535D01*
X93390130Y-73193580D01*
X93310941Y-73002402D01*
X93195977Y-72830345D01*
X93195975Y-72830342D01*
X93049657Y-72684024D01*
X92893543Y-72579713D01*
X92877598Y-72569059D01*
X92877593Y-72569057D01*
X92805177Y-72539061D01*
X92750774Y-72495220D01*
X92728709Y-72428926D01*
X92745988Y-72361226D01*
X92797126Y-72313616D01*
X92852630Y-72300500D01*
X106558936Y-72300500D01*
X106625975Y-72320185D01*
G37*
%TD.AperFunction*%
%TA.AperFunction,Conductor*%
G36*
X106310907Y-75477998D02*
G01*
X106366840Y-75519870D01*
X106391257Y-75585334D01*
X106385504Y-75632498D01*
X106352010Y-75735578D01*
X106352010Y-75735581D01*
X106320000Y-75937682D01*
X106320000Y-76142317D01*
X106352009Y-76344417D01*
X106415244Y-76539031D01*
X106508141Y-76721350D01*
X106508147Y-76721359D01*
X106540523Y-76765921D01*
X106540524Y-76765922D01*
X107137037Y-76169408D01*
X107154075Y-76232993D01*
X107219901Y-76347007D01*
X107312993Y-76440099D01*
X107427007Y-76505925D01*
X107490590Y-76522962D01*
X106894076Y-77119474D01*
X106938650Y-77151859D01*
X107120968Y-77244755D01*
X107315577Y-77307988D01*
X107361586Y-77315275D01*
X107424722Y-77345204D01*
X107461653Y-77404515D01*
X107460657Y-77474378D01*
X107422047Y-77532611D01*
X107366383Y-77559366D01*
X107313584Y-77569868D01*
X107313579Y-77569870D01*
X107122403Y-77649058D01*
X106950342Y-77764024D01*
X106804024Y-77910342D01*
X106689058Y-78082403D01*
X106609870Y-78273579D01*
X106609868Y-78273587D01*
X106569500Y-78476530D01*
X106569500Y-78683469D01*
X106609868Y-78886412D01*
X106609870Y-78886420D01*
X106639093Y-78956969D01*
X106646562Y-79026438D01*
X106615287Y-79088917D01*
X106612213Y-79092103D01*
X105312181Y-80392136D01*
X105250858Y-80425621D01*
X105181166Y-80420637D01*
X105125233Y-80378765D01*
X105100816Y-80313301D01*
X105100500Y-80304455D01*
X105100500Y-76637254D01*
X105120185Y-76570215D01*
X105136819Y-76549573D01*
X105646393Y-76039999D01*
X106179894Y-75506497D01*
X106241215Y-75473014D01*
X106310907Y-75477998D01*
G37*
%TD.AperFunction*%
%TA.AperFunction,Conductor*%
G36*
X108663181Y-76729628D02*
G01*
X108696666Y-76790951D01*
X108699500Y-76817309D01*
X108699500Y-77895961D01*
X108679815Y-77963000D01*
X108627011Y-78008755D01*
X108557853Y-78018699D01*
X108494297Y-77989674D01*
X108472398Y-77964852D01*
X108435977Y-77910345D01*
X108435974Y-77910341D01*
X108289657Y-77764024D01*
X108203626Y-77706541D01*
X108117598Y-77649059D01*
X107926420Y-77569870D01*
X107926414Y-77569868D01*
X107873617Y-77559366D01*
X107811706Y-77526981D01*
X107777132Y-77466265D01*
X107780873Y-77396495D01*
X107821739Y-77339823D01*
X107878413Y-77315275D01*
X107924422Y-77307988D01*
X108119031Y-77244755D01*
X108301349Y-77151859D01*
X108345921Y-77119474D01*
X107749409Y-76522962D01*
X107812993Y-76505925D01*
X107927007Y-76440099D01*
X108020099Y-76347007D01*
X108085925Y-76232993D01*
X108102962Y-76169409D01*
X108663181Y-76729628D01*
G37*
%TD.AperFunction*%
%TA.AperFunction,Conductor*%
G36*
X108659992Y-74555498D02*
G01*
X108695647Y-74615586D01*
X108699500Y-74646257D01*
X108699500Y-75262690D01*
X108679815Y-75329729D01*
X108663181Y-75350371D01*
X108102962Y-75910589D01*
X108085925Y-75847007D01*
X108020099Y-75732993D01*
X107927007Y-75639901D01*
X107812993Y-75574075D01*
X107749408Y-75557037D01*
X108345922Y-74960524D01*
X108345921Y-74960523D01*
X108301359Y-74928147D01*
X108301350Y-74928141D01*
X108119031Y-74835244D01*
X107987266Y-74792431D01*
X107929591Y-74752993D01*
X107902393Y-74688634D01*
X107914308Y-74619788D01*
X107961552Y-74568312D01*
X108025585Y-74550500D01*
X108444676Y-74550500D01*
X108444677Y-74550499D01*
X108517740Y-74535966D01*
X108517744Y-74535963D01*
X108528042Y-74531698D01*
X108597511Y-74524226D01*
X108659992Y-74555498D01*
G37*
%TD.AperFunction*%
%TD*%
M02*
