%TF.GenerationSoftware,KiCad,Pcbnew,10.0.4*%
%TF.CreationDate,2026-08-28T00:15:47+10:00*%
%TF.ProjectId,Dock Rev6,446f636b-2052-4657-9636-2e6b69636164,6 - mechanical correction v2*%
%TF.SameCoordinates,Original*%
%TF.FileFunction,Profile,NP*%
%FSLAX46Y46*%
G04 Gerber Fmt 4.6, Leading zero omitted, Abs format (unit mm)*
G04 Created by KiCad (PCBNEW 10.0.4) date 2026-08-28 00:15:47*
%MOMM*%
%LPD*%
G01*
G04 APERTURE LIST*
%TA.AperFunction,Profile*%
%ADD10C,0.100000*%
%TD*%
G04 APERTURE END LIST*
D10*
X77500000Y-93000000D02*
X77520833Y-92520833D01*
X77500000Y-147000000D02*
X77500000Y-93000000D01*
X77520833Y-92520833D02*
X77583333Y-92083333D01*
X77520833Y-147479167D02*
X77500000Y-147000000D01*
X77583333Y-92083333D02*
X77687500Y-91687500D01*
X77583333Y-147916667D02*
X77520833Y-147479167D01*
X77687500Y-91687500D02*
X77833333Y-91333333D01*
X77687500Y-148312500D02*
X77583333Y-147916667D01*
X77833333Y-91333333D02*
X78020833Y-91020833D01*
X77833333Y-148666667D02*
X77687500Y-148312500D01*
X78020833Y-91020833D02*
X78250000Y-90750000D01*
X78020833Y-148979167D02*
X77833333Y-148666667D01*
X78250000Y-90750000D02*
X78520833Y-90520833D01*
X78250000Y-149250000D02*
X78020833Y-148979167D01*
X78520833Y-90520833D02*
X78833333Y-90333333D01*
X78520833Y-149479167D02*
X78250000Y-149250000D01*
X78833333Y-90333333D02*
X79187500Y-90187500D01*
X78833333Y-149666667D02*
X78520833Y-149479167D01*
X79187500Y-90187500D02*
X79583333Y-90083333D01*
X79187500Y-149812500D02*
X78833333Y-149666667D01*
X79583333Y-90083333D02*
X80020833Y-90020833D01*
X79583333Y-149916667D02*
X79187500Y-149812500D01*
X80020833Y-90020833D02*
X80500000Y-90000000D01*
X80020833Y-149979167D02*
X79583333Y-149916667D01*
X80500000Y-90000000D02*
X86275000Y-90000000D01*
X80500000Y-150000000D02*
X80020833Y-149979167D01*
X86275000Y-90000000D02*
X87029688Y-89967188D01*
X87029688Y-89967188D02*
X87718750Y-89868750D01*
X87500000Y-150000000D02*
X80500000Y-150000000D01*
X87718750Y-89868750D02*
X88342188Y-89704688D01*
X88298611Y-150034722D02*
X87500000Y-150000000D01*
X88342188Y-89704688D02*
X88900000Y-89475000D01*
X88900000Y-89475000D02*
X89392188Y-89179688D01*
X89027778Y-150138889D02*
X88298611Y-150034722D01*
X89392188Y-89179688D02*
X89818750Y-88818750D01*
X89687500Y-150312500D02*
X89027778Y-150138889D01*
X89818750Y-88818750D02*
X90179688Y-88392188D01*
X90179688Y-88392188D02*
X90475000Y-87900000D01*
X90277778Y-150555556D02*
X89687500Y-150312500D01*
X90475000Y-87900000D02*
X90704688Y-87342188D01*
X90704688Y-87342188D02*
X90868750Y-86718750D01*
X90798611Y-150868056D02*
X90277778Y-150555556D01*
X90868750Y-86718750D02*
X90967188Y-86029688D01*
X90967188Y-86029688D02*
X91000000Y-85275000D01*
X91000000Y-73000000D02*
X91006944Y-72840278D01*
X91000000Y-85275000D02*
X91000000Y-73000000D01*
X91006944Y-72840278D02*
X91027778Y-72694444D01*
X91027778Y-72694444D02*
X91062500Y-72562500D01*
X91062500Y-72562500D02*
X91111111Y-72444444D01*
X91111111Y-72444444D02*
X91173611Y-72340278D01*
X91173611Y-72340278D02*
X91250000Y-72250000D01*
X91250000Y-72250000D02*
X91340278Y-72173611D01*
X91250000Y-151250000D02*
X90798611Y-150868056D01*
X91340278Y-72173611D02*
X91444444Y-72111111D01*
X91444444Y-72111111D02*
X91562500Y-72062500D01*
X91562500Y-72062500D02*
X91694444Y-72027778D01*
X91631944Y-151701389D02*
X91250000Y-151250000D01*
X91694444Y-72027778D02*
X91840278Y-72006944D01*
X91840278Y-72006944D02*
X92000000Y-72000000D01*
X91944444Y-152222222D02*
X91631944Y-151701389D01*
X92000000Y-72000000D02*
X108000000Y-72000000D01*
X92187500Y-152812500D02*
X91944444Y-152222222D01*
X92361111Y-153472222D02*
X92187500Y-152812500D01*
X92465278Y-154201389D02*
X92361111Y-153472222D01*
X92500000Y-155000000D02*
X92465278Y-154201389D01*
X92500000Y-163000000D02*
X92500000Y-155000000D01*
X92520833Y-163479167D02*
X92500000Y-163000000D01*
X92583333Y-163916667D02*
X92520833Y-163479167D01*
X92687500Y-164312500D02*
X92583333Y-163916667D01*
X92833333Y-164666667D02*
X92687500Y-164312500D01*
X93020833Y-164979167D02*
X92833333Y-164666667D01*
X93250000Y-165250000D02*
X93020833Y-164979167D01*
X93520833Y-165479167D02*
X93250000Y-165250000D01*
X93833333Y-165666667D02*
X93520833Y-165479167D01*
X94187500Y-165812500D02*
X93833333Y-165666667D01*
X94583333Y-165916667D02*
X94187500Y-165812500D01*
X95020833Y-165979167D02*
X94583333Y-165916667D01*
X95500000Y-166000000D02*
X95020833Y-165979167D01*
X104500000Y-166000000D02*
X95500000Y-166000000D01*
X104979167Y-165979167D02*
X104500000Y-166000000D01*
X105416667Y-165916667D02*
X104979167Y-165979167D01*
X105812500Y-165812500D02*
X105416667Y-165916667D01*
X106166667Y-165666667D02*
X105812500Y-165812500D01*
X106479167Y-165479167D02*
X106166667Y-165666667D01*
X106750000Y-165250000D02*
X106479167Y-165479167D01*
X106979167Y-164979167D02*
X106750000Y-165250000D01*
X107166667Y-164666667D02*
X106979167Y-164979167D01*
X107312500Y-164312500D02*
X107166667Y-164666667D01*
X107416667Y-163916667D02*
X107312500Y-164312500D01*
X107479167Y-163479167D02*
X107416667Y-163916667D01*
X107500000Y-155000000D02*
X107500000Y-163000000D01*
X107500000Y-163000000D02*
X107479167Y-163479167D01*
X107534722Y-154201389D02*
X107500000Y-155000000D01*
X107638889Y-153472222D02*
X107534722Y-154201389D01*
X107812500Y-152812500D02*
X107638889Y-153472222D01*
X108000000Y-72000000D02*
X108159722Y-72006944D01*
X108055556Y-152222222D02*
X107812500Y-152812500D01*
X108159722Y-72006944D02*
X108305556Y-72027778D01*
X108305556Y-72027778D02*
X108437500Y-72062500D01*
X108368056Y-151701389D02*
X108055556Y-152222222D01*
X108437500Y-72062500D02*
X108555556Y-72111111D01*
X108555556Y-72111111D02*
X108659722Y-72173611D01*
X108659722Y-72173611D02*
X108750000Y-72250000D01*
X108750000Y-72250000D02*
X108826389Y-72340278D01*
X108750000Y-151250000D02*
X108368056Y-151701389D01*
X108826389Y-72340278D02*
X108888889Y-72444444D01*
X108888889Y-72444444D02*
X108937500Y-72562500D01*
X108937500Y-72562500D02*
X108972222Y-72694444D01*
X108972222Y-72694444D02*
X108993056Y-72840278D01*
X108993056Y-72840278D02*
X109000000Y-73000000D01*
X109000000Y-73000000D02*
X109000000Y-85275000D01*
X109000000Y-85275000D02*
X109032812Y-86029688D01*
X109032812Y-86029688D02*
X109131250Y-86718750D01*
X109131250Y-86718750D02*
X109295312Y-87342188D01*
X109201389Y-150868056D02*
X108750000Y-151250000D01*
X109295312Y-87342188D02*
X109525000Y-87900000D01*
X109525000Y-87900000D02*
X109820312Y-88392188D01*
X109722222Y-150555556D02*
X109201389Y-150868056D01*
X109820312Y-88392188D02*
X110181250Y-88818750D01*
X110181250Y-88818750D02*
X110607812Y-89179688D01*
X110312500Y-150312500D02*
X109722222Y-150555556D01*
X110607812Y-89179688D02*
X111100000Y-89475000D01*
X110972222Y-150138889D02*
X110312500Y-150312500D01*
X111100000Y-89475000D02*
X111657812Y-89704688D01*
X111657812Y-89704688D02*
X112281250Y-89868750D01*
X111701389Y-150034722D02*
X110972222Y-150138889D01*
X112281250Y-89868750D02*
X112970312Y-89967188D01*
X112500000Y-150000000D02*
X111701389Y-150034722D01*
X112970312Y-89967188D02*
X113725000Y-90000000D01*
X113725000Y-90000000D02*
X119500000Y-90000000D01*
X119500000Y-90000000D02*
X119979167Y-90020833D01*
X119500000Y-150000000D02*
X112500000Y-150000000D01*
X119979167Y-90020833D02*
X120416667Y-90083333D01*
X119979167Y-149979167D02*
X119500000Y-150000000D01*
X120416667Y-90083333D02*
X120812500Y-90187500D01*
X120416667Y-149916667D02*
X119979167Y-149979167D01*
X120812500Y-90187500D02*
X121166667Y-90333333D01*
X120812500Y-149812500D02*
X120416667Y-149916667D01*
X121166667Y-90333333D02*
X121479167Y-90520833D01*
X121166667Y-149666667D02*
X120812500Y-149812500D01*
X121479167Y-90520833D02*
X121750000Y-90750000D01*
X121479167Y-149479167D02*
X121166667Y-149666667D01*
X121750000Y-90750000D02*
X121979167Y-91020833D01*
X121750000Y-149250000D02*
X121479167Y-149479167D01*
X121979167Y-91020833D02*
X122166667Y-91333333D01*
X121979167Y-148979167D02*
X121750000Y-149250000D01*
X122166667Y-91333333D02*
X122312500Y-91687500D01*
X122166667Y-148666667D02*
X121979167Y-148979167D01*
X122312500Y-91687500D02*
X122416667Y-92083333D01*
X122312500Y-148312500D02*
X122166667Y-148666667D01*
X122416667Y-92083333D02*
X122479167Y-92520833D01*
X122416667Y-147916667D02*
X122312500Y-148312500D01*
X122479167Y-92520833D02*
X122500000Y-93000000D01*
X122479167Y-147479167D02*
X122416667Y-147916667D01*
X122500000Y-93000000D02*
X122500000Y-147000000D01*
X122500000Y-147000000D02*
X122479167Y-147479167D01*
M02*
