M48
; DRILL file KiCad 10.0.4 date 2026-08-28T00:15:35
; FORMAT={-:-/ absolute / metric / decimal}
; #@! TF.CreationDate,2026-08-28T00:15:35+10:00
; #@! TF.GenerationSoftware,Kicad,Pcbnew,10.0.4
; #@! TF.FileFunction,Plated,1,2,PTH
FMAT,2
METRIC
; #@! TA.AperFunction,Plated,PTH,ViaDrill
T1C0.300
; #@! TA.AperFunction,Plated,PTH,ComponentDrill
T2C0.800
; #@! TA.AperFunction,Plated,PTH,ComponentDrill
T3C0.900
; #@! TA.AperFunction,Plated,PTH,ComponentDrill
T4C1.000
; #@! TA.AperFunction,Plated,PTH,ComponentDrill
T5C1.000
; #@! TA.AperFunction,Plated,PTH,ComponentDrill
T6C1.200
; #@! TA.AperFunction,Plated,PTH,ComponentDrill
T7C1.300
%
G90
G05
T1
X87.0Y-97.0
X87.05Y-139.5
X87.05Y-141.4
X91.5Y-131.5
X94.0Y-135.5
X94.5Y-150.0
X95.34Y-93.0
X95.5Y-74.67
X96.0Y-136.5
X97.0Y-88.5
X98.0Y-119.0
X98.883Y-90.706
X100.0Y-87.5
X101.5Y-83.0
X101.5Y-90.5
X104.376Y-88.624
X105.0Y-156.0
X105.544Y-84.044
X106.144Y-81.024
X106.5Y-85.0
X106.5Y-94.5
X108.5Y-141.0
X109.0Y-103.0
X112.5Y-120.0
X114.5Y-97.5
T2
X110.295Y-99.0
X112.795Y-99.0
T3
X81.0Y-102.225
X81.0Y-104.765
X81.0Y-135.225
X81.0Y-137.765
X119.0Y-102.235
X119.0Y-104.775
X119.0Y-135.235
X119.0Y-137.775
T4
X88.5Y-101.0
X88.5Y-103.5
X97.75Y-87.75
X102.25Y-87.75
T5
X92.38Y-73.5
X92.38Y-76.04
X92.38Y-78.58
X92.38Y-81.12
X92.38Y-83.66
X92.38Y-86.2
X92.38Y-88.74
X92.38Y-91.28
X95.69Y-98.88
X95.69Y-101.42
X98.23Y-98.88
X98.23Y-101.42
X100.77Y-98.88
X100.77Y-101.42
X103.31Y-98.88
X103.31Y-101.42
X107.62Y-73.5
X107.62Y-76.04
X107.62Y-78.58
X107.62Y-81.12
X107.62Y-83.66
X107.62Y-86.2
X107.62Y-88.74
X107.62Y-91.28
T6
X81.5Y-112.88
X81.5Y-128.12
X87.5Y-112.88
X87.5Y-128.12
X112.5Y-112.88
X112.5Y-128.12
X118.0Y-112.88
X118.0Y-128.12
T7
X96.5Y-90.25
X103.5Y-90.25
M30
