%TF.GenerationSoftware,KiCad,Pcbnew,10.0.4*%
%TF.CreationDate,2026-08-28T00:15:46+10:00*%
%TF.ProjectId,Dock Rev6,446f636b-2052-4657-9636-2e6b69636164,6 - mechanical correction v2*%
%TF.SameCoordinates,Original*%
%TF.FileFunction,Soldermask,Top*%
%TF.FilePolarity,Negative*%
%FSLAX46Y46*%
G04 Gerber Fmt 4.6, Leading zero omitted, Abs format (unit mm)*
G04 Created by KiCad (PCBNEW 10.0.4) date 2026-08-28 00:15:46*
%MOMM*%
%LPD*%
G01*
G04 APERTURE LIST*
G04 Aperture macros list*
%AMRoundRect*
0 Rectangle with rounded corners*
0 $1 Rounding radius*
0 $2 $3 $4 $5 $6 $7 $8 $9 X,Y pos of 4 corners*
0 Add a 4 corners polygon primitive as box body*
4,1,4,$2,$3,$4,$5,$6,$7,$8,$9,$2,$3,0*
0 Add four circle primitives for the rounded corners*
1,1,$1+$1,$2,$3*
1,1,$1+$1,$4,$5*
1,1,$1+$1,$6,$7*
1,1,$1+$1,$8,$9*
0 Add four rect primitives between the rounded corners*
20,1,$1+$1,$2,$3,$4,$5,0*
20,1,$1+$1,$4,$5,$6,$7,0*
20,1,$1+$1,$6,$7,$8,$9,0*
20,1,$1+$1,$8,$9,$2,$3,0*%
G04 Aperture macros list end*
%ADD10C,2.400000*%
%ADD11R,1.800000X1.800000*%
%ADD12C,1.800000*%
%ADD13RoundRect,0.200000X-0.200000X-0.275000X0.200000X-0.275000X0.200000X0.275000X-0.200000X0.275000X0*%
%ADD14RoundRect,0.225000X-0.225000X-0.250000X0.225000X-0.250000X0.225000X0.250000X-0.225000X0.250000X0*%
%ADD15RoundRect,0.150000X-0.512500X-0.150000X0.512500X-0.150000X0.512500X0.150000X-0.512500X0.150000X0*%
%ADD16C,3.300000*%
%ADD17RoundRect,0.218750X-0.218750X-0.256250X0.218750X-0.256250X0.218750X0.256250X-0.218750X0.256250X0*%
%ADD18C,1.600000*%
%ADD19C,2.100000*%
%ADD20RoundRect,0.250000X-0.250000X-0.475000X0.250000X-0.475000X0.250000X0.475000X-0.250000X0.475000X0*%
%ADD21RoundRect,0.250000X-0.550000X-0.550000X0.550000X-0.550000X0.550000X0.550000X-0.550000X0.550000X0*%
%ADD22R,1.500000X1.500000*%
%ADD23C,1.500000*%
%ADD24R,1.900000X1.900000*%
%ADD25C,1.900000*%
%ADD26RoundRect,0.200000X0.200000X0.275000X-0.200000X0.275000X-0.200000X-0.275000X0.200000X-0.275000X0*%
%ADD27R,1.600000X1.600000*%
G04 APERTURE END LIST*
D10*
%TO.C,R7*%
X81500000Y-112880000D03*
X81500000Y-128120000D03*
%TD*%
D11*
%TO.C,D2*%
X119000000Y-137775000D03*
D12*
X119000000Y-135235000D03*
%TD*%
D13*
%TO.C,R3*%
X86675000Y-134500000D03*
X88325000Y-134500000D03*
%TD*%
D14*
%TO.C,C7*%
X106725000Y-148000000D03*
X108275000Y-148000000D03*
%TD*%
D11*
%TO.C,D3*%
X81000000Y-102225000D03*
D12*
X81000000Y-104765000D03*
%TD*%
D10*
%TO.C,R8*%
X87500000Y-128120000D03*
X87500000Y-112880000D03*
%TD*%
D14*
%TO.C,C5*%
X87225000Y-94000000D03*
X88775000Y-94000000D03*
%TD*%
D15*
%TO.C,Q1*%
X86225000Y-139500000D03*
X86225000Y-140450000D03*
X86225000Y-141400000D03*
X88500000Y-141400000D03*
X88500000Y-140450000D03*
X88500000Y-139500000D03*
%TD*%
D16*
%TO.C,H2*%
X81500000Y-94000000D03*
%TD*%
%TO.C,H4*%
X81500000Y-146000000D03*
%TD*%
D13*
%TO.C,R1*%
X87175000Y-95500000D03*
X88825000Y-95500000D03*
%TD*%
D14*
%TO.C,C1*%
X111225000Y-94000000D03*
X112775000Y-94000000D03*
%TD*%
D17*
%TO.C,D5*%
X99212500Y-165000000D03*
X100787500Y-165000000D03*
%TD*%
D11*
%TO.C,D4*%
X81000000Y-135225000D03*
D12*
X81000000Y-137765000D03*
%TD*%
D18*
%TO.C,SW1*%
X102250000Y-87750000D03*
X97750000Y-87750000D03*
D19*
X103500000Y-90250000D03*
X96500000Y-90250000D03*
%TD*%
D16*
%TO.C,H1*%
X118500000Y-94000000D03*
%TD*%
D14*
%TO.C,C3*%
X110725000Y-107000000D03*
X112275000Y-107000000D03*
%TD*%
D11*
%TO.C,D1*%
X119000000Y-104775000D03*
D12*
X119000000Y-102235000D03*
%TD*%
D20*
%TO.C,C4*%
X110650000Y-104800000D03*
X112550000Y-104800000D03*
%TD*%
D13*
%TO.C,R4*%
X86675000Y-136000000D03*
X88325000Y-136000000D03*
%TD*%
D10*
%TO.C,R6*%
X118000000Y-128120000D03*
X118000000Y-112880000D03*
%TD*%
D21*
%TO.C,C6*%
X110294888Y-99000000D03*
D18*
X112794888Y-99000000D03*
%TD*%
D22*
%TO.C,J1*%
X88500000Y-101000000D03*
D23*
X88500000Y-103500000D03*
%TD*%
D24*
%TO.C,U2*%
X103310000Y-98880000D03*
D25*
X103310000Y-101420000D03*
X100770000Y-98880000D03*
X100770000Y-101420000D03*
X98230000Y-98880000D03*
X98230000Y-101420000D03*
X95690000Y-98880000D03*
X95690000Y-101420000D03*
%TD*%
D10*
%TO.C,R5*%
X112500000Y-112880000D03*
X112500000Y-128120000D03*
%TD*%
D20*
%TO.C,C2*%
X111050000Y-92000000D03*
X112950000Y-92000000D03*
%TD*%
D26*
%TO.C,R2*%
X108325000Y-149500000D03*
X106675000Y-149500000D03*
%TD*%
D18*
%TO.C,U1*%
X107620000Y-91280000D03*
X107620000Y-88740000D03*
X107620000Y-86200000D03*
X107620000Y-83660000D03*
X107620000Y-78580000D03*
X107620000Y-81120000D03*
X92380000Y-73500000D03*
D27*
X107620000Y-73500000D03*
D18*
X92380000Y-76040000D03*
X92380000Y-78580000D03*
X92380000Y-81120000D03*
X92380000Y-83660000D03*
X92380000Y-86200000D03*
X92380000Y-88740000D03*
X92380000Y-91280000D03*
X107620000Y-76040000D03*
%TD*%
M02*
