ISO-10303-21;
HEADER;
/* Generated by software containing ST-Developer
 * from STEP Tools, Inc. (www.steptools.com) 
 */

FILE_DESCRIPTION(
/* description */ (
'Brass heat-set insert, M3 internal thread, 3 mm length, 4.2 mm maximu
m OD'),
/* implementation_level */ '2;1');

FILE_NAME(
/* name */ 'M3x3x4.2_Heat_Set_Insert.step',
/* time_stamp */ '2026-08-15T14:10:50+10:00',
/* author */ (''),
/* organization */ (''),
/* preprocessor_version */ 'ST-DEVELOPER v20.1',
/* originating_system */ 'Autodesk Translation Framework v15.8.0.0',
/* authorisation */ '');

FILE_SCHEMA (('AUTOMOTIVE_DESIGN { 1 0 10303 214 3 1 1 }'));
ENDSEC;

DATA;
#10=MECHANICAL_DESIGN_GEOMETRIC_PRESENTATION_REPRESENTATION('',(#13),#325);
#11=SHAPE_REPRESENTATION_RELATIONSHIP('SRR','None',#332,#12);
#12=ADVANCED_BREP_SHAPE_REPRESENTATION('',(#14),#324);
#13=STYLED_ITEM('',(#342),#14);
#14=MANIFOLD_SOLID_BREP('M3 Heat-Set Insert',#177);
#15=CONICAL_SURFACE('',#198,1.9925,0.961632861134123);
#16=CONICAL_SURFACE('',#202,1.97,0.805003494254653);
#17=CONICAL_SURFACE('',#206,1.97,0.805003494254653);
#18=CONICAL_SURFACE('',#210,1.9775,1.02142184202335);
#19=FACE_BOUND('',#38,.T.);
#20=FACE_BOUND('',#48,.T.);
#21=PLANE('',#197);
#22=PLANE('',#214);
#23=FACE_OUTER_BOUND('',#35,.T.);
#24=FACE_OUTER_BOUND('',#36,.T.);
#25=FACE_OUTER_BOUND('',#37,.T.);
#26=FACE_OUTER_BOUND('',#39,.T.);
#27=FACE_OUTER_BOUND('',#40,.T.);
#28=FACE_OUTER_BOUND('',#41,.T.);
#29=FACE_OUTER_BOUND('',#42,.T.);
#30=FACE_OUTER_BOUND('',#43,.T.);
#31=FACE_OUTER_BOUND('',#44,.T.);
#32=FACE_OUTER_BOUND('',#45,.T.);
#33=FACE_OUTER_BOUND('',#46,.T.);
#34=FACE_OUTER_BOUND('',#47,.T.);
#35=EDGE_LOOP('',(#115,#116,#117,#118));
#36=EDGE_LOOP('',(#119,#120,#121,#122));
#37=EDGE_LOOP('',(#123));
#38=EDGE_LOOP('',(#124));
#39=EDGE_LOOP('',(#125,#126,#127,#128));
#40=EDGE_LOOP('',(#129,#130,#131,#132));
#41=EDGE_LOOP('',(#133,#134,#135,#136));
#42=EDGE_LOOP('',(#137,#138,#139,#140));
#43=EDGE_LOOP('',(#141,#142,#143,#144));
#44=EDGE_LOOP('',(#145,#146,#147,#148));
#45=EDGE_LOOP('',(#149,#150,#151,#152));
#46=EDGE_LOOP('',(#153,#154,#155,#156));
#47=EDGE_LOOP('',(#157));
#48=EDGE_LOOP('',(#158));
#49=LINE('',#280,#59);
#50=LINE('',#286,#60);
#51=LINE('',#291,#61);
#52=LINE('',#295,#62);
#53=LINE('',#299,#63);
#54=LINE('',#303,#64);
#55=LINE('',#307,#65);
#56=LINE('',#311,#66);
#57=LINE('',#315,#67);
#58=LINE('',#319,#68);
#59=VECTOR('',#221,1.5);
#60=VECTOR('',#228,1.885);
#61=VECTOR('',#235,1.9925);
#62=VECTOR('',#240,2.1);
#63=VECTOR('',#245,1.97);
#64=VECTOR('',#250,1.84);
#65=VECTOR('',#255,1.97);
#66=VECTOR('',#260,2.1);
#67=VECTOR('',#265,1.9775);
#68=VECTOR('',#270,1.855);
#69=CIRCLE('',#192,1.5);
#70=CIRCLE('',#193,1.5);
#71=CIRCLE('',#195,1.885);
#72=CIRCLE('',#196,1.885);
#73=CIRCLE('',#199,2.1);
#74=CIRCLE('',#201,2.1);
#75=CIRCLE('',#203,1.84);
#76=CIRCLE('',#205,1.84);
#77=CIRCLE('',#207,2.1);
#78=CIRCLE('',#209,2.1);
#79=CIRCLE('',#211,1.855);
#80=CIRCLE('',#213,1.855);
#81=VERTEX_POINT('',#277);
#82=VERTEX_POINT('',#279);
#83=VERTEX_POINT('',#283);
#84=VERTEX_POINT('',#285);
#85=VERTEX_POINT('',#290);
#86=VERTEX_POINT('',#294);
#87=VERTEX_POINT('',#298);
#88=VERTEX_POINT('',#302);
#89=VERTEX_POINT('',#306);
#90=VERTEX_POINT('',#310);
#91=VERTEX_POINT('',#314);
#92=VERTEX_POINT('',#318);
#93=EDGE_CURVE('',#81,#81,#69,.T.);
#94=EDGE_CURVE('',#81,#82,#49,.T.);
#95=EDGE_CURVE('',#82,#82,#70,.T.);
#96=EDGE_CURVE('',#83,#83,#71,.T.);
#97=EDGE_CURVE('',#83,#84,#50,.T.);
#98=EDGE_CURVE('',#84,#84,#72,.T.);
#99=EDGE_CURVE('',#84,#85,#51,.T.);
#100=EDGE_CURVE('',#85,#85,#73,.T.);
#101=EDGE_CURVE('',#85,#86,#52,.T.);
#102=EDGE_CURVE('',#86,#86,#74,.T.);
#103=EDGE_CURVE('',#86,#87,#53,.T.);
#104=EDGE_CURVE('',#87,#87,#75,.T.);
#105=EDGE_CURVE('',#87,#88,#54,.T.);
#106=EDGE_CURVE('',#88,#88,#76,.T.);
#107=EDGE_CURVE('',#88,#89,#55,.T.);
#108=EDGE_CURVE('',#89,#89,#77,.T.);
#109=EDGE_CURVE('',#89,#90,#56,.T.);
#110=EDGE_CURVE('',#90,#90,#78,.T.);
#111=EDGE_CURVE('',#90,#91,#57,.T.);
#112=EDGE_CURVE('',#91,#91,#79,.T.);
#113=EDGE_CURVE('',#91,#92,#58,.T.);
#114=EDGE_CURVE('',#92,#92,#80,.T.);
#115=ORIENTED_EDGE('',*,*,#93,.F.);
#116=ORIENTED_EDGE('',*,*,#94,.T.);
#117=ORIENTED_EDGE('',*,*,#95,.F.);
#118=ORIENTED_EDGE('',*,*,#94,.F.);
#119=ORIENTED_EDGE('',*,*,#96,.F.);
#120=ORIENTED_EDGE('',*,*,#97,.T.);
#121=ORIENTED_EDGE('',*,*,#98,.T.);
#122=ORIENTED_EDGE('',*,*,#97,.F.);
#123=ORIENTED_EDGE('',*,*,#96,.T.);
#124=ORIENTED_EDGE('',*,*,#95,.T.);
#125=ORIENTED_EDGE('',*,*,#98,.F.);
#126=ORIENTED_EDGE('',*,*,#99,.T.);
#127=ORIENTED_EDGE('',*,*,#100,.T.);
#128=ORIENTED_EDGE('',*,*,#99,.F.);
#129=ORIENTED_EDGE('',*,*,#100,.F.);
#130=ORIENTED_EDGE('',*,*,#101,.T.);
#131=ORIENTED_EDGE('',*,*,#102,.T.);
#132=ORIENTED_EDGE('',*,*,#101,.F.);
#133=ORIENTED_EDGE('',*,*,#102,.F.);
#134=ORIENTED_EDGE('',*,*,#103,.T.);
#135=ORIENTED_EDGE('',*,*,#104,.T.);
#136=ORIENTED_EDGE('',*,*,#103,.F.);
#137=ORIENTED_EDGE('',*,*,#104,.F.);
#138=ORIENTED_EDGE('',*,*,#105,.T.);
#139=ORIENTED_EDGE('',*,*,#106,.T.);
#140=ORIENTED_EDGE('',*,*,#105,.F.);
#141=ORIENTED_EDGE('',*,*,#106,.F.);
#142=ORIENTED_EDGE('',*,*,#107,.T.);
#143=ORIENTED_EDGE('',*,*,#108,.T.);
#144=ORIENTED_EDGE('',*,*,#107,.F.);
#145=ORIENTED_EDGE('',*,*,#108,.F.);
#146=ORIENTED_EDGE('',*,*,#109,.T.);
#147=ORIENTED_EDGE('',*,*,#110,.T.);
#148=ORIENTED_EDGE('',*,*,#109,.F.);
#149=ORIENTED_EDGE('',*,*,#110,.F.);
#150=ORIENTED_EDGE('',*,*,#111,.T.);
#151=ORIENTED_EDGE('',*,*,#112,.T.);
#152=ORIENTED_EDGE('',*,*,#111,.F.);
#153=ORIENTED_EDGE('',*,*,#112,.F.);
#154=ORIENTED_EDGE('',*,*,#113,.T.);
#155=ORIENTED_EDGE('',*,*,#114,.F.);
#156=ORIENTED_EDGE('',*,*,#113,.F.);
#157=ORIENTED_EDGE('',*,*,#114,.T.);
#158=ORIENTED_EDGE('',*,*,#93,.T.);
#159=CYLINDRICAL_SURFACE('',#191,1.5);
#160=CYLINDRICAL_SURFACE('',#194,1.885);
#161=CYLINDRICAL_SURFACE('',#200,2.1);
#162=CYLINDRICAL_SURFACE('',#204,1.84);
#163=CYLINDRICAL_SURFACE('',#208,2.1);
#164=CYLINDRICAL_SURFACE('',#212,1.855);
#165=ADVANCED_FACE('',(#23),#159,.F.);
#166=ADVANCED_FACE('',(#24),#160,.T.);
#167=ADVANCED_FACE('',(#25,#19),#21,.T.);
#168=ADVANCED_FACE('',(#26),#15,.T.);
#169=ADVANCED_FACE('',(#27),#161,.T.);
#170=ADVANCED_FACE('',(#28),#16,.T.);
#171=ADVANCED_FACE('',(#29),#162,.T.);
#172=ADVANCED_FACE('',(#30),#17,.T.);
#173=ADVANCED_FACE('',(#31),#163,.T.);
#174=ADVANCED_FACE('',(#32),#18,.T.);
#175=ADVANCED_FACE('',(#33),#164,.T.);
#176=ADVANCED_FACE('',(#34,#20),#22,.T.);
#177=CLOSED_SHELL('',(#165,#166,#167,#168,#169,#170,#171,#172,#173,#174,
#175,#176));
#178=DERIVED_UNIT_ELEMENT(#180,1.);
#179=DERIVED_UNIT_ELEMENT(#327,-3.);
#180=(
MASS_UNIT()
NAMED_UNIT(*)
SI_UNIT(.KILO.,.GRAM.)
);
#181=DERIVED_UNIT((#178,#179));
#182=MEASURE_REPRESENTATION_ITEM('density measure',
POSITIVE_RATIO_MEASURE(7850.),#181);
#183=PROPERTY_DEFINITION_REPRESENTATION(#188,#185);
#184=PROPERTY_DEFINITION_REPRESENTATION(#189,#186);
#185=REPRESENTATION('material name',(#187),#324);
#186=REPRESENTATION('density',(#182),#324);
#187=DESCRIPTIVE_REPRESENTATION_ITEM('Steel','Steel');
#188=PROPERTY_DEFINITION('material property','material name',#334);
#189=PROPERTY_DEFINITION('material property','density of part',#334);
#190=AXIS2_PLACEMENT_3D('',#275,#215,#216);
#191=AXIS2_PLACEMENT_3D('',#276,#217,#218);
#192=AXIS2_PLACEMENT_3D('',#278,#219,#220);
#193=AXIS2_PLACEMENT_3D('',#281,#222,#223);
#194=AXIS2_PLACEMENT_3D('',#282,#224,#225);
#195=AXIS2_PLACEMENT_3D('',#284,#226,#227);
#196=AXIS2_PLACEMENT_3D('',#287,#229,#230);
#197=AXIS2_PLACEMENT_3D('',#288,#231,#232);
#198=AXIS2_PLACEMENT_3D('',#289,#233,#234);
#199=AXIS2_PLACEMENT_3D('',#292,#236,#237);
#200=AXIS2_PLACEMENT_3D('',#293,#238,#239);
#201=AXIS2_PLACEMENT_3D('',#296,#241,#242);
#202=AXIS2_PLACEMENT_3D('',#297,#243,#244);
#203=AXIS2_PLACEMENT_3D('',#300,#246,#247);
#204=AXIS2_PLACEMENT_3D('',#301,#248,#249);
#205=AXIS2_PLACEMENT_3D('',#304,#251,#252);
#206=AXIS2_PLACEMENT_3D('',#305,#253,#254);
#207=AXIS2_PLACEMENT_3D('',#308,#256,#257);
#208=AXIS2_PLACEMENT_3D('',#309,#258,#259);
#209=AXIS2_PLACEMENT_3D('',#312,#261,#262);
#210=AXIS2_PLACEMENT_3D('',#313,#263,#264);
#211=AXIS2_PLACEMENT_3D('',#316,#266,#267);
#212=AXIS2_PLACEMENT_3D('',#317,#268,#269);
#213=AXIS2_PLACEMENT_3D('',#320,#271,#272);
#214=AXIS2_PLACEMENT_3D('',#321,#273,#274);
#215=DIRECTION('axis',(0.,0.,1.));
#216=DIRECTION('refdir',(1.,0.,0.));
#217=DIRECTION('center_axis',(0.,0.,1.));
#218=DIRECTION('ref_axis',(1.,0.,0.));
#219=DIRECTION('center_axis',(0.,0.,1.));
#220=DIRECTION('ref_axis',(1.,0.,0.));
#221=DIRECTION('',(0.,0.,1.));
#222=DIRECTION('center_axis',(0.,0.,-1.));
#223=DIRECTION('ref_axis',(1.,0.,0.));
#224=DIRECTION('center_axis',(0.,0.,1.));
#225=DIRECTION('ref_axis',(1.,0.,0.));
#226=DIRECTION('center_axis',(0.,0.,1.));
#227=DIRECTION('ref_axis',(1.,0.,0.));
#228=DIRECTION('',(0.,0.,-1.));
#229=DIRECTION('center_axis',(0.,0.,1.));
#230=DIRECTION('ref_axis',(1.,0.,0.));
#231=DIRECTION('center_axis',(0.,0.,1.));
#232=DIRECTION('ref_axis',(1.,0.,0.));
#233=DIRECTION('center_axis',(0.,0.,-1.));
#234=DIRECTION('ref_axis',(1.,0.,0.));
#235=DIRECTION('',(-0.820126954301183,-1.00436584947941E-16,-0.572181596024082));
#236=DIRECTION('center_axis',(0.,0.,1.));
#237=DIRECTION('ref_axis',(1.,0.,0.));
#238=DIRECTION('center_axis',(0.,0.,1.));
#239=DIRECTION('ref_axis',(1.,0.,0.));
#240=DIRECTION('',(0.,0.,-1.));
#241=DIRECTION('center_axis',(0.,0.,1.));
#242=DIRECTION('ref_axis',(1.,0.,0.));
#243=DIRECTION('center_axis',(0.,0.,1.));
#244=DIRECTION('ref_axis',(1.,0.,0.));
#245=DIRECTION('',(0.720833064901856,8.82765905651634E-17,-0.693108716251784));
#246=DIRECTION('center_axis',(0.,0.,1.));
#247=DIRECTION('ref_axis',(1.,0.,0.));
#248=DIRECTION('center_axis',(0.,0.,1.));
#249=DIRECTION('ref_axis',(1.,0.,0.));
#250=DIRECTION('',(0.,0.,-1.));
#251=DIRECTION('center_axis',(0.,0.,1.));
#252=DIRECTION('ref_axis',(1.,0.,0.));
#253=DIRECTION('center_axis',(0.,0.,-1.));
#254=DIRECTION('ref_axis',(1.,0.,0.));
#255=DIRECTION('',(-0.720833064901856,-8.82765905651634E-17,-0.693108716251784));
#256=DIRECTION('center_axis',(0.,0.,1.));
#257=DIRECTION('ref_axis',(1.,0.,0.));
#258=DIRECTION('center_axis',(0.,0.,1.));
#259=DIRECTION('ref_axis',(1.,0.,0.));
#260=DIRECTION('',(0.,0.,-1.));
#261=DIRECTION('center_axis',(0.,0.,1.));
#262=DIRECTION('ref_axis',(1.,0.,0.));
#263=DIRECTION('center_axis',(0.,0.,1.));
#264=DIRECTION('ref_axis',(1.,0.,0.));
#265=DIRECTION('',(0.852851304076266,1.04444161968564E-16,-0.52215385963853));
#266=DIRECTION('center_axis',(0.,0.,1.));
#267=DIRECTION('ref_axis',(1.,0.,0.));
#268=DIRECTION('center_axis',(0.,0.,1.));
#269=DIRECTION('ref_axis',(1.,0.,0.));
#270=DIRECTION('',(0.,0.,-1.));
#271=DIRECTION('center_axis',(0.,0.,-1.));
#272=DIRECTION('ref_axis',(1.,0.,0.));
#273=DIRECTION('center_axis',(0.,0.,-1.));
#274=DIRECTION('ref_axis',(-1.,0.,0.));
#275=CARTESIAN_POINT('',(0.,0.,0.));
#276=CARTESIAN_POINT('Origin',(0.,0.,1.5));
#277=CARTESIAN_POINT('',(-1.5,-1.83697019872103E-16,0.));
#278=CARTESIAN_POINT('Origin',(0.,0.,0.));
#279=CARTESIAN_POINT('',(-1.5,1.83697019872103E-16,3.));
#280=CARTESIAN_POINT('',(-1.5,-1.83697019872103E-16,1.5));
#281=CARTESIAN_POINT('Origin',(0.,0.,3.));
#282=CARTESIAN_POINT('Origin',(0.,0.,2.85));
#283=CARTESIAN_POINT('',(-1.885,-2.30845921639276E-16,3.));
#284=CARTESIAN_POINT('Origin',(0.,0.,3.));
#285=CARTESIAN_POINT('',(-1.885,-2.30845921639276E-16,2.7));
#286=CARTESIAN_POINT('',(-1.885,-2.30845921639276E-16,2.85));
#287=CARTESIAN_POINT('Origin',(0.,0.,2.7));
#288=CARTESIAN_POINT('Origin',(0.,0.,3.));
#289=CARTESIAN_POINT('Origin',(0.,0.,2.625));
#290=CARTESIAN_POINT('',(-2.1,-2.57175827820944E-16,2.55));
#291=CARTESIAN_POINT('',(-1.9925,-2.4401087473011E-16,2.625));
#292=CARTESIAN_POINT('Origin',(0.,0.,2.55));
#293=CARTESIAN_POINT('Origin',(0.,0.,2.225));
#294=CARTESIAN_POINT('',(-2.1,-2.57175827820944E-16,1.9));
#295=CARTESIAN_POINT('',(-2.1,-2.57175827820944E-16,2.225));
#296=CARTESIAN_POINT('Origin',(0.,0.,1.9));
#297=CARTESIAN_POINT('Origin',(0.,0.,1.775));
#298=CARTESIAN_POINT('',(-1.84,-2.25335011043113E-16,1.65));
#299=CARTESIAN_POINT('',(-1.97,-2.41255419432029E-16,1.775));
#300=CARTESIAN_POINT('Origin',(0.,0.,1.65));
#301=CARTESIAN_POINT('Origin',(0.,0.,1.55));
#302=CARTESIAN_POINT('',(-1.84,-2.25335011043113E-16,1.45));
#303=CARTESIAN_POINT('',(-1.84,-2.25335011043113E-16,1.55));
#304=CARTESIAN_POINT('Origin',(0.,0.,1.45));
#305=CARTESIAN_POINT('Origin',(0.,0.,1.325));
#306=CARTESIAN_POINT('',(-2.1,-2.57175827820944E-16,1.2));
#307=CARTESIAN_POINT('',(-1.97,-2.41255419432029E-16,1.325));
#308=CARTESIAN_POINT('Origin',(0.,0.,1.2));
#309=CARTESIAN_POINT('Origin',(0.,0.,0.825));
#310=CARTESIAN_POINT('',(-2.1,-2.57175827820944E-16,0.45));
#311=CARTESIAN_POINT('',(-2.1,-2.57175827820944E-16,0.825));
#312=CARTESIAN_POINT('Origin',(0.,0.,0.45));
#313=CARTESIAN_POINT('Origin',(0.,0.,0.375));
#314=CARTESIAN_POINT('',(-1.855,-2.27171981241834E-16,0.3));
#315=CARTESIAN_POINT('',(-1.9775,-2.42173904531389E-16,0.375));
#316=CARTESIAN_POINT('Origin',(0.,0.,0.3));
#317=CARTESIAN_POINT('Origin',(0.,0.,0.15));
#318=CARTESIAN_POINT('',(-1.855,-2.27171981241834E-16,0.));
#319=CARTESIAN_POINT('',(-1.855,-2.27171981241834E-16,0.15));
#320=CARTESIAN_POINT('Origin',(0.,0.,0.));
#321=CARTESIAN_POINT('Origin',(0.,0.,0.));
#322=UNCERTAINTY_MEASURE_WITH_UNIT(LENGTH_MEASURE(0.01),#326,
'DISTANCE_ACCURACY_VALUE',
'Maximum model space distance between geometric entities at asserted c
onnectivities');
#323=UNCERTAINTY_MEASURE_WITH_UNIT(LENGTH_MEASURE(0.01),#326,
'DISTANCE_ACCURACY_VALUE',
'Maximum model space distance between geometric entities at asserted c
onnectivities');
#324=(
GEOMETRIC_REPRESENTATION_CONTEXT(3)
GLOBAL_UNCERTAINTY_ASSIGNED_CONTEXT((#322))
GLOBAL_UNIT_ASSIGNED_CONTEXT((#326,#328,#329))
REPRESENTATION_CONTEXT('','3D')
);
#325=(
GEOMETRIC_REPRESENTATION_CONTEXT(3)
GLOBAL_UNCERTAINTY_ASSIGNED_CONTEXT((#323))
GLOBAL_UNIT_ASSIGNED_CONTEXT((#326,#328,#329))
REPRESENTATION_CONTEXT('','3D')
);
#326=(
LENGTH_UNIT()
NAMED_UNIT(*)
SI_UNIT(.MILLI.,.METRE.)
);
#327=(
LENGTH_UNIT()
NAMED_UNIT(*)
SI_UNIT($,.METRE.)
);
#328=(
NAMED_UNIT(*)
PLANE_ANGLE_UNIT()
SI_UNIT($,.RADIAN.)
);
#329=(
NAMED_UNIT(*)
SI_UNIT($,.STERADIAN.)
SOLID_ANGLE_UNIT()
);
#330=SHAPE_DEFINITION_REPRESENTATION(#331,#332);
#331=PRODUCT_DEFINITION_SHAPE('',$,#334);
#332=SHAPE_REPRESENTATION('',(#190),#324);
#333=PRODUCT_DEFINITION_CONTEXT('part definition',#338,'design');
#334=PRODUCT_DEFINITION('M3-L3-OD4.2-HEATSET',
'M3 x 3 x 4.2 mm Heat-Set Insert (1)',#335,#333);
#335=PRODUCT_DEFINITION_FORMATION('',$,#340);
#336=PRODUCT_RELATED_PRODUCT_CATEGORY(
'M3 x 3 x 4.2 mm Heat-Set Insert (1)',
'M3 x 3 x 4.2 mm Heat-Set Insert (1)',(#340));
#337=APPLICATION_PROTOCOL_DEFINITION('international standard',
'automotive_design',2009,#338);
#338=APPLICATION_CONTEXT(
'Core Data for Automotive Mechanical Design Process');
#339=PRODUCT_CONTEXT('part definition',#338,'mechanical');
#340=PRODUCT('M3-L3-OD4.2-HEATSET',
'M3 x 3 x 4.2 mm Heat-Set Insert (1)',
'Brass heat-set insert, M3 internal thread, 3 mm length, 4.2 mm maximu
m OD',(#339));
#341=PRESENTATION_STYLE_ASSIGNMENT((#343));
#342=PRESENTATION_STYLE_ASSIGNMENT((#344));
#343=SURFACE_STYLE_USAGE(.BOTH.,#345);
#344=SURFACE_STYLE_USAGE(.BOTH.,#346);
#345=SURFACE_SIDE_STYLE('',(#347));
#346=SURFACE_SIDE_STYLE('',(#348));
#347=SURFACE_STYLE_FILL_AREA(#349);
#348=SURFACE_STYLE_FILL_AREA(#350);
#349=FILL_AREA_STYLE('Steel - Satin',(#351));
#350=FILL_AREA_STYLE('OpenRemote Brass Insert',(#352));
#351=FILL_AREA_STYLE_COLOUR('Steel - Satin',#353);
#352=FILL_AREA_STYLE_COLOUR('OpenRemote Brass Insert',#354);
#353=COLOUR_RGB('Steel - Satin',0.627450980392157,0.627450980392157,0.627450980392157);
#354=COLOUR_RGB('OpenRemote Brass Insert',0.952941176470588,0.796078431372549,
0.486274509803922);
ENDSEC;
END-ISO-10303-21;
