ISO-10303-21;
HEADER;
/* Generated by software containing ST-Developer
 * from STEP Tools, Inc. (www.steptools.com) 
 */

FILE_DESCRIPTION(
/* description */ (
'M3 x 8 mm total-length, 0.5 mm pitch countersunk Phillips machine scr
ew'),
/* implementation_level */ '2;1');

FILE_NAME(
/* name */ 'M3x8_Countersunk_Phillips_Screw.step',
/* time_stamp */ '2026-08-15T14:10:49+10:00',
/* author */ (''),
/* organization */ (''),
/* preprocessor_version */ 'ST-DEVELOPER v20.1',
/* originating_system */ 'Autodesk Translation Framework v15.8.0.0',
/* authorisation */ '');

FILE_SCHEMA (('AUTOMOTIVE_DESIGN { 1 0 10303 214 3 1 1 }'));
ENDSEC;

DATA;
#10=MECHANICAL_DESIGN_GEOMETRIC_PRESENTATION_REPRESENTATION('',(#13),#1462);
#11=SHAPE_REPRESENTATION_RELATIONSHIP('SRR','None',#1469,#12);
#12=ADVANCED_BREP_SHAPE_REPRESENTATION('',(#14),#1461);
#13=STYLED_ITEM('',(#1479),#14);
#14=MANIFOLD_SOLID_BREP('M3x8 Screw',#843);
#15=CYLINDRICAL_SURFACE('',#877,1.35);
#16=CYLINDRICAL_SURFACE('',#884,1.35);
#17=CYLINDRICAL_SURFACE('',#890,1.35);
#18=CYLINDRICAL_SURFACE('',#896,1.35);
#19=CYLINDRICAL_SURFACE('',#902,1.35);
#20=CYLINDRICAL_SURFACE('',#908,1.35);
#21=CYLINDRICAL_SURFACE('',#914,1.35);
#22=CYLINDRICAL_SURFACE('',#920,1.35);
#23=CYLINDRICAL_SURFACE('',#926,1.35);
#24=CYLINDRICAL_SURFACE('',#932,1.35);
#25=CYLINDRICAL_SURFACE('',#938,1.35);
#26=CYLINDRICAL_SURFACE('',#944,1.35);
#27=CYLINDRICAL_SURFACE('',#948,1.35);
#28=CONICAL_SURFACE('',#872,1.425,0.876058050598195);
#29=CONICAL_SURFACE('',#875,1.425,0.876058050598195);
#30=CONICAL_SURFACE('',#879,1.425,0.876058050598195);
#31=CONICAL_SURFACE('',#882,1.425,0.876058050598195);
#32=CONICAL_SURFACE('',#885,1.425,0.876058050598195);
#33=CONICAL_SURFACE('',#888,1.425,0.876058050598195);
#34=CONICAL_SURFACE('',#891,1.425,0.876058050598195);
#35=CONICAL_SURFACE('',#894,1.425,0.876058050598195);
#36=CONICAL_SURFACE('',#897,1.425,0.876058050598195);
#37=CONICAL_SURFACE('',#900,1.425,0.876058050598195);
#38=CONICAL_SURFACE('',#903,1.425,0.876058050598193);
#39=CONICAL_SURFACE('',#906,1.425,0.876058050598193);
#40=CONICAL_SURFACE('',#909,1.425,0.876058050598193);
#41=CONICAL_SURFACE('',#912,1.425,0.876058050598193);
#42=CONICAL_SURFACE('',#915,1.425,0.876058050598193);
#43=CONICAL_SURFACE('',#918,1.425,0.876058050598193);
#44=CONICAL_SURFACE('',#921,1.425,0.876058050598193);
#45=CONICAL_SURFACE('',#924,1.425,0.876058050598193);
#46=CONICAL_SURFACE('',#927,1.425,0.876058050598193);
#47=CONICAL_SURFACE('',#930,1.425,0.876058050598193);
#48=CONICAL_SURFACE('',#933,1.425,0.876058050598193);
#49=CONICAL_SURFACE('',#936,1.425,0.876058050598193);
#50=CONICAL_SURFACE('',#939,1.425,0.876058050598193);
#51=CONICAL_SURFACE('',#942,1.425,0.876058050598193);
#52=CONICAL_SURFACE('',#945,0.9,1.24904577239825);
#53=CONICAL_SURFACE('',#950,2.25,0.722979353401491);
#54=FACE_BOUND('',#161,.T.);
#55=FACE_BOUND('',#208,.T.);
#56=CIRCLE('',#866,3.);
#57=CIRCLE('',#873,1.35);
#58=CIRCLE('',#874,1.5);
#59=CIRCLE('',#876,1.35);
#60=CIRCLE('',#878,1.35);
#61=CIRCLE('',#880,1.35);
#62=CIRCLE('',#881,1.5);
#63=CIRCLE('',#883,1.35);
#64=CIRCLE('',#886,1.35);
#65=CIRCLE('',#887,1.5);
#66=CIRCLE('',#889,1.35);
#67=CIRCLE('',#892,1.35);
#68=CIRCLE('',#893,1.5);
#69=CIRCLE('',#895,1.35);
#70=CIRCLE('',#898,1.35);
#71=CIRCLE('',#899,1.5);
#72=CIRCLE('',#901,1.35);
#73=CIRCLE('',#904,1.35);
#74=CIRCLE('',#905,1.5);
#75=CIRCLE('',#907,1.35);
#76=CIRCLE('',#910,1.35);
#77=CIRCLE('',#911,1.5);
#78=CIRCLE('',#913,1.35);
#79=CIRCLE('',#916,1.35);
#80=CIRCLE('',#917,1.5);
#81=CIRCLE('',#919,1.35);
#82=CIRCLE('',#922,1.35);
#83=CIRCLE('',#923,1.5);
#84=CIRCLE('',#925,1.35);
#85=CIRCLE('',#928,1.35);
#86=CIRCLE('',#929,1.5);
#87=CIRCLE('',#931,1.35);
#88=CIRCLE('',#934,1.35);
#89=CIRCLE('',#935,1.5);
#90=CIRCLE('',#937,1.35);
#91=CIRCLE('',#940,1.35);
#92=CIRCLE('',#941,1.5);
#93=CIRCLE('',#943,1.35);
#94=CIRCLE('',#946,0.45);
#95=CIRCLE('',#949,1.35);
#96=CIRCLE('',#951,1.5);
#97=FACE_OUTER_BOUND('',#152,.T.);
#98=FACE_OUTER_BOUND('',#153,.T.);
#99=FACE_OUTER_BOUND('',#154,.T.);
#100=FACE_OUTER_BOUND('',#155,.T.);
#101=FACE_OUTER_BOUND('',#156,.T.);
#102=FACE_OUTER_BOUND('',#157,.T.);
#103=FACE_OUTER_BOUND('',#158,.T.);
#104=FACE_OUTER_BOUND('',#159,.T.);
#105=FACE_OUTER_BOUND('',#160,.T.);
#106=FACE_OUTER_BOUND('',#162,.T.);
#107=FACE_OUTER_BOUND('',#163,.T.);
#108=FACE_OUTER_BOUND('',#164,.T.);
#109=FACE_OUTER_BOUND('',#165,.T.);
#110=FACE_OUTER_BOUND('',#166,.T.);
#111=FACE_OUTER_BOUND('',#167,.T.);
#112=FACE_OUTER_BOUND('',#168,.T.);
#113=FACE_OUTER_BOUND('',#169,.T.);
#114=FACE_OUTER_BOUND('',#170,.T.);
#115=FACE_OUTER_BOUND('',#171,.T.);
#116=FACE_OUTER_BOUND('',#172,.T.);
#117=FACE_OUTER_BOUND('',#173,.T.);
#118=FACE_OUTER_BOUND('',#174,.T.);
#119=FACE_OUTER_BOUND('',#175,.T.);
#120=FACE_OUTER_BOUND('',#176,.T.);
#121=FACE_OUTER_BOUND('',#177,.T.);
#122=FACE_OUTER_BOUND('',#178,.T.);
#123=FACE_OUTER_BOUND('',#179,.T.);
#124=FACE_OUTER_BOUND('',#180,.T.);
#125=FACE_OUTER_BOUND('',#181,.T.);
#126=FACE_OUTER_BOUND('',#182,.T.);
#127=FACE_OUTER_BOUND('',#183,.T.);
#128=FACE_OUTER_BOUND('',#184,.T.);
#129=FACE_OUTER_BOUND('',#185,.T.);
#130=FACE_OUTER_BOUND('',#186,.T.);
#131=FACE_OUTER_BOUND('',#187,.T.);
#132=FACE_OUTER_BOUND('',#188,.T.);
#133=FACE_OUTER_BOUND('',#189,.T.);
#134=FACE_OUTER_BOUND('',#190,.T.);
#135=FACE_OUTER_BOUND('',#191,.T.);
#136=FACE_OUTER_BOUND('',#192,.T.);
#137=FACE_OUTER_BOUND('',#193,.T.);
#138=FACE_OUTER_BOUND('',#194,.T.);
#139=FACE_OUTER_BOUND('',#195,.T.);
#140=FACE_OUTER_BOUND('',#196,.T.);
#141=FACE_OUTER_BOUND('',#197,.T.);
#142=FACE_OUTER_BOUND('',#198,.T.);
#143=FACE_OUTER_BOUND('',#199,.T.);
#144=FACE_OUTER_BOUND('',#200,.T.);
#145=FACE_OUTER_BOUND('',#201,.T.);
#146=FACE_OUTER_BOUND('',#202,.T.);
#147=FACE_OUTER_BOUND('',#203,.T.);
#148=FACE_OUTER_BOUND('',#204,.T.);
#149=FACE_OUTER_BOUND('',#205,.T.);
#150=FACE_OUTER_BOUND('',#206,.T.);
#151=FACE_OUTER_BOUND('',#207,.T.);
#152=EDGE_LOOP('',(#540,#541,#542,#543));
#153=EDGE_LOOP('',(#544,#545,#546,#547));
#154=EDGE_LOOP('',(#548,#549,#550,#551));
#155=EDGE_LOOP('',(#552,#553,#554,#555));
#156=EDGE_LOOP('',(#556,#557,#558,#559));
#157=EDGE_LOOP('',(#560,#561,#562,#563));
#158=EDGE_LOOP('',(#564,#565,#566,#567));
#159=EDGE_LOOP('',(#568,#569,#570,#571));
#160=EDGE_LOOP('',(#572));
#161=EDGE_LOOP('',(#573,#574,#575,#576,#577,#578,#579,#580,#581,#582,#583,
#584));
#162=EDGE_LOOP('',(#585,#586,#587,#588,#589,#590,#591,#592,#593,#594,#595,
#596));
#163=EDGE_LOOP('',(#597,#598,#599,#600));
#164=EDGE_LOOP('',(#601,#602,#603,#604));
#165=EDGE_LOOP('',(#605,#606,#607,#608));
#166=EDGE_LOOP('',(#609,#610,#611,#612));
#167=EDGE_LOOP('',(#613,#614,#615,#616));
#168=EDGE_LOOP('',(#617,#618,#619,#620));
#169=EDGE_LOOP('',(#621,#622,#623,#624));
#170=EDGE_LOOP('',(#625,#626,#627,#628));
#171=EDGE_LOOP('',(#629,#630,#631,#632));
#172=EDGE_LOOP('',(#633,#634,#635,#636));
#173=EDGE_LOOP('',(#637,#638,#639,#640));
#174=EDGE_LOOP('',(#641,#642,#643,#644));
#175=EDGE_LOOP('',(#645,#646,#647,#648));
#176=EDGE_LOOP('',(#649,#650,#651,#652));
#177=EDGE_LOOP('',(#653,#654,#655,#656));
#178=EDGE_LOOP('',(#657,#658,#659,#660));
#179=EDGE_LOOP('',(#661,#662,#663,#664));
#180=EDGE_LOOP('',(#665,#666,#667,#668));
#181=EDGE_LOOP('',(#669,#670,#671,#672));
#182=EDGE_LOOP('',(#673,#674,#675,#676));
#183=EDGE_LOOP('',(#677,#678,#679,#680));
#184=EDGE_LOOP('',(#681,#682,#683,#684));
#185=EDGE_LOOP('',(#685,#686,#687,#688));
#186=EDGE_LOOP('',(#689,#690,#691,#692));
#187=EDGE_LOOP('',(#693,#694,#695,#696));
#188=EDGE_LOOP('',(#697,#698,#699,#700));
#189=EDGE_LOOP('',(#701,#702,#703,#704));
#190=EDGE_LOOP('',(#705,#706,#707,#708));
#191=EDGE_LOOP('',(#709,#710,#711,#712));
#192=EDGE_LOOP('',(#713,#714,#715,#716));
#193=EDGE_LOOP('',(#717,#718,#719,#720));
#194=EDGE_LOOP('',(#721,#722,#723,#724));
#195=EDGE_LOOP('',(#725,#726,#727,#728));
#196=EDGE_LOOP('',(#729,#730,#731,#732));
#197=EDGE_LOOP('',(#733,#734,#735,#736));
#198=EDGE_LOOP('',(#737,#738,#739,#740));
#199=EDGE_LOOP('',(#741,#742,#743,#744));
#200=EDGE_LOOP('',(#745,#746,#747,#748));
#201=EDGE_LOOP('',(#749,#750,#751,#752));
#202=EDGE_LOOP('',(#753,#754,#755,#756));
#203=EDGE_LOOP('',(#757,#758,#759,#760));
#204=EDGE_LOOP('',(#761));
#205=EDGE_LOOP('',(#762,#763,#764,#765));
#206=EDGE_LOOP('',(#766,#767,#768,#769));
#207=EDGE_LOOP('',(#770));
#208=EDGE_LOOP('',(#771));
#209=LINE('',#1226,#284);
#210=LINE('',#1228,#285);
#211=LINE('',#1230,#286);
#212=LINE('',#1231,#287);
#213=LINE('',#1235,#288);
#214=LINE('',#1237,#289);
#215=LINE('',#1239,#290);
#216=LINE('',#1240,#291);
#217=LINE('',#1244,#292);
#218=LINE('',#1246,#293);
#219=LINE('',#1248,#294);
#220=LINE('',#1249,#295);
#221=LINE('',#1251,#296);
#222=LINE('',#1252,#297);
#223=LINE('',#1256,#298);
#224=LINE('',#1257,#299);
#225=LINE('',#1258,#300);
#226=LINE('',#1262,#301);
#227=LINE('',#1263,#302);
#228=LINE('',#1264,#303);
#229=LINE('',#1267,#304);
#230=LINE('',#1269,#305);
#231=LINE('',#1270,#306);
#232=LINE('',#1273,#307);
#233=LINE('',#1275,#308);
#234=LINE('',#1276,#309);
#235=LINE('',#1280,#310);
#236=LINE('',#1282,#311);
#237=LINE('',#1284,#312);
#238=LINE('',#1285,#313);
#239=LINE('',#1288,#314);
#240=LINE('',#1290,#315);
#241=LINE('',#1291,#316);
#242=LINE('',#1292,#317);
#243=LINE('',#1294,#318);
#244=LINE('',#1297,#319);
#245=LINE('',#1303,#320);
#246=LINE('',#1307,#321);
#247=LINE('',#1312,#322);
#248=LINE('',#1317,#323);
#249=LINE('',#1321,#324);
#250=LINE('',#1324,#325);
#251=LINE('',#1329,#326);
#252=LINE('',#1333,#327);
#253=LINE('',#1336,#328);
#254=LINE('',#1341,#329);
#255=LINE('',#1345,#330);
#256=LINE('',#1348,#331);
#257=LINE('',#1353,#332);
#258=LINE('',#1357,#333);
#259=LINE('',#1360,#334);
#260=LINE('',#1365,#335);
#261=LINE('',#1369,#336);
#262=LINE('',#1372,#337);
#263=LINE('',#1377,#338);
#264=LINE('',#1381,#339);
#265=LINE('',#1384,#340);
#266=LINE('',#1389,#341);
#267=LINE('',#1393,#342);
#268=LINE('',#1396,#343);
#269=LINE('',#1401,#344);
#270=LINE('',#1405,#345);
#271=LINE('',#1408,#346);
#272=LINE('',#1413,#347);
#273=LINE('',#1417,#348);
#274=LINE('',#1420,#349);
#275=LINE('',#1425,#350);
#276=LINE('',#1429,#351);
#277=LINE('',#1432,#352);
#278=LINE('',#1437,#353);
#279=LINE('',#1441,#354);
#280=LINE('',#1444,#355);
#281=LINE('',#1448,#356);
#282=LINE('',#1452,#357);
#283=LINE('',#1457,#358);
#284=VECTOR('',#957,10.);
#285=VECTOR('',#958,10.);
#286=VECTOR('',#959,10.);
#287=VECTOR('',#960,10.);
#288=VECTOR('',#963,10.);
#289=VECTOR('',#964,10.);
#290=VECTOR('',#965,10.);
#291=VECTOR('',#966,10.);
#292=VECTOR('',#969,10.);
#293=VECTOR('',#970,10.);
#294=VECTOR('',#971,10.);
#295=VECTOR('',#972,10.);
#296=VECTOR('',#975,10.);
#297=VECTOR('',#976,10.);
#298=VECTOR('',#979,10.);
#299=VECTOR('',#980,10.);
#300=VECTOR('',#981,10.);
#301=VECTOR('',#984,10.);
#302=VECTOR('',#985,10.);
#303=VECTOR('',#986,10.);
#304=VECTOR('',#989,10.);
#305=VECTOR('',#990,10.);
#306=VECTOR('',#991,10.);
#307=VECTOR('',#994,10.);
#308=VECTOR('',#995,10.);
#309=VECTOR('',#996,10.);
#310=VECTOR('',#1001,10.);
#311=VECTOR('',#1002,10.);
#312=VECTOR('',#1003,10.);
#313=VECTOR('',#1004,10.);
#314=VECTOR('',#1007,10.);
#315=VECTOR('',#1008,10.);
#316=VECTOR('',#1009,10.);
#317=VECTOR('',#1010,10.);
#318=VECTOR('',#1013,10.);
#319=VECTOR('',#1018,10.);
#320=VECTOR('',#1025,1.425);
#321=VECTOR('',#1030,1.425);
#322=VECTOR('',#1037,1.35);
#323=VECTOR('',#1042,1.425);
#324=VECTOR('',#1047,1.425);
#325=VECTOR('',#1052,1.35);
#326=VECTOR('',#1057,1.425);
#327=VECTOR('',#1062,1.425);
#328=VECTOR('',#1067,1.35);
#329=VECTOR('',#1072,1.425);
#330=VECTOR('',#1077,1.425);
#331=VECTOR('',#1082,1.35);
#332=VECTOR('',#1087,1.425);
#333=VECTOR('',#1092,1.425);
#334=VECTOR('',#1097,1.35);
#335=VECTOR('',#1102,1.425);
#336=VECTOR('',#1107,1.425);
#337=VECTOR('',#1112,1.35);
#338=VECTOR('',#1117,1.425);
#339=VECTOR('',#1122,1.425);
#340=VECTOR('',#1127,1.35);
#341=VECTOR('',#1132,1.425);
#342=VECTOR('',#1137,1.425);
#343=VECTOR('',#1142,1.35);
#344=VECTOR('',#1147,1.425);
#345=VECTOR('',#1152,1.425);
#346=VECTOR('',#1157,1.35);
#347=VECTOR('',#1162,1.425);
#348=VECTOR('',#1167,1.425);
#349=VECTOR('',#1172,1.35);
#350=VECTOR('',#1177,1.425);
#351=VECTOR('',#1182,1.425);
#352=VECTOR('',#1187,1.35);
#353=VECTOR('',#1192,1.425);
#354=VECTOR('',#1197,1.425);
#355=VECTOR('',#1202,1.35);
#356=VECTOR('',#1207,0.9);
#357=VECTOR('',#1212,1.35);
#358=VECTOR('',#1219,2.25);
#359=VERTEX_POINT('',#1224);
#360=VERTEX_POINT('',#1225);
#361=VERTEX_POINT('',#1227);
#362=VERTEX_POINT('',#1229);
#363=VERTEX_POINT('',#1233);
#364=VERTEX_POINT('',#1234);
#365=VERTEX_POINT('',#1236);
#366=VERTEX_POINT('',#1238);
#367=VERTEX_POINT('',#1242);
#368=VERTEX_POINT('',#1243);
#369=VERTEX_POINT('',#1245);
#370=VERTEX_POINT('',#1247);
#371=VERTEX_POINT('',#1254);
#372=VERTEX_POINT('',#1255);
#373=VERTEX_POINT('',#1260);
#374=VERTEX_POINT('',#1261);
#375=VERTEX_POINT('',#1266);
#376=VERTEX_POINT('',#1268);
#377=VERTEX_POINT('',#1272);
#378=VERTEX_POINT('',#1274);
#379=VERTEX_POINT('',#1278);
#380=VERTEX_POINT('',#1281);
#381=VERTEX_POINT('',#1283);
#382=VERTEX_POINT('',#1287);
#383=VERTEX_POINT('',#1289);
#384=VERTEX_POINT('',#1300);
#385=VERTEX_POINT('',#1302);
#386=VERTEX_POINT('',#1306);
#387=VERTEX_POINT('',#1310);
#388=VERTEX_POINT('',#1314);
#389=VERTEX_POINT('',#1316);
#390=VERTEX_POINT('',#1320);
#391=VERTEX_POINT('',#1326);
#392=VERTEX_POINT('',#1328);
#393=VERTEX_POINT('',#1332);
#394=VERTEX_POINT('',#1338);
#395=VERTEX_POINT('',#1340);
#396=VERTEX_POINT('',#1344);
#397=VERTEX_POINT('',#1350);
#398=VERTEX_POINT('',#1352);
#399=VERTEX_POINT('',#1356);
#400=VERTEX_POINT('',#1362);
#401=VERTEX_POINT('',#1364);
#402=VERTEX_POINT('',#1368);
#403=VERTEX_POINT('',#1374);
#404=VERTEX_POINT('',#1376);
#405=VERTEX_POINT('',#1380);
#406=VERTEX_POINT('',#1386);
#407=VERTEX_POINT('',#1388);
#408=VERTEX_POINT('',#1392);
#409=VERTEX_POINT('',#1398);
#410=VERTEX_POINT('',#1400);
#411=VERTEX_POINT('',#1404);
#412=VERTEX_POINT('',#1410);
#413=VERTEX_POINT('',#1412);
#414=VERTEX_POINT('',#1416);
#415=VERTEX_POINT('',#1422);
#416=VERTEX_POINT('',#1424);
#417=VERTEX_POINT('',#1428);
#418=VERTEX_POINT('',#1434);
#419=VERTEX_POINT('',#1436);
#420=VERTEX_POINT('',#1440);
#421=VERTEX_POINT('',#1446);
#422=VERTEX_POINT('',#1451);
#423=VERTEX_POINT('',#1455);
#424=EDGE_CURVE('',#359,#360,#209,.T.);
#425=EDGE_CURVE('',#361,#359,#210,.T.);
#426=EDGE_CURVE('',#362,#361,#211,.T.);
#427=EDGE_CURVE('',#362,#360,#212,.T.);
#428=EDGE_CURVE('',#363,#364,#213,.T.);
#429=EDGE_CURVE('',#363,#365,#214,.T.);
#430=EDGE_CURVE('',#365,#366,#215,.T.);
#431=EDGE_CURVE('',#364,#366,#216,.T.);
#432=EDGE_CURVE('',#367,#368,#217,.T.);
#433=EDGE_CURVE('',#369,#367,#218,.T.);
#434=EDGE_CURVE('',#370,#369,#219,.T.);
#435=EDGE_CURVE('',#370,#368,#220,.T.);
#436=EDGE_CURVE('',#365,#362,#221,.T.);
#437=EDGE_CURVE('',#366,#361,#222,.T.);
#438=EDGE_CURVE('',#371,#372,#223,.T.);
#439=EDGE_CURVE('',#371,#370,#224,.T.);
#440=EDGE_CURVE('',#372,#369,#225,.T.);
#441=EDGE_CURVE('',#373,#374,#226,.T.);
#442=EDGE_CURVE('',#373,#371,#227,.T.);
#443=EDGE_CURVE('',#374,#372,#228,.T.);
#444=EDGE_CURVE('',#368,#375,#229,.T.);
#445=EDGE_CURVE('',#375,#376,#230,.T.);
#446=EDGE_CURVE('',#367,#376,#231,.T.);
#447=EDGE_CURVE('',#377,#364,#232,.T.);
#448=EDGE_CURVE('',#378,#377,#233,.T.);
#449=EDGE_CURVE('',#378,#363,#234,.T.);
#450=EDGE_CURVE('',#379,#379,#56,.T.);
#451=EDGE_CURVE('',#376,#377,#235,.T.);
#452=EDGE_CURVE('',#359,#380,#236,.T.);
#453=EDGE_CURVE('',#380,#381,#237,.T.);
#454=EDGE_CURVE('',#381,#374,#238,.T.);
#455=EDGE_CURVE('',#382,#373,#239,.T.);
#456=EDGE_CURVE('',#383,#382,#240,.T.);
#457=EDGE_CURVE('',#360,#383,#241,.T.);
#458=EDGE_CURVE('',#375,#378,#242,.T.);
#459=EDGE_CURVE('',#383,#380,#243,.T.);
#460=EDGE_CURVE('',#382,#381,#244,.T.);
#461=EDGE_CURVE('',#384,#384,#57,.T.);
#462=EDGE_CURVE('',#384,#385,#245,.T.);
#463=EDGE_CURVE('',#385,#385,#58,.T.);
#464=EDGE_CURVE('',#385,#386,#246,.T.);
#465=EDGE_CURVE('',#386,#386,#59,.T.);
#466=EDGE_CURVE('',#387,#387,#60,.T.);
#467=EDGE_CURVE('',#387,#384,#247,.T.);
#468=EDGE_CURVE('',#388,#388,#61,.T.);
#469=EDGE_CURVE('',#388,#389,#248,.T.);
#470=EDGE_CURVE('',#389,#389,#62,.T.);
#471=EDGE_CURVE('',#389,#390,#249,.T.);
#472=EDGE_CURVE('',#390,#390,#63,.T.);
#473=EDGE_CURVE('',#386,#388,#250,.T.);
#474=EDGE_CURVE('',#391,#391,#64,.T.);
#475=EDGE_CURVE('',#391,#392,#251,.T.);
#476=EDGE_CURVE('',#392,#392,#65,.T.);
#477=EDGE_CURVE('',#392,#393,#252,.T.);
#478=EDGE_CURVE('',#393,#393,#66,.T.);
#479=EDGE_CURVE('',#390,#391,#253,.T.);
#480=EDGE_CURVE('',#394,#394,#67,.T.);
#481=EDGE_CURVE('',#394,#395,#254,.T.);
#482=EDGE_CURVE('',#395,#395,#68,.T.);
#483=EDGE_CURVE('',#395,#396,#255,.T.);
#484=EDGE_CURVE('',#396,#396,#69,.T.);
#485=EDGE_CURVE('',#393,#394,#256,.T.);
#486=EDGE_CURVE('',#397,#397,#70,.T.);
#487=EDGE_CURVE('',#397,#398,#257,.T.);
#488=EDGE_CURVE('',#398,#398,#71,.T.);
#489=EDGE_CURVE('',#398,#399,#258,.T.);
#490=EDGE_CURVE('',#399,#399,#72,.T.);
#491=EDGE_CURVE('',#396,#397,#259,.T.);
#492=EDGE_CURVE('',#400,#400,#73,.T.);
#493=EDGE_CURVE('',#400,#401,#260,.T.);
#494=EDGE_CURVE('',#401,#401,#74,.T.);
#495=EDGE_CURVE('',#401,#402,#261,.T.);
#496=EDGE_CURVE('',#402,#402,#75,.T.);
#497=EDGE_CURVE('',#399,#400,#262,.T.);
#498=EDGE_CURVE('',#403,#403,#76,.T.);
#499=EDGE_CURVE('',#403,#404,#263,.T.);
#500=EDGE_CURVE('',#404,#404,#77,.T.);
#501=EDGE_CURVE('',#404,#405,#264,.T.);
#502=EDGE_CURVE('',#405,#405,#78,.T.);
#503=EDGE_CURVE('',#402,#403,#265,.T.);
#504=EDGE_CURVE('',#406,#406,#79,.T.);
#505=EDGE_CURVE('',#406,#407,#266,.T.);
#506=EDGE_CURVE('',#407,#407,#80,.T.);
#507=EDGE_CURVE('',#407,#408,#267,.T.);
#508=EDGE_CURVE('',#408,#408,#81,.T.);
#509=EDGE_CURVE('',#405,#406,#268,.T.);
#510=EDGE_CURVE('',#409,#409,#82,.T.);
#511=EDGE_CURVE('',#409,#410,#269,.T.);
#512=EDGE_CURVE('',#410,#410,#83,.T.);
#513=EDGE_CURVE('',#410,#411,#270,.T.);
#514=EDGE_CURVE('',#411,#411,#84,.T.);
#515=EDGE_CURVE('',#408,#409,#271,.T.);
#516=EDGE_CURVE('',#412,#412,#85,.T.);
#517=EDGE_CURVE('',#412,#413,#272,.T.);
#518=EDGE_CURVE('',#413,#413,#86,.T.);
#519=EDGE_CURVE('',#413,#414,#273,.T.);
#520=EDGE_CURVE('',#414,#414,#87,.T.);
#521=EDGE_CURVE('',#411,#412,#274,.T.);
#522=EDGE_CURVE('',#415,#415,#88,.T.);
#523=EDGE_CURVE('',#415,#416,#275,.T.);
#524=EDGE_CURVE('',#416,#416,#89,.T.);
#525=EDGE_CURVE('',#416,#417,#276,.T.);
#526=EDGE_CURVE('',#417,#417,#90,.T.);
#527=EDGE_CURVE('',#414,#415,#277,.T.);
#528=EDGE_CURVE('',#418,#418,#91,.T.);
#529=EDGE_CURVE('',#418,#419,#278,.T.);
#530=EDGE_CURVE('',#419,#419,#92,.T.);
#531=EDGE_CURVE('',#419,#420,#279,.T.);
#532=EDGE_CURVE('',#420,#420,#93,.T.);
#533=EDGE_CURVE('',#417,#418,#280,.T.);
#534=EDGE_CURVE('',#421,#421,#94,.T.);
#535=EDGE_CURVE('',#421,#387,#281,.T.);
#536=EDGE_CURVE('',#420,#422,#282,.T.);
#537=EDGE_CURVE('',#422,#422,#95,.T.);
#538=EDGE_CURVE('',#423,#423,#96,.T.);
#539=EDGE_CURVE('',#423,#379,#283,.T.);
#540=ORIENTED_EDGE('',*,*,#424,.F.);
#541=ORIENTED_EDGE('',*,*,#425,.F.);
#542=ORIENTED_EDGE('',*,*,#426,.F.);
#543=ORIENTED_EDGE('',*,*,#427,.T.);
#544=ORIENTED_EDGE('',*,*,#428,.F.);
#545=ORIENTED_EDGE('',*,*,#429,.T.);
#546=ORIENTED_EDGE('',*,*,#430,.T.);
#547=ORIENTED_EDGE('',*,*,#431,.F.);
#548=ORIENTED_EDGE('',*,*,#432,.F.);
#549=ORIENTED_EDGE('',*,*,#433,.F.);
#550=ORIENTED_EDGE('',*,*,#434,.F.);
#551=ORIENTED_EDGE('',*,*,#435,.T.);
#552=ORIENTED_EDGE('',*,*,#430,.F.);
#553=ORIENTED_EDGE('',*,*,#436,.T.);
#554=ORIENTED_EDGE('',*,*,#426,.T.);
#555=ORIENTED_EDGE('',*,*,#437,.F.);
#556=ORIENTED_EDGE('',*,*,#438,.F.);
#557=ORIENTED_EDGE('',*,*,#439,.T.);
#558=ORIENTED_EDGE('',*,*,#434,.T.);
#559=ORIENTED_EDGE('',*,*,#440,.F.);
#560=ORIENTED_EDGE('',*,*,#441,.F.);
#561=ORIENTED_EDGE('',*,*,#442,.T.);
#562=ORIENTED_EDGE('',*,*,#438,.T.);
#563=ORIENTED_EDGE('',*,*,#443,.F.);
#564=ORIENTED_EDGE('',*,*,#432,.T.);
#565=ORIENTED_EDGE('',*,*,#444,.T.);
#566=ORIENTED_EDGE('',*,*,#445,.T.);
#567=ORIENTED_EDGE('',*,*,#446,.F.);
#568=ORIENTED_EDGE('',*,*,#428,.T.);
#569=ORIENTED_EDGE('',*,*,#447,.F.);
#570=ORIENTED_EDGE('',*,*,#448,.F.);
#571=ORIENTED_EDGE('',*,*,#449,.T.);
#572=ORIENTED_EDGE('',*,*,#450,.T.);
#573=ORIENTED_EDGE('',*,*,#443,.T.);
#574=ORIENTED_EDGE('',*,*,#440,.T.);
#575=ORIENTED_EDGE('',*,*,#433,.T.);
#576=ORIENTED_EDGE('',*,*,#446,.T.);
#577=ORIENTED_EDGE('',*,*,#451,.T.);
#578=ORIENTED_EDGE('',*,*,#447,.T.);
#579=ORIENTED_EDGE('',*,*,#431,.T.);
#580=ORIENTED_EDGE('',*,*,#437,.T.);
#581=ORIENTED_EDGE('',*,*,#425,.T.);
#582=ORIENTED_EDGE('',*,*,#452,.T.);
#583=ORIENTED_EDGE('',*,*,#453,.T.);
#584=ORIENTED_EDGE('',*,*,#454,.T.);
#585=ORIENTED_EDGE('',*,*,#455,.F.);
#586=ORIENTED_EDGE('',*,*,#456,.F.);
#587=ORIENTED_EDGE('',*,*,#457,.F.);
#588=ORIENTED_EDGE('',*,*,#427,.F.);
#589=ORIENTED_EDGE('',*,*,#436,.F.);
#590=ORIENTED_EDGE('',*,*,#429,.F.);
#591=ORIENTED_EDGE('',*,*,#449,.F.);
#592=ORIENTED_EDGE('',*,*,#458,.F.);
#593=ORIENTED_EDGE('',*,*,#444,.F.);
#594=ORIENTED_EDGE('',*,*,#435,.F.);
#595=ORIENTED_EDGE('',*,*,#439,.F.);
#596=ORIENTED_EDGE('',*,*,#442,.F.);
#597=ORIENTED_EDGE('',*,*,#424,.T.);
#598=ORIENTED_EDGE('',*,*,#457,.T.);
#599=ORIENTED_EDGE('',*,*,#459,.T.);
#600=ORIENTED_EDGE('',*,*,#452,.F.);
#601=ORIENTED_EDGE('',*,*,#445,.F.);
#602=ORIENTED_EDGE('',*,*,#458,.T.);
#603=ORIENTED_EDGE('',*,*,#448,.T.);
#604=ORIENTED_EDGE('',*,*,#451,.F.);
#605=ORIENTED_EDGE('',*,*,#441,.T.);
#606=ORIENTED_EDGE('',*,*,#454,.F.);
#607=ORIENTED_EDGE('',*,*,#460,.F.);
#608=ORIENTED_EDGE('',*,*,#455,.T.);
#609=ORIENTED_EDGE('',*,*,#459,.F.);
#610=ORIENTED_EDGE('',*,*,#456,.T.);
#611=ORIENTED_EDGE('',*,*,#460,.T.);
#612=ORIENTED_EDGE('',*,*,#453,.F.);
#613=ORIENTED_EDGE('',*,*,#461,.F.);
#614=ORIENTED_EDGE('',*,*,#462,.T.);
#615=ORIENTED_EDGE('',*,*,#463,.T.);
#616=ORIENTED_EDGE('',*,*,#462,.F.);
#617=ORIENTED_EDGE('',*,*,#463,.F.);
#618=ORIENTED_EDGE('',*,*,#464,.T.);
#619=ORIENTED_EDGE('',*,*,#465,.F.);
#620=ORIENTED_EDGE('',*,*,#464,.F.);
#621=ORIENTED_EDGE('',*,*,#466,.F.);
#622=ORIENTED_EDGE('',*,*,#467,.T.);
#623=ORIENTED_EDGE('',*,*,#461,.T.);
#624=ORIENTED_EDGE('',*,*,#467,.F.);
#625=ORIENTED_EDGE('',*,*,#468,.F.);
#626=ORIENTED_EDGE('',*,*,#469,.T.);
#627=ORIENTED_EDGE('',*,*,#470,.T.);
#628=ORIENTED_EDGE('',*,*,#469,.F.);
#629=ORIENTED_EDGE('',*,*,#470,.F.);
#630=ORIENTED_EDGE('',*,*,#471,.T.);
#631=ORIENTED_EDGE('',*,*,#472,.F.);
#632=ORIENTED_EDGE('',*,*,#471,.F.);
#633=ORIENTED_EDGE('',*,*,#465,.T.);
#634=ORIENTED_EDGE('',*,*,#473,.T.);
#635=ORIENTED_EDGE('',*,*,#468,.T.);
#636=ORIENTED_EDGE('',*,*,#473,.F.);
#637=ORIENTED_EDGE('',*,*,#474,.F.);
#638=ORIENTED_EDGE('',*,*,#475,.T.);
#639=ORIENTED_EDGE('',*,*,#476,.T.);
#640=ORIENTED_EDGE('',*,*,#475,.F.);
#641=ORIENTED_EDGE('',*,*,#476,.F.);
#642=ORIENTED_EDGE('',*,*,#477,.T.);
#643=ORIENTED_EDGE('',*,*,#478,.F.);
#644=ORIENTED_EDGE('',*,*,#477,.F.);
#645=ORIENTED_EDGE('',*,*,#472,.T.);
#646=ORIENTED_EDGE('',*,*,#479,.T.);
#647=ORIENTED_EDGE('',*,*,#474,.T.);
#648=ORIENTED_EDGE('',*,*,#479,.F.);
#649=ORIENTED_EDGE('',*,*,#480,.F.);
#650=ORIENTED_EDGE('',*,*,#481,.T.);
#651=ORIENTED_EDGE('',*,*,#482,.T.);
#652=ORIENTED_EDGE('',*,*,#481,.F.);
#653=ORIENTED_EDGE('',*,*,#482,.F.);
#654=ORIENTED_EDGE('',*,*,#483,.T.);
#655=ORIENTED_EDGE('',*,*,#484,.F.);
#656=ORIENTED_EDGE('',*,*,#483,.F.);
#657=ORIENTED_EDGE('',*,*,#478,.T.);
#658=ORIENTED_EDGE('',*,*,#485,.T.);
#659=ORIENTED_EDGE('',*,*,#480,.T.);
#660=ORIENTED_EDGE('',*,*,#485,.F.);
#661=ORIENTED_EDGE('',*,*,#486,.F.);
#662=ORIENTED_EDGE('',*,*,#487,.T.);
#663=ORIENTED_EDGE('',*,*,#488,.T.);
#664=ORIENTED_EDGE('',*,*,#487,.F.);
#665=ORIENTED_EDGE('',*,*,#488,.F.);
#666=ORIENTED_EDGE('',*,*,#489,.T.);
#667=ORIENTED_EDGE('',*,*,#490,.F.);
#668=ORIENTED_EDGE('',*,*,#489,.F.);
#669=ORIENTED_EDGE('',*,*,#484,.T.);
#670=ORIENTED_EDGE('',*,*,#491,.T.);
#671=ORIENTED_EDGE('',*,*,#486,.T.);
#672=ORIENTED_EDGE('',*,*,#491,.F.);
#673=ORIENTED_EDGE('',*,*,#492,.F.);
#674=ORIENTED_EDGE('',*,*,#493,.T.);
#675=ORIENTED_EDGE('',*,*,#494,.T.);
#676=ORIENTED_EDGE('',*,*,#493,.F.);
#677=ORIENTED_EDGE('',*,*,#494,.F.);
#678=ORIENTED_EDGE('',*,*,#495,.T.);
#679=ORIENTED_EDGE('',*,*,#496,.F.);
#680=ORIENTED_EDGE('',*,*,#495,.F.);
#681=ORIENTED_EDGE('',*,*,#490,.T.);
#682=ORIENTED_EDGE('',*,*,#497,.T.);
#683=ORIENTED_EDGE('',*,*,#492,.T.);
#684=ORIENTED_EDGE('',*,*,#497,.F.);
#685=ORIENTED_EDGE('',*,*,#498,.F.);
#686=ORIENTED_EDGE('',*,*,#499,.T.);
#687=ORIENTED_EDGE('',*,*,#500,.T.);
#688=ORIENTED_EDGE('',*,*,#499,.F.);
#689=ORIENTED_EDGE('',*,*,#500,.F.);
#690=ORIENTED_EDGE('',*,*,#501,.T.);
#691=ORIENTED_EDGE('',*,*,#502,.F.);
#692=ORIENTED_EDGE('',*,*,#501,.F.);
#693=ORIENTED_EDGE('',*,*,#496,.T.);
#694=ORIENTED_EDGE('',*,*,#503,.T.);
#695=ORIENTED_EDGE('',*,*,#498,.T.);
#696=ORIENTED_EDGE('',*,*,#503,.F.);
#697=ORIENTED_EDGE('',*,*,#504,.F.);
#698=ORIENTED_EDGE('',*,*,#505,.T.);
#699=ORIENTED_EDGE('',*,*,#506,.T.);
#700=ORIENTED_EDGE('',*,*,#505,.F.);
#701=ORIENTED_EDGE('',*,*,#506,.F.);
#702=ORIENTED_EDGE('',*,*,#507,.T.);
#703=ORIENTED_EDGE('',*,*,#508,.F.);
#704=ORIENTED_EDGE('',*,*,#507,.F.);
#705=ORIENTED_EDGE('',*,*,#502,.T.);
#706=ORIENTED_EDGE('',*,*,#509,.T.);
#707=ORIENTED_EDGE('',*,*,#504,.T.);
#708=ORIENTED_EDGE('',*,*,#509,.F.);
#709=ORIENTED_EDGE('',*,*,#510,.F.);
#710=ORIENTED_EDGE('',*,*,#511,.T.);
#711=ORIENTED_EDGE('',*,*,#512,.T.);
#712=ORIENTED_EDGE('',*,*,#511,.F.);
#713=ORIENTED_EDGE('',*,*,#512,.F.);
#714=ORIENTED_EDGE('',*,*,#513,.T.);
#715=ORIENTED_EDGE('',*,*,#514,.F.);
#716=ORIENTED_EDGE('',*,*,#513,.F.);
#717=ORIENTED_EDGE('',*,*,#508,.T.);
#718=ORIENTED_EDGE('',*,*,#515,.T.);
#719=ORIENTED_EDGE('',*,*,#510,.T.);
#720=ORIENTED_EDGE('',*,*,#515,.F.);
#721=ORIENTED_EDGE('',*,*,#516,.F.);
#722=ORIENTED_EDGE('',*,*,#517,.T.);
#723=ORIENTED_EDGE('',*,*,#518,.T.);
#724=ORIENTED_EDGE('',*,*,#517,.F.);
#725=ORIENTED_EDGE('',*,*,#518,.F.);
#726=ORIENTED_EDGE('',*,*,#519,.T.);
#727=ORIENTED_EDGE('',*,*,#520,.F.);
#728=ORIENTED_EDGE('',*,*,#519,.F.);
#729=ORIENTED_EDGE('',*,*,#514,.T.);
#730=ORIENTED_EDGE('',*,*,#521,.T.);
#731=ORIENTED_EDGE('',*,*,#516,.T.);
#732=ORIENTED_EDGE('',*,*,#521,.F.);
#733=ORIENTED_EDGE('',*,*,#522,.F.);
#734=ORIENTED_EDGE('',*,*,#523,.T.);
#735=ORIENTED_EDGE('',*,*,#524,.T.);
#736=ORIENTED_EDGE('',*,*,#523,.F.);
#737=ORIENTED_EDGE('',*,*,#524,.F.);
#738=ORIENTED_EDGE('',*,*,#525,.T.);
#739=ORIENTED_EDGE('',*,*,#526,.F.);
#740=ORIENTED_EDGE('',*,*,#525,.F.);
#741=ORIENTED_EDGE('',*,*,#520,.T.);
#742=ORIENTED_EDGE('',*,*,#527,.T.);
#743=ORIENTED_EDGE('',*,*,#522,.T.);
#744=ORIENTED_EDGE('',*,*,#527,.F.);
#745=ORIENTED_EDGE('',*,*,#528,.F.);
#746=ORIENTED_EDGE('',*,*,#529,.T.);
#747=ORIENTED_EDGE('',*,*,#530,.T.);
#748=ORIENTED_EDGE('',*,*,#529,.F.);
#749=ORIENTED_EDGE('',*,*,#530,.F.);
#750=ORIENTED_EDGE('',*,*,#531,.T.);
#751=ORIENTED_EDGE('',*,*,#532,.F.);
#752=ORIENTED_EDGE('',*,*,#531,.F.);
#753=ORIENTED_EDGE('',*,*,#526,.T.);
#754=ORIENTED_EDGE('',*,*,#533,.T.);
#755=ORIENTED_EDGE('',*,*,#528,.T.);
#756=ORIENTED_EDGE('',*,*,#533,.F.);
#757=ORIENTED_EDGE('',*,*,#534,.F.);
#758=ORIENTED_EDGE('',*,*,#535,.T.);
#759=ORIENTED_EDGE('',*,*,#466,.T.);
#760=ORIENTED_EDGE('',*,*,#535,.F.);
#761=ORIENTED_EDGE('',*,*,#534,.T.);
#762=ORIENTED_EDGE('',*,*,#532,.T.);
#763=ORIENTED_EDGE('',*,*,#536,.T.);
#764=ORIENTED_EDGE('',*,*,#537,.F.);
#765=ORIENTED_EDGE('',*,*,#536,.F.);
#766=ORIENTED_EDGE('',*,*,#538,.F.);
#767=ORIENTED_EDGE('',*,*,#539,.T.);
#768=ORIENTED_EDGE('',*,*,#450,.F.);
#769=ORIENTED_EDGE('',*,*,#539,.F.);
#770=ORIENTED_EDGE('',*,*,#538,.T.);
#771=ORIENTED_EDGE('',*,*,#537,.T.);
#772=PLANE('',#857);
#773=PLANE('',#858);
#774=PLANE('',#859);
#775=PLANE('',#860);
#776=PLANE('',#861);
#777=PLANE('',#862);
#778=PLANE('',#863);
#779=PLANE('',#864);
#780=PLANE('',#865);
#781=PLANE('',#867);
#782=PLANE('',#868);
#783=PLANE('',#869);
#784=PLANE('',#870);
#785=PLANE('',#871);
#786=PLANE('',#947);
#787=PLANE('',#952);
#788=ADVANCED_FACE('',(#97),#772,.T.);
#789=ADVANCED_FACE('',(#98),#773,.T.);
#790=ADVANCED_FACE('',(#99),#774,.T.);
#791=ADVANCED_FACE('',(#100),#775,.T.);
#792=ADVANCED_FACE('',(#101),#776,.T.);
#793=ADVANCED_FACE('',(#102),#777,.T.);
#794=ADVANCED_FACE('',(#103),#778,.T.);
#795=ADVANCED_FACE('',(#104),#779,.T.);
#796=ADVANCED_FACE('',(#105,#54),#780,.T.);
#797=ADVANCED_FACE('',(#106),#781,.F.);
#798=ADVANCED_FACE('',(#107),#782,.T.);
#799=ADVANCED_FACE('',(#108),#783,.T.);
#800=ADVANCED_FACE('',(#109),#784,.T.);
#801=ADVANCED_FACE('',(#110),#785,.T.);
#802=ADVANCED_FACE('',(#111),#28,.T.);
#803=ADVANCED_FACE('',(#112),#29,.T.);
#804=ADVANCED_FACE('',(#113),#15,.T.);
#805=ADVANCED_FACE('',(#114),#30,.T.);
#806=ADVANCED_FACE('',(#115),#31,.T.);
#807=ADVANCED_FACE('',(#116),#16,.T.);
#808=ADVANCED_FACE('',(#117),#32,.T.);
#809=ADVANCED_FACE('',(#118),#33,.T.);
#810=ADVANCED_FACE('',(#119),#17,.T.);
#811=ADVANCED_FACE('',(#120),#34,.T.);
#812=ADVANCED_FACE('',(#121),#35,.T.);
#813=ADVANCED_FACE('',(#122),#18,.T.);
#814=ADVANCED_FACE('',(#123),#36,.T.);
#815=ADVANCED_FACE('',(#124),#37,.T.);
#816=ADVANCED_FACE('',(#125),#19,.T.);
#817=ADVANCED_FACE('',(#126),#38,.T.);
#818=ADVANCED_FACE('',(#127),#39,.T.);
#819=ADVANCED_FACE('',(#128),#20,.T.);
#820=ADVANCED_FACE('',(#129),#40,.T.);
#821=ADVANCED_FACE('',(#130),#41,.T.);
#822=ADVANCED_FACE('',(#131),#21,.T.);
#823=ADVANCED_FACE('',(#132),#42,.T.);
#824=ADVANCED_FACE('',(#133),#43,.T.);
#825=ADVANCED_FACE('',(#134),#22,.T.);
#826=ADVANCED_FACE('',(#135),#44,.T.);
#827=ADVANCED_FACE('',(#136),#45,.T.);
#828=ADVANCED_FACE('',(#137),#23,.T.);
#829=ADVANCED_FACE('',(#138),#46,.T.);
#830=ADVANCED_FACE('',(#139),#47,.T.);
#831=ADVANCED_FACE('',(#140),#24,.T.);
#832=ADVANCED_FACE('',(#141),#48,.T.);
#833=ADVANCED_FACE('',(#142),#49,.T.);
#834=ADVANCED_FACE('',(#143),#25,.T.);
#835=ADVANCED_FACE('',(#144),#50,.T.);
#836=ADVANCED_FACE('',(#145),#51,.T.);
#837=ADVANCED_FACE('',(#146),#26,.T.);
#838=ADVANCED_FACE('',(#147),#52,.T.);
#839=ADVANCED_FACE('',(#148),#786,.T.);
#840=ADVANCED_FACE('',(#149),#27,.T.);
#841=ADVANCED_FACE('',(#150),#53,.T.);
#842=ADVANCED_FACE('',(#151,#55),#787,.T.);
#843=CLOSED_SHELL('',(#788,#789,#790,#791,#792,#793,#794,#795,#796,#797,
#798,#799,#800,#801,#802,#803,#804,#805,#806,#807,#808,#809,#810,#811,#812,
#813,#814,#815,#816,#817,#818,#819,#820,#821,#822,#823,#824,#825,#826,#827,
#828,#829,#830,#831,#832,#833,#834,#835,#836,#837,#838,#839,#840,#841,#842));
#844=DERIVED_UNIT_ELEMENT(#846,1.);
#845=DERIVED_UNIT_ELEMENT(#1464,-3.);
#846=(
MASS_UNIT()
NAMED_UNIT(*)
SI_UNIT(.KILO.,.GRAM.)
);
#847=DERIVED_UNIT((#844,#845));
#848=MEASURE_REPRESENTATION_ITEM('density measure',
POSITIVE_RATIO_MEASURE(7850.),#847);
#849=PROPERTY_DEFINITION_REPRESENTATION(#854,#851);
#850=PROPERTY_DEFINITION_REPRESENTATION(#855,#852);
#851=REPRESENTATION('material name',(#853),#1461);
#852=REPRESENTATION('density',(#848),#1461);
#853=DESCRIPTIVE_REPRESENTATION_ITEM('Steel','Steel');
#854=PROPERTY_DEFINITION('material property','material name',#1471);
#855=PROPERTY_DEFINITION('material property','density of part',#1471);
#856=AXIS2_PLACEMENT_3D('',#1222,#953,#954);
#857=AXIS2_PLACEMENT_3D('',#1223,#955,#956);
#858=AXIS2_PLACEMENT_3D('',#1232,#961,#962);
#859=AXIS2_PLACEMENT_3D('',#1241,#967,#968);
#860=AXIS2_PLACEMENT_3D('',#1250,#973,#974);
#861=AXIS2_PLACEMENT_3D('',#1253,#977,#978);
#862=AXIS2_PLACEMENT_3D('',#1259,#982,#983);
#863=AXIS2_PLACEMENT_3D('',#1265,#987,#988);
#864=AXIS2_PLACEMENT_3D('',#1271,#992,#993);
#865=AXIS2_PLACEMENT_3D('',#1277,#997,#998);
#866=AXIS2_PLACEMENT_3D('',#1279,#999,#1000);
#867=AXIS2_PLACEMENT_3D('',#1286,#1005,#1006);
#868=AXIS2_PLACEMENT_3D('',#1293,#1011,#1012);
#869=AXIS2_PLACEMENT_3D('',#1295,#1014,#1015);
#870=AXIS2_PLACEMENT_3D('',#1296,#1016,#1017);
#871=AXIS2_PLACEMENT_3D('',#1298,#1019,#1020);
#872=AXIS2_PLACEMENT_3D('',#1299,#1021,#1022);
#873=AXIS2_PLACEMENT_3D('',#1301,#1023,#1024);
#874=AXIS2_PLACEMENT_3D('',#1304,#1026,#1027);
#875=AXIS2_PLACEMENT_3D('',#1305,#1028,#1029);
#876=AXIS2_PLACEMENT_3D('',#1308,#1031,#1032);
#877=AXIS2_PLACEMENT_3D('',#1309,#1033,#1034);
#878=AXIS2_PLACEMENT_3D('',#1311,#1035,#1036);
#879=AXIS2_PLACEMENT_3D('',#1313,#1038,#1039);
#880=AXIS2_PLACEMENT_3D('',#1315,#1040,#1041);
#881=AXIS2_PLACEMENT_3D('',#1318,#1043,#1044);
#882=AXIS2_PLACEMENT_3D('',#1319,#1045,#1046);
#883=AXIS2_PLACEMENT_3D('',#1322,#1048,#1049);
#884=AXIS2_PLACEMENT_3D('',#1323,#1050,#1051);
#885=AXIS2_PLACEMENT_3D('',#1325,#1053,#1054);
#886=AXIS2_PLACEMENT_3D('',#1327,#1055,#1056);
#887=AXIS2_PLACEMENT_3D('',#1330,#1058,#1059);
#888=AXIS2_PLACEMENT_3D('',#1331,#1060,#1061);
#889=AXIS2_PLACEMENT_3D('',#1334,#1063,#1064);
#890=AXIS2_PLACEMENT_3D('',#1335,#1065,#1066);
#891=AXIS2_PLACEMENT_3D('',#1337,#1068,#1069);
#892=AXIS2_PLACEMENT_3D('',#1339,#1070,#1071);
#893=AXIS2_PLACEMENT_3D('',#1342,#1073,#1074);
#894=AXIS2_PLACEMENT_3D('',#1343,#1075,#1076);
#895=AXIS2_PLACEMENT_3D('',#1346,#1078,#1079);
#896=AXIS2_PLACEMENT_3D('',#1347,#1080,#1081);
#897=AXIS2_PLACEMENT_3D('',#1349,#1083,#1084);
#898=AXIS2_PLACEMENT_3D('',#1351,#1085,#1086);
#899=AXIS2_PLACEMENT_3D('',#1354,#1088,#1089);
#900=AXIS2_PLACEMENT_3D('',#1355,#1090,#1091);
#901=AXIS2_PLACEMENT_3D('',#1358,#1093,#1094);
#902=AXIS2_PLACEMENT_3D('',#1359,#1095,#1096);
#903=AXIS2_PLACEMENT_3D('',#1361,#1098,#1099);
#904=AXIS2_PLACEMENT_3D('',#1363,#1100,#1101);
#905=AXIS2_PLACEMENT_3D('',#1366,#1103,#1104);
#906=AXIS2_PLACEMENT_3D('',#1367,#1105,#1106);
#907=AXIS2_PLACEMENT_3D('',#1370,#1108,#1109);
#908=AXIS2_PLACEMENT_3D('',#1371,#1110,#1111);
#909=AXIS2_PLACEMENT_3D('',#1373,#1113,#1114);
#910=AXIS2_PLACEMENT_3D('',#1375,#1115,#1116);
#911=AXIS2_PLACEMENT_3D('',#1378,#1118,#1119);
#912=AXIS2_PLACEMENT_3D('',#1379,#1120,#1121);
#913=AXIS2_PLACEMENT_3D('',#1382,#1123,#1124);
#914=AXIS2_PLACEMENT_3D('',#1383,#1125,#1126);
#915=AXIS2_PLACEMENT_3D('',#1385,#1128,#1129);
#916=AXIS2_PLACEMENT_3D('',#1387,#1130,#1131);
#917=AXIS2_PLACEMENT_3D('',#1390,#1133,#1134);
#918=AXIS2_PLACEMENT_3D('',#1391,#1135,#1136);
#919=AXIS2_PLACEMENT_3D('',#1394,#1138,#1139);
#920=AXIS2_PLACEMENT_3D('',#1395,#1140,#1141);
#921=AXIS2_PLACEMENT_3D('',#1397,#1143,#1144);
#922=AXIS2_PLACEMENT_3D('',#1399,#1145,#1146);
#923=AXIS2_PLACEMENT_3D('',#1402,#1148,#1149);
#924=AXIS2_PLACEMENT_3D('',#1403,#1150,#1151);
#925=AXIS2_PLACEMENT_3D('',#1406,#1153,#1154);
#926=AXIS2_PLACEMENT_3D('',#1407,#1155,#1156);
#927=AXIS2_PLACEMENT_3D('',#1409,#1158,#1159);
#928=AXIS2_PLACEMENT_3D('',#1411,#1160,#1161);
#929=AXIS2_PLACEMENT_3D('',#1414,#1163,#1164);
#930=AXIS2_PLACEMENT_3D('',#1415,#1165,#1166);
#931=AXIS2_PLACEMENT_3D('',#1418,#1168,#1169);
#932=AXIS2_PLACEMENT_3D('',#1419,#1170,#1171);
#933=AXIS2_PLACEMENT_3D('',#1421,#1173,#1174);
#934=AXIS2_PLACEMENT_3D('',#1423,#1175,#1176);
#935=AXIS2_PLACEMENT_3D('',#1426,#1178,#1179);
#936=AXIS2_PLACEMENT_3D('',#1427,#1180,#1181);
#937=AXIS2_PLACEMENT_3D('',#1430,#1183,#1184);
#938=AXIS2_PLACEMENT_3D('',#1431,#1185,#1186);
#939=AXIS2_PLACEMENT_3D('',#1433,#1188,#1189);
#940=AXIS2_PLACEMENT_3D('',#1435,#1190,#1191);
#941=AXIS2_PLACEMENT_3D('',#1438,#1193,#1194);
#942=AXIS2_PLACEMENT_3D('',#1439,#1195,#1196);
#943=AXIS2_PLACEMENT_3D('',#1442,#1198,#1199);
#944=AXIS2_PLACEMENT_3D('',#1443,#1200,#1201);
#945=AXIS2_PLACEMENT_3D('',#1445,#1203,#1204);
#946=AXIS2_PLACEMENT_3D('',#1447,#1205,#1206);
#947=AXIS2_PLACEMENT_3D('',#1449,#1208,#1209);
#948=AXIS2_PLACEMENT_3D('',#1450,#1210,#1211);
#949=AXIS2_PLACEMENT_3D('',#1453,#1213,#1214);
#950=AXIS2_PLACEMENT_3D('',#1454,#1215,#1216);
#951=AXIS2_PLACEMENT_3D('',#1456,#1217,#1218);
#952=AXIS2_PLACEMENT_3D('',#1458,#1220,#1221);
#953=DIRECTION('axis',(0.,0.,1.));
#954=DIRECTION('refdir',(1.,0.,0.));
#955=DIRECTION('center_axis',(-1.,0.,0.));
#956=DIRECTION('ref_axis',(0.,0.,1.));
#957=DIRECTION('',(0.,0.,1.));
#958=DIRECTION('',(0.,1.,0.));
#959=DIRECTION('',(0.,0.,-1.));
#960=DIRECTION('',(0.,1.,0.));
#961=DIRECTION('center_axis',(1.,0.,0.));
#962=DIRECTION('ref_axis',(0.,0.,-1.));
#963=DIRECTION('',(0.,0.,-1.));
#964=DIRECTION('',(0.,-1.,0.));
#965=DIRECTION('',(0.,0.,-1.));
#966=DIRECTION('',(0.,-1.,0.));
#967=DIRECTION('center_axis',(1.,0.,0.));
#968=DIRECTION('ref_axis',(0.,0.,-1.));
#969=DIRECTION('',(0.,0.,1.));
#970=DIRECTION('',(0.,-1.,0.));
#971=DIRECTION('',(0.,0.,-1.));
#972=DIRECTION('',(0.,-1.,0.));
#973=DIRECTION('center_axis',(0.,1.,0.));
#974=DIRECTION('ref_axis',(0.,0.,1.));
#975=DIRECTION('',(1.,0.,0.));
#976=DIRECTION('',(1.,0.,0.));
#977=DIRECTION('center_axis',(0.,-1.,0.));
#978=DIRECTION('ref_axis',(0.,0.,-1.));
#979=DIRECTION('',(0.,0.,-1.));
#980=DIRECTION('',(-1.,0.,0.));
#981=DIRECTION('',(-1.,0.,0.));
#982=DIRECTION('center_axis',(-1.,0.,0.));
#983=DIRECTION('ref_axis',(0.,0.,1.));
#984=DIRECTION('',(0.,0.,-1.));
#985=DIRECTION('',(0.,1.,0.));
#986=DIRECTION('',(0.,1.,0.));
#987=DIRECTION('center_axis',(0.,-1.,0.));
#988=DIRECTION('ref_axis',(0.,0.,-1.));
#989=DIRECTION('',(-1.,0.,0.));
#990=DIRECTION('',(0.,0.,-1.));
#991=DIRECTION('',(-1.,0.,0.));
#992=DIRECTION('center_axis',(0.,1.,0.));
#993=DIRECTION('ref_axis',(0.,0.,1.));
#994=DIRECTION('',(1.,0.,0.));
#995=DIRECTION('',(0.,0.,-1.));
#996=DIRECTION('',(1.,0.,0.));
#997=DIRECTION('center_axis',(0.,0.,-1.));
#998=DIRECTION('ref_axis',(-1.,0.,0.));
#999=DIRECTION('center_axis',(0.,0.,-1.));
#1000=DIRECTION('ref_axis',(1.,0.,0.));
#1001=DIRECTION('',(0.,-1.,0.));
#1002=DIRECTION('',(1.,0.,0.));
#1003=DIRECTION('',(0.,1.,0.));
#1004=DIRECTION('',(-1.,0.,0.));
#1005=DIRECTION('center_axis',(0.,0.,1.));
#1006=DIRECTION('ref_axis',(1.,0.,0.));
#1007=DIRECTION('',(-1.,0.,0.));
#1008=DIRECTION('',(0.,1.,0.));
#1009=DIRECTION('',(1.,0.,0.));
#1010=DIRECTION('',(0.,-1.,0.));
#1011=DIRECTION('center_axis',(0.,1.,0.));
#1012=DIRECTION('ref_axis',(0.,0.,1.));
#1013=DIRECTION('',(0.,0.,-1.));
#1014=DIRECTION('center_axis',(1.,0.,0.));
#1015=DIRECTION('ref_axis',(0.,0.,-1.));
#1016=DIRECTION('center_axis',(0.,-1.,0.));
#1017=DIRECTION('ref_axis',(0.,0.,-1.));
#1018=DIRECTION('',(0.,0.,-1.));
#1019=DIRECTION('center_axis',(-1.,0.,0.));
#1020=DIRECTION('ref_axis',(0.,0.,1.));
#1021=DIRECTION('center_axis',(0.,0.,-1.));
#1022=DIRECTION('ref_axis',(1.,0.,0.));
#1023=DIRECTION('center_axis',(0.,0.,1.));
#1024=DIRECTION('ref_axis',(1.,0.,0.));
#1025=DIRECTION('',(-0.768221279597377,-9.40799731095811E-17,-0.640184399664479));
#1026=DIRECTION('center_axis',(0.,0.,1.));
#1027=DIRECTION('ref_axis',(1.,0.,0.));
#1028=DIRECTION('center_axis',(0.,0.,1.));
#1029=DIRECTION('ref_axis',(1.,0.,0.));
#1030=DIRECTION('',(0.768221279597377,9.40799731095811E-17,-0.640184399664479));
#1031=DIRECTION('center_axis',(0.,0.,-1.));
#1032=DIRECTION('ref_axis',(1.,0.,0.));
#1033=DIRECTION('center_axis',(0.,0.,1.));
#1034=DIRECTION('ref_axis',(1.,0.,0.));
#1035=DIRECTION('center_axis',(0.,0.,1.));
#1036=DIRECTION('ref_axis',(1.,0.,0.));
#1037=DIRECTION('',(0.,0.,-1.));
#1038=DIRECTION('center_axis',(0.,0.,-1.));
#1039=DIRECTION('ref_axis',(1.,0.,0.));
#1040=DIRECTION('center_axis',(0.,0.,1.));
#1041=DIRECTION('ref_axis',(1.,0.,0.));
#1042=DIRECTION('',(-0.768221279597377,-9.40799731095811E-17,-0.640184399664479));
#1043=DIRECTION('center_axis',(0.,0.,1.));
#1044=DIRECTION('ref_axis',(1.,0.,0.));
#1045=DIRECTION('center_axis',(0.,0.,1.));
#1046=DIRECTION('ref_axis',(1.,0.,0.));
#1047=DIRECTION('',(0.768221279597377,9.40799731095811E-17,-0.640184399664479));
#1048=DIRECTION('center_axis',(0.,0.,-1.));
#1049=DIRECTION('ref_axis',(1.,0.,0.));
#1050=DIRECTION('center_axis',(0.,0.,1.));
#1051=DIRECTION('ref_axis',(1.,0.,0.));
#1052=DIRECTION('',(0.,0.,-1.));
#1053=DIRECTION('center_axis',(0.,0.,-1.));
#1054=DIRECTION('ref_axis',(1.,0.,0.));
#1055=DIRECTION('center_axis',(0.,0.,1.));
#1056=DIRECTION('ref_axis',(1.,0.,0.));
#1057=DIRECTION('',(-0.768221279597377,-9.40799731095811E-17,-0.640184399664479));
#1058=DIRECTION('center_axis',(0.,0.,1.));
#1059=DIRECTION('ref_axis',(1.,0.,0.));
#1060=DIRECTION('center_axis',(0.,0.,1.));
#1061=DIRECTION('ref_axis',(1.,0.,0.));
#1062=DIRECTION('',(0.768221279597377,9.40799731095811E-17,-0.640184399664479));
#1063=DIRECTION('center_axis',(0.,0.,-1.));
#1064=DIRECTION('ref_axis',(1.,0.,0.));
#1065=DIRECTION('center_axis',(0.,0.,1.));
#1066=DIRECTION('ref_axis',(1.,0.,0.));
#1067=DIRECTION('',(0.,0.,-1.));
#1068=DIRECTION('center_axis',(0.,0.,-1.));
#1069=DIRECTION('ref_axis',(1.,0.,0.));
#1070=DIRECTION('center_axis',(0.,0.,1.));
#1071=DIRECTION('ref_axis',(1.,0.,0.));
#1072=DIRECTION('',(-0.768221279597377,-9.40799731095811E-17,-0.640184399664479));
#1073=DIRECTION('center_axis',(0.,0.,1.));
#1074=DIRECTION('ref_axis',(1.,0.,0.));
#1075=DIRECTION('center_axis',(0.,0.,1.));
#1076=DIRECTION('ref_axis',(1.,0.,0.));
#1077=DIRECTION('',(0.768221279597377,9.40799731095811E-17,-0.640184399664479));
#1078=DIRECTION('center_axis',(0.,0.,-1.));
#1079=DIRECTION('ref_axis',(1.,0.,0.));
#1080=DIRECTION('center_axis',(0.,0.,1.));
#1081=DIRECTION('ref_axis',(1.,0.,0.));
#1082=DIRECTION('',(0.,0.,-1.));
#1083=DIRECTION('center_axis',(0.,0.,-1.));
#1084=DIRECTION('ref_axis',(1.,0.,0.));
#1085=DIRECTION('center_axis',(0.,0.,1.));
#1086=DIRECTION('ref_axis',(1.,0.,0.));
#1087=DIRECTION('',(-0.768221279597377,-9.40799731095811E-17,-0.640184399664479));
#1088=DIRECTION('center_axis',(0.,0.,1.));
#1089=DIRECTION('ref_axis',(1.,0.,0.));
#1090=DIRECTION('center_axis',(0.,0.,1.));
#1091=DIRECTION('ref_axis',(1.,0.,0.));
#1092=DIRECTION('',(0.768221279597377,9.40799731095811E-17,-0.640184399664479));
#1093=DIRECTION('center_axis',(0.,0.,-1.));
#1094=DIRECTION('ref_axis',(1.,0.,0.));
#1095=DIRECTION('center_axis',(0.,0.,1.));
#1096=DIRECTION('ref_axis',(1.,0.,0.));
#1097=DIRECTION('',(0.,0.,-1.));
#1098=DIRECTION('center_axis',(0.,0.,-1.));
#1099=DIRECTION('ref_axis',(1.,0.,0.));
#1100=DIRECTION('center_axis',(0.,0.,1.));
#1101=DIRECTION('ref_axis',(1.,0.,0.));
#1102=DIRECTION('',(-0.768221279597375,-9.40799731095809E-17,-0.64018439966448));
#1103=DIRECTION('center_axis',(0.,0.,1.));
#1104=DIRECTION('ref_axis',(1.,0.,0.));
#1105=DIRECTION('center_axis',(0.,0.,1.));
#1106=DIRECTION('ref_axis',(1.,0.,0.));
#1107=DIRECTION('',(0.768221279597375,9.40799731095809E-17,-0.64018439966448));
#1108=DIRECTION('center_axis',(0.,0.,-1.));
#1109=DIRECTION('ref_axis',(1.,0.,0.));
#1110=DIRECTION('center_axis',(0.,0.,1.));
#1111=DIRECTION('ref_axis',(1.,0.,0.));
#1112=DIRECTION('',(0.,0.,-1.));
#1113=DIRECTION('center_axis',(0.,0.,-1.));
#1114=DIRECTION('ref_axis',(1.,0.,0.));
#1115=DIRECTION('center_axis',(0.,0.,1.));
#1116=DIRECTION('ref_axis',(1.,0.,0.));
#1117=DIRECTION('',(-0.768221279597375,-9.40799731095809E-17,-0.64018439966448));
#1118=DIRECTION('center_axis',(0.,0.,1.));
#1119=DIRECTION('ref_axis',(1.,0.,0.));
#1120=DIRECTION('center_axis',(0.,0.,1.));
#1121=DIRECTION('ref_axis',(1.,0.,0.));
#1122=DIRECTION('',(0.768221279597375,9.40799731095809E-17,-0.64018439966448));
#1123=DIRECTION('center_axis',(0.,0.,-1.));
#1124=DIRECTION('ref_axis',(1.,0.,0.));
#1125=DIRECTION('center_axis',(0.,0.,1.));
#1126=DIRECTION('ref_axis',(1.,0.,0.));
#1127=DIRECTION('',(0.,0.,-1.));
#1128=DIRECTION('center_axis',(0.,0.,-1.));
#1129=DIRECTION('ref_axis',(1.,0.,0.));
#1130=DIRECTION('center_axis',(0.,0.,1.));
#1131=DIRECTION('ref_axis',(1.,0.,0.));
#1132=DIRECTION('',(-0.768221279597375,-9.40799731095809E-17,-0.64018439966448));
#1133=DIRECTION('center_axis',(0.,0.,1.));
#1134=DIRECTION('ref_axis',(1.,0.,0.));
#1135=DIRECTION('center_axis',(0.,0.,1.));
#1136=DIRECTION('ref_axis',(1.,0.,0.));
#1137=DIRECTION('',(0.768221279597375,9.40799731095809E-17,-0.64018439966448));
#1138=DIRECTION('center_axis',(0.,0.,-1.));
#1139=DIRECTION('ref_axis',(1.,0.,0.));
#1140=DIRECTION('center_axis',(0.,0.,1.));
#1141=DIRECTION('ref_axis',(1.,0.,0.));
#1142=DIRECTION('',(0.,0.,-1.));
#1143=DIRECTION('center_axis',(0.,0.,-1.));
#1144=DIRECTION('ref_axis',(1.,0.,0.));
#1145=DIRECTION('center_axis',(0.,0.,1.));
#1146=DIRECTION('ref_axis',(1.,0.,0.));
#1147=DIRECTION('',(-0.768221279597375,-9.40799731095809E-17,-0.64018439966448));
#1148=DIRECTION('center_axis',(0.,0.,1.));
#1149=DIRECTION('ref_axis',(1.,0.,0.));
#1150=DIRECTION('center_axis',(0.,0.,1.));
#1151=DIRECTION('ref_axis',(1.,0.,0.));
#1152=DIRECTION('',(0.768221279597375,9.40799731095809E-17,-0.64018439966448));
#1153=DIRECTION('center_axis',(0.,0.,-1.));
#1154=DIRECTION('ref_axis',(1.,0.,0.));
#1155=DIRECTION('center_axis',(0.,0.,1.));
#1156=DIRECTION('ref_axis',(1.,0.,0.));
#1157=DIRECTION('',(0.,0.,-1.));
#1158=DIRECTION('center_axis',(0.,0.,-1.));
#1159=DIRECTION('ref_axis',(1.,0.,0.));
#1160=DIRECTION('center_axis',(0.,0.,1.));
#1161=DIRECTION('ref_axis',(1.,0.,0.));
#1162=DIRECTION('',(-0.768221279597375,-9.40799731095809E-17,-0.64018439966448));
#1163=DIRECTION('center_axis',(0.,0.,1.));
#1164=DIRECTION('ref_axis',(1.,0.,0.));
#1165=DIRECTION('center_axis',(0.,0.,1.));
#1166=DIRECTION('ref_axis',(1.,0.,0.));
#1167=DIRECTION('',(0.768221279597375,9.40799731095809E-17,-0.64018439966448));
#1168=DIRECTION('center_axis',(0.,0.,-1.));
#1169=DIRECTION('ref_axis',(1.,0.,0.));
#1170=DIRECTION('center_axis',(0.,0.,1.));
#1171=DIRECTION('ref_axis',(1.,0.,0.));
#1172=DIRECTION('',(0.,0.,-1.));
#1173=DIRECTION('center_axis',(0.,0.,-1.));
#1174=DIRECTION('ref_axis',(1.,0.,0.));
#1175=DIRECTION('center_axis',(0.,0.,1.));
#1176=DIRECTION('ref_axis',(1.,0.,0.));
#1177=DIRECTION('',(-0.768221279597375,-9.40799731095809E-17,-0.64018439966448));
#1178=DIRECTION('center_axis',(0.,0.,1.));
#1179=DIRECTION('ref_axis',(1.,0.,0.));
#1180=DIRECTION('center_axis',(0.,0.,1.));
#1181=DIRECTION('ref_axis',(1.,0.,0.));
#1182=DIRECTION('',(0.768221279597375,9.40799731095809E-17,-0.64018439966448));
#1183=DIRECTION('center_axis',(0.,0.,-1.));
#1184=DIRECTION('ref_axis',(1.,0.,0.));
#1185=DIRECTION('center_axis',(0.,0.,1.));
#1186=DIRECTION('ref_axis',(1.,0.,0.));
#1187=DIRECTION('',(0.,0.,-1.));
#1188=DIRECTION('center_axis',(0.,0.,-1.));
#1189=DIRECTION('ref_axis',(1.,0.,0.));
#1190=DIRECTION('center_axis',(0.,0.,1.));
#1191=DIRECTION('ref_axis',(1.,0.,0.));
#1192=DIRECTION('',(-0.768221279597375,-9.40799731095809E-17,-0.64018439966448));
#1193=DIRECTION('center_axis',(0.,0.,1.));
#1194=DIRECTION('ref_axis',(1.,0.,0.));
#1195=DIRECTION('center_axis',(0.,0.,1.));
#1196=DIRECTION('ref_axis',(1.,0.,0.));
#1197=DIRECTION('',(0.768221279597375,9.40799731095809E-17,-0.64018439966448));
#1198=DIRECTION('center_axis',(0.,0.,-1.));
#1199=DIRECTION('ref_axis',(1.,0.,0.));
#1200=DIRECTION('center_axis',(0.,0.,1.));
#1201=DIRECTION('ref_axis',(1.,0.,0.));
#1202=DIRECTION('',(0.,0.,-1.));
#1203=DIRECTION('center_axis',(0.,0.,-1.));
#1204=DIRECTION('ref_axis',(1.,0.,0.));
#1205=DIRECTION('center_axis',(0.,0.,1.));
#1206=DIRECTION('ref_axis',(1.,0.,0.));
#1207=DIRECTION('',(-0.948683298050514,-1.16180196436212E-16,-0.316227766016838));
#1208=DIRECTION('center_axis',(0.,0.,1.));
#1209=DIRECTION('ref_axis',(1.,0.,0.));
#1210=DIRECTION('center_axis',(0.,0.,1.));
#1211=DIRECTION('ref_axis',(1.,0.,0.));
#1212=DIRECTION('',(0.,0.,-1.));
#1213=DIRECTION('center_axis',(0.,0.,-1.));
#1214=DIRECTION('ref_axis',(1.,0.,0.));
#1215=DIRECTION('center_axis',(0.,0.,-1.));
#1216=DIRECTION('ref_axis',(1.,0.,0.));
#1217=DIRECTION('center_axis',(0.,0.,1.));
#1218=DIRECTION('ref_axis',(1.,0.,0.));
#1219=DIRECTION('',(-0.661621637086846,-8.10252820105038E-17,-0.749837855365093));
#1220=DIRECTION('center_axis',(0.,0.,1.));
#1221=DIRECTION('ref_axis',(1.,0.,0.));
#1222=CARTESIAN_POINT('',(0.,0.,0.));
#1223=CARTESIAN_POINT('Origin',(0.325,0.,0.4));
#1224=CARTESIAN_POINT('',(0.325,-0.325,0.));
#1225=CARTESIAN_POINT('',(0.325,-0.325,0.8));
#1226=CARTESIAN_POINT('',(0.325,-0.325,0.4));
#1227=CARTESIAN_POINT('',(0.325,-1.6,0.));
#1228=CARTESIAN_POINT('',(0.325,0.,0.));
#1229=CARTESIAN_POINT('',(0.325,-1.6,0.8));
#1230=CARTESIAN_POINT('',(0.325,-1.6,0.4));
#1231=CARTESIAN_POINT('',(0.325,0.,0.8));
#1232=CARTESIAN_POINT('Origin',(-0.325,0.,0.4));
#1233=CARTESIAN_POINT('',(-0.325,-0.325,0.8));
#1234=CARTESIAN_POINT('',(-0.325,-0.325,0.));
#1235=CARTESIAN_POINT('',(-0.325,-0.325,0.4));
#1236=CARTESIAN_POINT('',(-0.325,-1.6,0.8));
#1237=CARTESIAN_POINT('',(-0.325,0.,0.8));
#1238=CARTESIAN_POINT('',(-0.325,-1.6,0.));
#1239=CARTESIAN_POINT('',(-0.325,-1.6,0.4));
#1240=CARTESIAN_POINT('',(-0.325,0.,0.));
#1241=CARTESIAN_POINT('Origin',(-0.325,0.,0.4));
#1242=CARTESIAN_POINT('',(-0.325,0.325,0.));
#1243=CARTESIAN_POINT('',(-0.325,0.325,0.8));
#1244=CARTESIAN_POINT('',(-0.325,0.325,0.4));
#1245=CARTESIAN_POINT('',(-0.325,1.6,0.));
#1246=CARTESIAN_POINT('',(-0.325,0.,0.));
#1247=CARTESIAN_POINT('',(-0.325,1.6,0.8));
#1248=CARTESIAN_POINT('',(-0.325,1.6,0.4));
#1249=CARTESIAN_POINT('',(-0.325,0.,0.8));
#1250=CARTESIAN_POINT('Origin',(0.,-1.6,0.4));
#1251=CARTESIAN_POINT('',(0.,-1.6,0.8));
#1252=CARTESIAN_POINT('',(0.,-1.6,0.));
#1253=CARTESIAN_POINT('Origin',(0.,1.6,0.4));
#1254=CARTESIAN_POINT('',(0.325,1.6,0.8));
#1255=CARTESIAN_POINT('',(0.325,1.6,0.));
#1256=CARTESIAN_POINT('',(0.325,1.6,0.4));
#1257=CARTESIAN_POINT('',(0.,1.6,0.8));
#1258=CARTESIAN_POINT('',(0.,1.6,0.));
#1259=CARTESIAN_POINT('Origin',(0.325,0.,0.4));
#1260=CARTESIAN_POINT('',(0.325,0.325,0.8));
#1261=CARTESIAN_POINT('',(0.325,0.325,0.));
#1262=CARTESIAN_POINT('',(0.325,0.325,0.4));
#1263=CARTESIAN_POINT('',(0.325,0.,0.8));
#1264=CARTESIAN_POINT('',(0.325,0.,0.));
#1265=CARTESIAN_POINT('Origin',(0.,0.325,0.4));
#1266=CARTESIAN_POINT('',(-1.6,0.325,0.8));
#1267=CARTESIAN_POINT('',(0.,0.325,0.8));
#1268=CARTESIAN_POINT('',(-1.6,0.325,0.));
#1269=CARTESIAN_POINT('',(-1.6,0.325,0.4));
#1270=CARTESIAN_POINT('',(0.,0.325,0.));
#1271=CARTESIAN_POINT('Origin',(0.,-0.325,0.4));
#1272=CARTESIAN_POINT('',(-1.6,-0.325,0.));
#1273=CARTESIAN_POINT('',(0.,-0.325,0.));
#1274=CARTESIAN_POINT('',(-1.6,-0.325,0.8));
#1275=CARTESIAN_POINT('',(-1.6,-0.325,0.4));
#1276=CARTESIAN_POINT('',(0.,-0.325,0.8));
#1277=CARTESIAN_POINT('Origin',(0.,0.,0.));
#1278=CARTESIAN_POINT('',(-3.,-3.67394039744206E-16,-2.77555756156289E-16));
#1279=CARTESIAN_POINT('Origin',(0.,0.,0.));
#1280=CARTESIAN_POINT('',(-1.6,0.,0.));
#1281=CARTESIAN_POINT('',(1.6,-0.325,0.));
#1282=CARTESIAN_POINT('',(0.,-0.325,0.));
#1283=CARTESIAN_POINT('',(1.6,0.325,0.));
#1284=CARTESIAN_POINT('',(1.6,0.,0.));
#1285=CARTESIAN_POINT('',(0.,0.325,0.));
#1286=CARTESIAN_POINT('Origin',(0.,0.,0.8));
#1287=CARTESIAN_POINT('',(1.6,0.325,0.8));
#1288=CARTESIAN_POINT('',(0.,0.325,0.8));
#1289=CARTESIAN_POINT('',(1.6,-0.325,0.8));
#1290=CARTESIAN_POINT('',(1.6,0.,0.8));
#1291=CARTESIAN_POINT('',(0.,-0.325,0.8));
#1292=CARTESIAN_POINT('',(-1.6,0.,0.8));
#1293=CARTESIAN_POINT('Origin',(0.,-0.325,0.4));
#1294=CARTESIAN_POINT('',(1.6,-0.325,0.4));
#1295=CARTESIAN_POINT('Origin',(-1.6,0.,0.4));
#1296=CARTESIAN_POINT('Origin',(0.,0.325,0.4));
#1297=CARTESIAN_POINT('',(1.6,0.325,0.4));
#1298=CARTESIAN_POINT('Origin',(1.6,0.,0.4));
#1299=CARTESIAN_POINT('Origin',(0.,0.,7.4625));
#1300=CARTESIAN_POINT('',(-1.35,-1.65327317884893E-16,7.525));
#1301=CARTESIAN_POINT('Origin',(0.,0.,7.525));
#1302=CARTESIAN_POINT('',(-1.5,-1.83697019872103E-16,7.4));
#1303=CARTESIAN_POINT('',(-1.425,-1.74512168878498E-16,7.4625));
#1304=CARTESIAN_POINT('Origin',(0.,0.,7.4));
#1305=CARTESIAN_POINT('Origin',(0.,0.,7.3375));
#1306=CARTESIAN_POINT('',(-1.35,-1.65327317884893E-16,7.275));
#1307=CARTESIAN_POINT('',(-1.425,-1.74512168878498E-16,7.3375));
#1308=CARTESIAN_POINT('Origin',(0.,0.,7.275));
#1309=CARTESIAN_POINT('Origin',(0.,0.,4.7));
#1310=CARTESIAN_POINT('',(-1.35,-1.65327317884893E-16,7.7));
#1311=CARTESIAN_POINT('Origin',(0.,0.,7.7));
#1312=CARTESIAN_POINT('',(-1.35,-1.65327317884893E-16,4.7));
#1313=CARTESIAN_POINT('Origin',(0.,0.,6.9625));
#1314=CARTESIAN_POINT('',(-1.35,-1.65327317884893E-16,7.025));
#1315=CARTESIAN_POINT('Origin',(0.,0.,7.025));
#1316=CARTESIAN_POINT('',(-1.5,-1.83697019872103E-16,6.9));
#1317=CARTESIAN_POINT('',(-1.425,-1.74512168878498E-16,6.9625));
#1318=CARTESIAN_POINT('Origin',(0.,0.,6.9));
#1319=CARTESIAN_POINT('Origin',(0.,0.,6.8375));
#1320=CARTESIAN_POINT('',(-1.35,-1.65327317884893E-16,6.775));
#1321=CARTESIAN_POINT('',(-1.425,-1.74512168878498E-16,6.8375));
#1322=CARTESIAN_POINT('Origin',(0.,0.,6.775));
#1323=CARTESIAN_POINT('Origin',(0.,0.,4.7));
#1324=CARTESIAN_POINT('',(-1.35,-1.65327317884893E-16,4.7));
#1325=CARTESIAN_POINT('Origin',(0.,0.,6.4625));
#1326=CARTESIAN_POINT('',(-1.35,-1.65327317884893E-16,6.525));
#1327=CARTESIAN_POINT('Origin',(0.,0.,6.525));
#1328=CARTESIAN_POINT('',(-1.5,-1.83697019872103E-16,6.4));
#1329=CARTESIAN_POINT('',(-1.425,-1.74512168878498E-16,6.4625));
#1330=CARTESIAN_POINT('Origin',(0.,0.,6.4));
#1331=CARTESIAN_POINT('Origin',(0.,0.,6.3375));
#1332=CARTESIAN_POINT('',(-1.35,-1.65327317884893E-16,6.275));
#1333=CARTESIAN_POINT('',(-1.425,-1.74512168878498E-16,6.3375));
#1334=CARTESIAN_POINT('Origin',(0.,0.,6.275));
#1335=CARTESIAN_POINT('Origin',(0.,0.,4.7));
#1336=CARTESIAN_POINT('',(-1.35,-1.65327317884893E-16,4.7));
#1337=CARTESIAN_POINT('Origin',(0.,0.,5.9625));
#1338=CARTESIAN_POINT('',(-1.35,-1.65327317884893E-16,6.025));
#1339=CARTESIAN_POINT('Origin',(0.,0.,6.025));
#1340=CARTESIAN_POINT('',(-1.5,-1.83697019872103E-16,5.9));
#1341=CARTESIAN_POINT('',(-1.425,-1.74512168878498E-16,5.9625));
#1342=CARTESIAN_POINT('Origin',(0.,0.,5.9));
#1343=CARTESIAN_POINT('Origin',(0.,0.,5.8375));
#1344=CARTESIAN_POINT('',(-1.35,-1.65327317884893E-16,5.775));
#1345=CARTESIAN_POINT('',(-1.425,-1.74512168878498E-16,5.8375));
#1346=CARTESIAN_POINT('Origin',(0.,0.,5.775));
#1347=CARTESIAN_POINT('Origin',(0.,0.,4.7));
#1348=CARTESIAN_POINT('',(-1.35,-1.65327317884893E-16,4.7));
#1349=CARTESIAN_POINT('Origin',(0.,0.,5.4625));
#1350=CARTESIAN_POINT('',(-1.35,-1.65327317884893E-16,5.525));
#1351=CARTESIAN_POINT('Origin',(0.,0.,5.525));
#1352=CARTESIAN_POINT('',(-1.5,-1.83697019872103E-16,5.4));
#1353=CARTESIAN_POINT('',(-1.425,-1.74512168878498E-16,5.4625));
#1354=CARTESIAN_POINT('Origin',(0.,0.,5.4));
#1355=CARTESIAN_POINT('Origin',(0.,0.,5.3375));
#1356=CARTESIAN_POINT('',(-1.35,-1.65327317884893E-16,5.275));
#1357=CARTESIAN_POINT('',(-1.425,-1.74512168878498E-16,5.3375));
#1358=CARTESIAN_POINT('Origin',(0.,0.,5.275));
#1359=CARTESIAN_POINT('Origin',(0.,0.,4.7));
#1360=CARTESIAN_POINT('',(-1.35,-1.65327317884893E-16,4.7));
#1361=CARTESIAN_POINT('Origin',(0.,0.,4.9625));
#1362=CARTESIAN_POINT('',(-1.35,-1.65327317884893E-16,5.025));
#1363=CARTESIAN_POINT('Origin',(0.,0.,5.025));
#1364=CARTESIAN_POINT('',(-1.5,-1.83697019872103E-16,4.9));
#1365=CARTESIAN_POINT('',(-1.425,-1.74512168878498E-16,4.9625));
#1366=CARTESIAN_POINT('Origin',(0.,0.,4.9));
#1367=CARTESIAN_POINT('Origin',(0.,0.,4.8375));
#1368=CARTESIAN_POINT('',(-1.35,-1.65327317884893E-16,4.775));
#1369=CARTESIAN_POINT('',(-1.425,-1.74512168878498E-16,4.8375));
#1370=CARTESIAN_POINT('Origin',(0.,0.,4.775));
#1371=CARTESIAN_POINT('Origin',(0.,0.,4.7));
#1372=CARTESIAN_POINT('',(-1.35,-1.65327317884893E-16,4.7));
#1373=CARTESIAN_POINT('Origin',(0.,0.,4.4625));
#1374=CARTESIAN_POINT('',(-1.35,-1.65327317884893E-16,4.525));
#1375=CARTESIAN_POINT('Origin',(0.,0.,4.525));
#1376=CARTESIAN_POINT('',(-1.5,-1.83697019872103E-16,4.4));
#1377=CARTESIAN_POINT('',(-1.425,-1.74512168878498E-16,4.4625));
#1378=CARTESIAN_POINT('Origin',(0.,0.,4.4));
#1379=CARTESIAN_POINT('Origin',(0.,0.,4.3375));
#1380=CARTESIAN_POINT('',(-1.35,-1.65327317884893E-16,4.275));
#1381=CARTESIAN_POINT('',(-1.425,-1.74512168878498E-16,4.3375));
#1382=CARTESIAN_POINT('Origin',(0.,0.,4.275));
#1383=CARTESIAN_POINT('Origin',(0.,0.,4.7));
#1384=CARTESIAN_POINT('',(-1.35,-1.65327317884893E-16,4.7));
#1385=CARTESIAN_POINT('Origin',(0.,0.,3.9625));
#1386=CARTESIAN_POINT('',(-1.35,-1.65327317884893E-16,4.025));
#1387=CARTESIAN_POINT('Origin',(0.,0.,4.025));
#1388=CARTESIAN_POINT('',(-1.5,-1.83697019872103E-16,3.9));
#1389=CARTESIAN_POINT('',(-1.425,-1.74512168878498E-16,3.9625));
#1390=CARTESIAN_POINT('Origin',(0.,0.,3.9));
#1391=CARTESIAN_POINT('Origin',(0.,0.,3.8375));
#1392=CARTESIAN_POINT('',(-1.35,-1.65327317884893E-16,3.775));
#1393=CARTESIAN_POINT('',(-1.425,-1.74512168878498E-16,3.8375));
#1394=CARTESIAN_POINT('Origin',(0.,0.,3.775));
#1395=CARTESIAN_POINT('Origin',(0.,0.,4.7));
#1396=CARTESIAN_POINT('',(-1.35,-1.65327317884893E-16,4.7));
#1397=CARTESIAN_POINT('Origin',(0.,0.,3.4625));
#1398=CARTESIAN_POINT('',(-1.35,-1.65327317884893E-16,3.525));
#1399=CARTESIAN_POINT('Origin',(0.,0.,3.525));
#1400=CARTESIAN_POINT('',(-1.5,-1.83697019872103E-16,3.4));
#1401=CARTESIAN_POINT('',(-1.425,-1.74512168878498E-16,3.4625));
#1402=CARTESIAN_POINT('Origin',(0.,0.,3.4));
#1403=CARTESIAN_POINT('Origin',(0.,0.,3.3375));
#1404=CARTESIAN_POINT('',(-1.35,-1.65327317884893E-16,3.275));
#1405=CARTESIAN_POINT('',(-1.425,-1.74512168878498E-16,3.3375));
#1406=CARTESIAN_POINT('Origin',(0.,0.,3.275));
#1407=CARTESIAN_POINT('Origin',(0.,0.,4.7));
#1408=CARTESIAN_POINT('',(-1.35,-1.65327317884893E-16,4.7));
#1409=CARTESIAN_POINT('Origin',(0.,0.,2.9625));
#1410=CARTESIAN_POINT('',(-1.35,-1.65327317884893E-16,3.025));
#1411=CARTESIAN_POINT('Origin',(0.,0.,3.025));
#1412=CARTESIAN_POINT('',(-1.5,-1.83697019872103E-16,2.9));
#1413=CARTESIAN_POINT('',(-1.425,-1.74512168878498E-16,2.9625));
#1414=CARTESIAN_POINT('Origin',(0.,0.,2.9));
#1415=CARTESIAN_POINT('Origin',(0.,0.,2.8375));
#1416=CARTESIAN_POINT('',(-1.35,-1.65327317884893E-16,2.775));
#1417=CARTESIAN_POINT('',(-1.425,-1.74512168878498E-16,2.8375));
#1418=CARTESIAN_POINT('Origin',(0.,0.,2.775));
#1419=CARTESIAN_POINT('Origin',(0.,0.,4.7));
#1420=CARTESIAN_POINT('',(-1.35,-1.65327317884893E-16,4.7));
#1421=CARTESIAN_POINT('Origin',(0.,0.,2.4625));
#1422=CARTESIAN_POINT('',(-1.35,-1.65327317884893E-16,2.525));
#1423=CARTESIAN_POINT('Origin',(0.,0.,2.525));
#1424=CARTESIAN_POINT('',(-1.5,-1.83697019872103E-16,2.4));
#1425=CARTESIAN_POINT('',(-1.425,-1.74512168878498E-16,2.4625));
#1426=CARTESIAN_POINT('Origin',(0.,0.,2.4));
#1427=CARTESIAN_POINT('Origin',(0.,0.,2.3375));
#1428=CARTESIAN_POINT('',(-1.35,-1.65327317884893E-16,2.275));
#1429=CARTESIAN_POINT('',(-1.425,-1.74512168878498E-16,2.3375));
#1430=CARTESIAN_POINT('Origin',(0.,0.,2.275));
#1431=CARTESIAN_POINT('Origin',(0.,0.,4.7));
#1432=CARTESIAN_POINT('',(-1.35,-1.65327317884893E-16,4.7));
#1433=CARTESIAN_POINT('Origin',(0.,0.,1.9625));
#1434=CARTESIAN_POINT('',(-1.35,-1.65327317884893E-16,2.025));
#1435=CARTESIAN_POINT('Origin',(0.,0.,2.025));
#1436=CARTESIAN_POINT('',(-1.5,-1.83697019872103E-16,1.9));
#1437=CARTESIAN_POINT('',(-1.425,-1.74512168878498E-16,1.9625));
#1438=CARTESIAN_POINT('Origin',(0.,0.,1.9));
#1439=CARTESIAN_POINT('Origin',(0.,0.,1.8375));
#1440=CARTESIAN_POINT('',(-1.35,-1.65327317884893E-16,1.775));
#1441=CARTESIAN_POINT('',(-1.425,-1.74512168878498E-16,1.8375));
#1442=CARTESIAN_POINT('Origin',(0.,0.,1.775));
#1443=CARTESIAN_POINT('Origin',(0.,0.,4.7));
#1444=CARTESIAN_POINT('',(-1.35,-1.65327317884893E-16,4.7));
#1445=CARTESIAN_POINT('Origin',(0.,0.,7.85));
#1446=CARTESIAN_POINT('',(-0.45,-5.51091059616309E-17,8.));
#1447=CARTESIAN_POINT('Origin',(0.,0.,8.));
#1448=CARTESIAN_POINT('',(-0.9,-1.10218211923262E-16,7.85));
#1449=CARTESIAN_POINT('Origin',(0.,0.,8.));
#1450=CARTESIAN_POINT('Origin',(0.,0.,4.7));
#1451=CARTESIAN_POINT('',(-1.35,-1.65327317884893E-16,1.7));
#1452=CARTESIAN_POINT('',(-1.35,-1.65327317884893E-16,4.7));
#1453=CARTESIAN_POINT('Origin',(0.,0.,1.7));
#1454=CARTESIAN_POINT('Origin',(0.,0.,0.85));
#1455=CARTESIAN_POINT('',(-1.5,-1.83697019872103E-16,1.7));
#1456=CARTESIAN_POINT('Origin',(0.,0.,1.7));
#1457=CARTESIAN_POINT('',(-2.25,-2.75545529808154E-16,0.85));
#1458=CARTESIAN_POINT('Origin',(0.,0.,1.7));
#1459=UNCERTAINTY_MEASURE_WITH_UNIT(LENGTH_MEASURE(0.01),#1463,
'DISTANCE_ACCURACY_VALUE',
'Maximum model space distance between geometric entities at asserted c
onnectivities');
#1460=UNCERTAINTY_MEASURE_WITH_UNIT(LENGTH_MEASURE(0.01),#1463,
'DISTANCE_ACCURACY_VALUE',
'Maximum model space distance between geometric entities at asserted c
onnectivities');
#1461=(
GEOMETRIC_REPRESENTATION_CONTEXT(3)
GLOBAL_UNCERTAINTY_ASSIGNED_CONTEXT((#1459))
GLOBAL_UNIT_ASSIGNED_CONTEXT((#1463,#1465,#1466))
REPRESENTATION_CONTEXT('','3D')
);
#1462=(
GEOMETRIC_REPRESENTATION_CONTEXT(3)
GLOBAL_UNCERTAINTY_ASSIGNED_CONTEXT((#1460))
GLOBAL_UNIT_ASSIGNED_CONTEXT((#1463,#1465,#1466))
REPRESENTATION_CONTEXT('','3D')
);
#1463=(
LENGTH_UNIT()
NAMED_UNIT(*)
SI_UNIT(.MILLI.,.METRE.)
);
#1464=(
LENGTH_UNIT()
NAMED_UNIT(*)
SI_UNIT($,.METRE.)
);
#1465=(
NAMED_UNIT(*)
PLANE_ANGLE_UNIT()
SI_UNIT($,.RADIAN.)
);
#1466=(
NAMED_UNIT(*)
SI_UNIT($,.STERADIAN.)
SOLID_ANGLE_UNIT()
);
#1467=SHAPE_DEFINITION_REPRESENTATION(#1468,#1469);
#1468=PRODUCT_DEFINITION_SHAPE('',$,#1471);
#1469=SHAPE_REPRESENTATION('',(#856),#1461);
#1470=PRODUCT_DEFINITION_CONTEXT('part definition',#1475,'design');
#1471=PRODUCT_DEFINITION('M3-CSK-PH2-8-A2',
'M3 x 8 mm Countersunk Phillips Screw (1)',#1472,#1470);
#1472=PRODUCT_DEFINITION_FORMATION('',$,#1477);
#1473=PRODUCT_RELATED_PRODUCT_CATEGORY(
'M3 x 8 mm Countersunk Phillips Screw (1)',
'M3 x 8 mm Countersunk Phillips Screw (1)',(#1477));
#1474=APPLICATION_PROTOCOL_DEFINITION('international standard',
'automotive_design',2009,#1475);
#1475=APPLICATION_CONTEXT(
'Core Data for Automotive Mechanical Design Process');
#1476=PRODUCT_CONTEXT('part definition',#1475,'mechanical');
#1477=PRODUCT('M3-CSK-PH2-8-A2',
'M3 x 8 mm Countersunk Phillips Screw (1)',
'M3 x 8 mm total-length, 0.5 mm pitch countersunk Phillips machine scr
ew',(#1476));
#1478=PRESENTATION_STYLE_ASSIGNMENT((#1480));
#1479=PRESENTATION_STYLE_ASSIGNMENT((#1481));
#1480=SURFACE_STYLE_USAGE(.BOTH.,#1482);
#1481=SURFACE_STYLE_USAGE(.BOTH.,#1483);
#1482=SURFACE_SIDE_STYLE('',(#1484));
#1483=SURFACE_SIDE_STYLE('',(#1485));
#1484=SURFACE_STYLE_FILL_AREA(#1486);
#1485=SURFACE_STYLE_FILL_AREA(#1487);
#1486=FILL_AREA_STYLE('Steel - Satin',(#1488));
#1487=FILL_AREA_STYLE('OpenRemote Medium Shiny Grey',(#1489));
#1488=FILL_AREA_STYLE_COLOUR('Steel - Satin',#1490);
#1489=FILL_AREA_STYLE_COLOUR('OpenRemote Medium Shiny Grey',#1491);
#1490=COLOUR_RGB('Steel - Satin',0.627450980392157,0.627450980392157,0.627450980392157);
#1491=COLOUR_RGB('OpenRemote Medium Shiny Grey',0.796078431372549,0.796078431372549,
0.796078431372549);
ENDSEC;
END-ISO-10303-21;
